%TF.GenerationSoftware,KiCad,Pcbnew,5.1.12-84ad8e8a86~92~ubuntu20.04.1*%
%TF.CreationDate,2021-11-15T21:49:07+01:00*%
%TF.ProjectId,incubator_bottom,696e6375-6261-4746-9f72-5f626f74746f,rev?*%
%TF.SameCoordinates,Original*%
%TF.FileFunction,Soldermask,Top*%
%TF.FilePolarity,Negative*%
%FSLAX46Y46*%
G04 Gerber Fmt 4.6, Leading zero omitted, Abs format (unit mm)*
G04 Created by KiCad (PCBNEW 5.1.12-84ad8e8a86~92~ubuntu20.04.1) date 2021-11-15 21:49:07*
%MOMM*%
%LPD*%
G01*
G04 APERTURE LIST*
%ADD10C,4.300000*%
%ADD11R,5.800000X6.400000*%
%ADD12R,1.200000X2.200000*%
%ADD13R,1.200000X0.900000*%
%ADD14C,3.200000*%
%ADD15O,1.700000X1.700000*%
%ADD16R,1.700000X1.700000*%
%ADD17R,0.900000X1.200000*%
%ADD18C,0.990600*%
%ADD19C,0.787400*%
%ADD20R,4.000000X2.200000*%
%ADD21O,2.200000X4.000000*%
%ADD22O,4.000000X2.200000*%
%ADD23C,0.100000*%
%ADD24R,0.900000X0.800000*%
%ADD25O,1.050000X1.500000*%
%ADD26R,1.050000X1.500000*%
%ADD27R,0.550000X1.600000*%
%ADD28R,1.600000X0.550000*%
%ADD29O,1.700000X2.000000*%
%ADD30R,4.600000X1.100000*%
%ADD31R,9.400000X10.800000*%
G04 APERTURE END LIST*
D10*
%TO.C,H4*%
X94742000Y5080000D03*
%TD*%
%TO.C,H3*%
X94742000Y69088000D03*
%TD*%
%TO.C,H2*%
X5207000Y5080000D03*
%TD*%
%TO.C,H1*%
X5207000Y69088000D03*
%TD*%
%TO.C,R2*%
G36*
G01*
X97097001Y56661000D02*
X96196999Y56661000D01*
G75*
G02*
X95947000Y56910999I0J249999D01*
G01*
X95947000Y57611001D01*
G75*
G02*
X96196999Y57861000I249999J0D01*
G01*
X97097001Y57861000D01*
G75*
G02*
X97347000Y57611001I0J-249999D01*
G01*
X97347000Y56910999D01*
G75*
G02*
X97097001Y56661000I-249999J0D01*
G01*
G37*
G36*
G01*
X97097001Y54661000D02*
X96196999Y54661000D01*
G75*
G02*
X95947000Y54910999I0J249999D01*
G01*
X95947000Y55611001D01*
G75*
G02*
X96196999Y55861000I249999J0D01*
G01*
X97097001Y55861000D01*
G75*
G02*
X97347000Y55611001I0J-249999D01*
G01*
X97347000Y54910999D01*
G75*
G02*
X97097001Y54661000I-249999J0D01*
G01*
G37*
%TD*%
%TO.C,R1*%
G36*
G01*
X83635001Y56772000D02*
X82734999Y56772000D01*
G75*
G02*
X82485000Y57021999I0J249999D01*
G01*
X82485000Y57722001D01*
G75*
G02*
X82734999Y57972000I249999J0D01*
G01*
X83635001Y57972000D01*
G75*
G02*
X83885000Y57722001I0J-249999D01*
G01*
X83885000Y57021999D01*
G75*
G02*
X83635001Y56772000I-249999J0D01*
G01*
G37*
G36*
G01*
X83635001Y54772000D02*
X82734999Y54772000D01*
G75*
G02*
X82485000Y55021999I0J249999D01*
G01*
X82485000Y55722001D01*
G75*
G02*
X82734999Y55972000I249999J0D01*
G01*
X83635001Y55972000D01*
G75*
G02*
X83885000Y55722001I0J-249999D01*
G01*
X83885000Y55021999D01*
G75*
G02*
X83635001Y54772000I-249999J0D01*
G01*
G37*
%TD*%
%TO.C,D5*%
G36*
G01*
X96196999Y60120000D02*
X97097001Y60120000D01*
G75*
G02*
X97347000Y59870001I0J-249999D01*
G01*
X97347000Y59219999D01*
G75*
G02*
X97097001Y58970000I-249999J0D01*
G01*
X96196999Y58970000D01*
G75*
G02*
X95947000Y59219999I0J249999D01*
G01*
X95947000Y59870001D01*
G75*
G02*
X96196999Y60120000I249999J0D01*
G01*
G37*
G36*
G01*
X96196999Y62170000D02*
X97097001Y62170000D01*
G75*
G02*
X97347000Y61920001I0J-249999D01*
G01*
X97347000Y61269999D01*
G75*
G02*
X97097001Y61020000I-249999J0D01*
G01*
X96196999Y61020000D01*
G75*
G02*
X95947000Y61269999I0J249999D01*
G01*
X95947000Y61920001D01*
G75*
G02*
X96196999Y62170000I249999J0D01*
G01*
G37*
%TD*%
%TO.C,D4*%
G36*
G01*
X82734999Y60138000D02*
X83635001Y60138000D01*
G75*
G02*
X83885000Y59888001I0J-249999D01*
G01*
X83885000Y59237999D01*
G75*
G02*
X83635001Y58988000I-249999J0D01*
G01*
X82734999Y58988000D01*
G75*
G02*
X82485000Y59237999I0J249999D01*
G01*
X82485000Y59888001D01*
G75*
G02*
X82734999Y60138000I249999J0D01*
G01*
G37*
G36*
G01*
X82734999Y62188000D02*
X83635001Y62188000D01*
G75*
G02*
X83885000Y61938001I0J-249999D01*
G01*
X83885000Y61287999D01*
G75*
G02*
X83635001Y61038000I-249999J0D01*
G01*
X82734999Y61038000D01*
G75*
G02*
X82485000Y61287999I0J249999D01*
G01*
X82485000Y61938001D01*
G75*
G02*
X82734999Y62188000I249999J0D01*
G01*
G37*
%TD*%
%TO.C,R7*%
X72057000Y53653000D03*
X27257000Y53653000D03*
%TD*%
%TO.C,C7*%
G36*
G01*
X93541000Y52103000D02*
X93541000Y53053000D01*
G75*
G02*
X93791000Y53303000I250000J0D01*
G01*
X94466000Y53303000D01*
G75*
G02*
X94716000Y53053000I0J-250000D01*
G01*
X94716000Y52103000D01*
G75*
G02*
X94466000Y51853000I-250000J0D01*
G01*
X93791000Y51853000D01*
G75*
G02*
X93541000Y52103000I0J250000D01*
G01*
G37*
G36*
G01*
X91466000Y52103000D02*
X91466000Y53053000D01*
G75*
G02*
X91716000Y53303000I250000J0D01*
G01*
X92391000Y53303000D01*
G75*
G02*
X92641000Y53053000I0J-250000D01*
G01*
X92641000Y52103000D01*
G75*
G02*
X92391000Y51853000I-250000J0D01*
G01*
X91716000Y51853000D01*
G75*
G02*
X91466000Y52103000I0J250000D01*
G01*
G37*
%TD*%
%TO.C,C6*%
G36*
G01*
X85783000Y52926000D02*
X85783000Y51976000D01*
G75*
G02*
X85533000Y51726000I-250000J0D01*
G01*
X84858000Y51726000D01*
G75*
G02*
X84608000Y51976000I0J250000D01*
G01*
X84608000Y52926000D01*
G75*
G02*
X84858000Y53176000I250000J0D01*
G01*
X85533000Y53176000D01*
G75*
G02*
X85783000Y52926000I0J-250000D01*
G01*
G37*
G36*
G01*
X87858000Y52926000D02*
X87858000Y51976000D01*
G75*
G02*
X87608000Y51726000I-250000J0D01*
G01*
X86933000Y51726000D01*
G75*
G02*
X86683000Y51976000I0J250000D01*
G01*
X86683000Y52926000D01*
G75*
G02*
X86933000Y53176000I250000J0D01*
G01*
X87608000Y53176000D01*
G75*
G02*
X87858000Y52926000I0J-250000D01*
G01*
G37*
%TD*%
D11*
%TO.C,U5*%
X89661000Y61746000D03*
D12*
X91941000Y55446000D03*
X87381000Y55446000D03*
%TD*%
D13*
%TO.C,D3*%
X91821000Y50291000D03*
X91821000Y46991000D03*
%TD*%
D14*
%TO.C,H8*%
X71298000Y25603000D03*
%TD*%
%TO.C,H7*%
X71298000Y65659000D03*
%TD*%
%TO.C,H6*%
X31242000Y25603000D03*
%TD*%
%TO.C,H5*%
X31242000Y65659000D03*
%TD*%
D15*
%TO.C,J8*%
X94038000Y17968000D03*
X91498000Y17968000D03*
X88958000Y17968000D03*
X86418000Y17968000D03*
X83878000Y17968000D03*
D16*
X81338000Y17968000D03*
%TD*%
D17*
%TO.C,D2*%
X88901000Y14224000D03*
X92201000Y14224000D03*
%TD*%
%TO.C,C5*%
G36*
G01*
X82583000Y23172000D02*
X83533000Y23172000D01*
G75*
G02*
X83783000Y22922000I0J-250000D01*
G01*
X83783000Y22247000D01*
G75*
G02*
X83533000Y21997000I-250000J0D01*
G01*
X82583000Y21997000D01*
G75*
G02*
X82333000Y22247000I0J250000D01*
G01*
X82333000Y22922000D01*
G75*
G02*
X82583000Y23172000I250000J0D01*
G01*
G37*
G36*
G01*
X82583000Y25247000D02*
X83533000Y25247000D01*
G75*
G02*
X83783000Y24997000I0J-250000D01*
G01*
X83783000Y24322000D01*
G75*
G02*
X83533000Y24072000I-250000J0D01*
G01*
X82583000Y24072000D01*
G75*
G02*
X82333000Y24322000I0J250000D01*
G01*
X82333000Y24997000D01*
G75*
G02*
X82583000Y25247000I250000J0D01*
G01*
G37*
%TD*%
%TO.C,C3*%
G36*
G01*
X83472000Y6408000D02*
X84422000Y6408000D01*
G75*
G02*
X84672000Y6158000I0J-250000D01*
G01*
X84672000Y5483000D01*
G75*
G02*
X84422000Y5233000I-250000J0D01*
G01*
X83472000Y5233000D01*
G75*
G02*
X83222000Y5483000I0J250000D01*
G01*
X83222000Y6158000D01*
G75*
G02*
X83472000Y6408000I250000J0D01*
G01*
G37*
G36*
G01*
X83472000Y8483000D02*
X84422000Y8483000D01*
G75*
G02*
X84672000Y8233000I0J-250000D01*
G01*
X84672000Y7558000D01*
G75*
G02*
X84422000Y7308000I-250000J0D01*
G01*
X83472000Y7308000D01*
G75*
G02*
X83222000Y7558000I0J250000D01*
G01*
X83222000Y8233000D01*
G75*
G02*
X83472000Y8483000I250000J0D01*
G01*
G37*
%TD*%
%TO.C,C1*%
G36*
G01*
X91095500Y22446000D02*
X91095500Y21496000D01*
G75*
G02*
X90845500Y21246000I-250000J0D01*
G01*
X90170500Y21246000D01*
G75*
G02*
X89920500Y21496000I0J250000D01*
G01*
X89920500Y22446000D01*
G75*
G02*
X90170500Y22696000I250000J0D01*
G01*
X90845500Y22696000D01*
G75*
G02*
X91095500Y22446000I0J-250000D01*
G01*
G37*
G36*
G01*
X93170500Y22446000D02*
X93170500Y21496000D01*
G75*
G02*
X92920500Y21246000I-250000J0D01*
G01*
X92245500Y21246000D01*
G75*
G02*
X91995500Y21496000I0J250000D01*
G01*
X91995500Y22446000D01*
G75*
G02*
X92245500Y22696000I250000J0D01*
G01*
X92920500Y22696000D01*
G75*
G02*
X93170500Y22446000I0J-250000D01*
G01*
G37*
%TD*%
%TO.C,C2*%
G36*
G01*
X93170500Y25113000D02*
X93170500Y24163000D01*
G75*
G02*
X92920500Y23913000I-250000J0D01*
G01*
X92245500Y23913000D01*
G75*
G02*
X91995500Y24163000I0J250000D01*
G01*
X91995500Y25113000D01*
G75*
G02*
X92245500Y25363000I250000J0D01*
G01*
X92920500Y25363000D01*
G75*
G02*
X93170500Y25113000I0J-250000D01*
G01*
G37*
G36*
G01*
X91095500Y25113000D02*
X91095500Y24163000D01*
G75*
G02*
X90845500Y23913000I-250000J0D01*
G01*
X90170500Y23913000D01*
G75*
G02*
X89920500Y24163000I0J250000D01*
G01*
X89920500Y25113000D01*
G75*
G02*
X90170500Y25363000I250000J0D01*
G01*
X90845500Y25363000D01*
G75*
G02*
X91095500Y25113000I0J-250000D01*
G01*
G37*
%TD*%
D13*
%TO.C,D1*%
X89281000Y42290000D03*
X89281000Y38990000D03*
%TD*%
D18*
%TO.C,J2*%
X81153000Y39878000D03*
X81153000Y41910000D03*
X86233000Y40894000D03*
D19*
X84963000Y41529000D03*
X84963000Y40259000D03*
X83693000Y41529000D03*
X83693000Y40259000D03*
X82423000Y41529000D03*
X82423000Y40259000D03*
%TD*%
D20*
%TO.C,J5*%
X6731000Y37465000D03*
D21*
X14031000Y37965000D03*
D22*
X9631000Y44565000D03*
X10831000Y47265000D03*
D21*
X2831000Y42065000D03*
%TD*%
%TO.C,J6*%
X2831000Y57940000D03*
D22*
X10831000Y63140000D03*
X9631000Y60440000D03*
D21*
X14031000Y53840000D03*
D20*
X6731000Y53340000D03*
%TD*%
D23*
%TO.C,JP1*%
G36*
X81826000Y32246000D02*
G01*
X82326000Y32246000D01*
X82326000Y32245398D01*
X82350534Y32245398D01*
X82399365Y32240588D01*
X82447490Y32231016D01*
X82494445Y32216772D01*
X82539778Y32197995D01*
X82583051Y32174864D01*
X82623850Y32147604D01*
X82661779Y32116476D01*
X82696476Y32081779D01*
X82727604Y32043850D01*
X82754864Y32003051D01*
X82777995Y31959778D01*
X82796772Y31914445D01*
X82811016Y31867490D01*
X82820588Y31819365D01*
X82825398Y31770534D01*
X82825398Y31746000D01*
X82826000Y31746000D01*
X82826000Y31246000D01*
X82825398Y31246000D01*
X82825398Y31221466D01*
X82820588Y31172635D01*
X82811016Y31124510D01*
X82796772Y31077555D01*
X82777995Y31032222D01*
X82754864Y30988949D01*
X82727604Y30948150D01*
X82696476Y30910221D01*
X82661779Y30875524D01*
X82623850Y30844396D01*
X82583051Y30817136D01*
X82539778Y30794005D01*
X82494445Y30775228D01*
X82447490Y30760984D01*
X82399365Y30751412D01*
X82350534Y30746602D01*
X82326000Y30746602D01*
X82326000Y30746000D01*
X81826000Y30746000D01*
X81826000Y32246000D01*
G37*
G36*
X81026000Y30746602D02*
G01*
X81001466Y30746602D01*
X80952635Y30751412D01*
X80904510Y30760984D01*
X80857555Y30775228D01*
X80812222Y30794005D01*
X80768949Y30817136D01*
X80728150Y30844396D01*
X80690221Y30875524D01*
X80655524Y30910221D01*
X80624396Y30948150D01*
X80597136Y30988949D01*
X80574005Y31032222D01*
X80555228Y31077555D01*
X80540984Y31124510D01*
X80531412Y31172635D01*
X80526602Y31221466D01*
X80526602Y31246000D01*
X80526000Y31246000D01*
X80526000Y31746000D01*
X80526602Y31746000D01*
X80526602Y31770534D01*
X80531412Y31819365D01*
X80540984Y31867490D01*
X80555228Y31914445D01*
X80574005Y31959778D01*
X80597136Y32003051D01*
X80624396Y32043850D01*
X80655524Y32081779D01*
X80690221Y32116476D01*
X80728150Y32147604D01*
X80768949Y32174864D01*
X80812222Y32197995D01*
X80857555Y32216772D01*
X80904510Y32231016D01*
X80952635Y32240588D01*
X81001466Y32245398D01*
X81026000Y32245398D01*
X81026000Y32246000D01*
X81526000Y32246000D01*
X81526000Y30746000D01*
X81026000Y30746000D01*
X81026000Y30746602D01*
G37*
%TD*%
D24*
%TO.C,Q1*%
X81264000Y7940000D03*
X81264000Y9840000D03*
X79264000Y8890000D03*
%TD*%
%TO.C,R3*%
G36*
G01*
X19593000Y29902999D02*
X19593000Y30803001D01*
G75*
G02*
X19842999Y31053000I249999J0D01*
G01*
X20543001Y31053000D01*
G75*
G02*
X20793000Y30803001I0J-249999D01*
G01*
X20793000Y29902999D01*
G75*
G02*
X20543001Y29653000I-249999J0D01*
G01*
X19842999Y29653000D01*
G75*
G02*
X19593000Y29902999I0J249999D01*
G01*
G37*
G36*
G01*
X17593000Y29902999D02*
X17593000Y30803001D01*
G75*
G02*
X17842999Y31053000I249999J0D01*
G01*
X18543001Y31053000D01*
G75*
G02*
X18793000Y30803001I0J-249999D01*
G01*
X18793000Y29902999D01*
G75*
G02*
X18543001Y29653000I-249999J0D01*
G01*
X17842999Y29653000D01*
G75*
G02*
X17593000Y29902999I0J249999D01*
G01*
G37*
%TD*%
%TO.C,R4*%
G36*
G01*
X23679999Y18729000D02*
X24580001Y18729000D01*
G75*
G02*
X24830000Y18479001I0J-249999D01*
G01*
X24830000Y17778999D01*
G75*
G02*
X24580001Y17529000I-249999J0D01*
G01*
X23679999Y17529000D01*
G75*
G02*
X23430000Y17778999I0J249999D01*
G01*
X23430000Y18479001D01*
G75*
G02*
X23679999Y18729000I249999J0D01*
G01*
G37*
G36*
G01*
X23679999Y16729000D02*
X24580001Y16729000D01*
G75*
G02*
X24830000Y16479001I0J-249999D01*
G01*
X24830000Y15778999D01*
G75*
G02*
X24580001Y15529000I-249999J0D01*
G01*
X23679999Y15529000D01*
G75*
G02*
X23430000Y15778999I0J249999D01*
G01*
X23430000Y16479001D01*
G75*
G02*
X23679999Y16729000I249999J0D01*
G01*
G37*
%TD*%
%TO.C,R5*%
G36*
G01*
X20761000Y34232001D02*
X20761000Y33331999D01*
G75*
G02*
X20511001Y33082000I-249999J0D01*
G01*
X19810999Y33082000D01*
G75*
G02*
X19561000Y33331999I0J249999D01*
G01*
X19561000Y34232001D01*
G75*
G02*
X19810999Y34482000I249999J0D01*
G01*
X20511001Y34482000D01*
G75*
G02*
X20761000Y34232001I0J-249999D01*
G01*
G37*
G36*
G01*
X18761000Y34232001D02*
X18761000Y33331999D01*
G75*
G02*
X18511001Y33082000I-249999J0D01*
G01*
X17810999Y33082000D01*
G75*
G02*
X17561000Y33331999I0J249999D01*
G01*
X17561000Y34232001D01*
G75*
G02*
X17810999Y34482000I249999J0D01*
G01*
X18511001Y34482000D01*
G75*
G02*
X18761000Y34232001I0J-249999D01*
G01*
G37*
%TD*%
%TO.C,R6*%
G36*
G01*
X18793000Y42360001D02*
X18793000Y41459999D01*
G75*
G02*
X18543001Y41210000I-249999J0D01*
G01*
X17842999Y41210000D01*
G75*
G02*
X17593000Y41459999I0J249999D01*
G01*
X17593000Y42360001D01*
G75*
G02*
X17842999Y42610000I249999J0D01*
G01*
X18543001Y42610000D01*
G75*
G02*
X18793000Y42360001I0J-249999D01*
G01*
G37*
G36*
G01*
X20793000Y42360001D02*
X20793000Y41459999D01*
G75*
G02*
X20543001Y41210000I-249999J0D01*
G01*
X19842999Y41210000D01*
G75*
G02*
X19593000Y41459999I0J249999D01*
G01*
X19593000Y42360001D01*
G75*
G02*
X19842999Y42610000I249999J0D01*
G01*
X20543001Y42610000D01*
G75*
G02*
X20793000Y42360001I0J-249999D01*
G01*
G37*
%TD*%
%TO.C,R8*%
G36*
G01*
X19561000Y46920999D02*
X19561000Y47821001D01*
G75*
G02*
X19810999Y48071000I249999J0D01*
G01*
X20511001Y48071000D01*
G75*
G02*
X20761000Y47821001I0J-249999D01*
G01*
X20761000Y46920999D01*
G75*
G02*
X20511001Y46671000I-249999J0D01*
G01*
X19810999Y46671000D01*
G75*
G02*
X19561000Y46920999I0J249999D01*
G01*
G37*
G36*
G01*
X17561000Y46920999D02*
X17561000Y47821001D01*
G75*
G02*
X17810999Y48071000I249999J0D01*
G01*
X18511001Y48071000D01*
G75*
G02*
X18761000Y47821001I0J-249999D01*
G01*
X18761000Y46920999D01*
G75*
G02*
X18511001Y46671000I-249999J0D01*
G01*
X17810999Y46671000D01*
G75*
G02*
X17561000Y46920999I0J249999D01*
G01*
G37*
%TD*%
%TO.C,R9*%
G36*
G01*
X20793000Y50996001D02*
X20793000Y50095999D01*
G75*
G02*
X20543001Y49846000I-249999J0D01*
G01*
X19842999Y49846000D01*
G75*
G02*
X19593000Y50095999I0J249999D01*
G01*
X19593000Y50996001D01*
G75*
G02*
X19842999Y51246000I249999J0D01*
G01*
X20543001Y51246000D01*
G75*
G02*
X20793000Y50996001I0J-249999D01*
G01*
G37*
G36*
G01*
X18793000Y50996001D02*
X18793000Y50095999D01*
G75*
G02*
X18543001Y49846000I-249999J0D01*
G01*
X17842999Y49846000D01*
G75*
G02*
X17593000Y50095999I0J249999D01*
G01*
X17593000Y50996001D01*
G75*
G02*
X17842999Y51246000I249999J0D01*
G01*
X18543001Y51246000D01*
G75*
G02*
X18793000Y50996001I0J-249999D01*
G01*
G37*
%TD*%
%TO.C,R10*%
G36*
G01*
X18761000Y58362001D02*
X18761000Y57461999D01*
G75*
G02*
X18511001Y57212000I-249999J0D01*
G01*
X17810999Y57212000D01*
G75*
G02*
X17561000Y57461999I0J249999D01*
G01*
X17561000Y58362001D01*
G75*
G02*
X17810999Y58612000I249999J0D01*
G01*
X18511001Y58612000D01*
G75*
G02*
X18761000Y58362001I0J-249999D01*
G01*
G37*
G36*
G01*
X20761000Y58362001D02*
X20761000Y57461999D01*
G75*
G02*
X20511001Y57212000I-249999J0D01*
G01*
X19810999Y57212000D01*
G75*
G02*
X19561000Y57461999I0J249999D01*
G01*
X19561000Y58362001D01*
G75*
G02*
X19810999Y58612000I249999J0D01*
G01*
X20511001Y58612000D01*
G75*
G02*
X20761000Y58362001I0J-249999D01*
G01*
G37*
%TD*%
%TO.C,R11*%
G36*
G01*
X6474000Y30168001D02*
X6474000Y29267999D01*
G75*
G02*
X6224001Y29018000I-249999J0D01*
G01*
X5523999Y29018000D01*
G75*
G02*
X5274000Y29267999I0J249999D01*
G01*
X5274000Y30168001D01*
G75*
G02*
X5523999Y30418000I249999J0D01*
G01*
X6224001Y30418000D01*
G75*
G02*
X6474000Y30168001I0J-249999D01*
G01*
G37*
G36*
G01*
X8474000Y30168001D02*
X8474000Y29267999D01*
G75*
G02*
X8224001Y29018000I-249999J0D01*
G01*
X7523999Y29018000D01*
G75*
G02*
X7274000Y29267999I0J249999D01*
G01*
X7274000Y30168001D01*
G75*
G02*
X7523999Y30418000I249999J0D01*
G01*
X8224001Y30418000D01*
G75*
G02*
X8474000Y30168001I0J-249999D01*
G01*
G37*
%TD*%
%TO.C,R12*%
G36*
G01*
X79680000Y28759999D02*
X79680000Y29660001D01*
G75*
G02*
X79929999Y29910000I249999J0D01*
G01*
X80630001Y29910000D01*
G75*
G02*
X80880000Y29660001I0J-249999D01*
G01*
X80880000Y28759999D01*
G75*
G02*
X80630001Y28510000I-249999J0D01*
G01*
X79929999Y28510000D01*
G75*
G02*
X79680000Y28759999I0J249999D01*
G01*
G37*
G36*
G01*
X81680000Y28759999D02*
X81680000Y29660001D01*
G75*
G02*
X81929999Y29910000I249999J0D01*
G01*
X82630001Y29910000D01*
G75*
G02*
X82880000Y29660001I0J-249999D01*
G01*
X82880000Y28759999D01*
G75*
G02*
X82630001Y28510000I-249999J0D01*
G01*
X81929999Y28510000D01*
G75*
G02*
X81680000Y28759999I0J249999D01*
G01*
G37*
%TD*%
%TO.C,U1*%
G36*
G01*
X26141000Y19662000D02*
X26141000Y19962000D01*
G75*
G02*
X26291000Y20112000I150000J0D01*
G01*
X27941000Y20112000D01*
G75*
G02*
X28091000Y19962000I0J-150000D01*
G01*
X28091000Y19662000D01*
G75*
G02*
X27941000Y19512000I-150000J0D01*
G01*
X26291000Y19512000D01*
G75*
G02*
X26141000Y19662000I0J150000D01*
G01*
G37*
G36*
G01*
X26141000Y18392000D02*
X26141000Y18692000D01*
G75*
G02*
X26291000Y18842000I150000J0D01*
G01*
X27941000Y18842000D01*
G75*
G02*
X28091000Y18692000I0J-150000D01*
G01*
X28091000Y18392000D01*
G75*
G02*
X27941000Y18242000I-150000J0D01*
G01*
X26291000Y18242000D01*
G75*
G02*
X26141000Y18392000I0J150000D01*
G01*
G37*
G36*
G01*
X26141000Y17122000D02*
X26141000Y17422000D01*
G75*
G02*
X26291000Y17572000I150000J0D01*
G01*
X27941000Y17572000D01*
G75*
G02*
X28091000Y17422000I0J-150000D01*
G01*
X28091000Y17122000D01*
G75*
G02*
X27941000Y16972000I-150000J0D01*
G01*
X26291000Y16972000D01*
G75*
G02*
X26141000Y17122000I0J150000D01*
G01*
G37*
G36*
G01*
X26141000Y15852000D02*
X26141000Y16152000D01*
G75*
G02*
X26291000Y16302000I150000J0D01*
G01*
X27941000Y16302000D01*
G75*
G02*
X28091000Y16152000I0J-150000D01*
G01*
X28091000Y15852000D01*
G75*
G02*
X27941000Y15702000I-150000J0D01*
G01*
X26291000Y15702000D01*
G75*
G02*
X26141000Y15852000I0J150000D01*
G01*
G37*
G36*
G01*
X31091000Y15852000D02*
X31091000Y16152000D01*
G75*
G02*
X31241000Y16302000I150000J0D01*
G01*
X32891000Y16302000D01*
G75*
G02*
X33041000Y16152000I0J-150000D01*
G01*
X33041000Y15852000D01*
G75*
G02*
X32891000Y15702000I-150000J0D01*
G01*
X31241000Y15702000D01*
G75*
G02*
X31091000Y15852000I0J150000D01*
G01*
G37*
G36*
G01*
X31091000Y17122000D02*
X31091000Y17422000D01*
G75*
G02*
X31241000Y17572000I150000J0D01*
G01*
X32891000Y17572000D01*
G75*
G02*
X33041000Y17422000I0J-150000D01*
G01*
X33041000Y17122000D01*
G75*
G02*
X32891000Y16972000I-150000J0D01*
G01*
X31241000Y16972000D01*
G75*
G02*
X31091000Y17122000I0J150000D01*
G01*
G37*
G36*
G01*
X31091000Y18392000D02*
X31091000Y18692000D01*
G75*
G02*
X31241000Y18842000I150000J0D01*
G01*
X32891000Y18842000D01*
G75*
G02*
X33041000Y18692000I0J-150000D01*
G01*
X33041000Y18392000D01*
G75*
G02*
X32891000Y18242000I-150000J0D01*
G01*
X31241000Y18242000D01*
G75*
G02*
X31091000Y18392000I0J150000D01*
G01*
G37*
G36*
G01*
X31091000Y19662000D02*
X31091000Y19962000D01*
G75*
G02*
X31241000Y20112000I150000J0D01*
G01*
X32891000Y20112000D01*
G75*
G02*
X33041000Y19962000I0J-150000D01*
G01*
X33041000Y19662000D01*
G75*
G02*
X32891000Y19512000I-150000J0D01*
G01*
X31241000Y19512000D01*
G75*
G02*
X31091000Y19662000I0J150000D01*
G01*
G37*
%TD*%
D25*
%TO.C,U2*%
X6350000Y25654000D03*
X7620000Y25654000D03*
D26*
X5080000Y25654000D03*
%TD*%
D27*
%TO.C,U3*%
X88132000Y27754000D03*
X88932000Y27754000D03*
X89732000Y27754000D03*
X90532000Y27754000D03*
X91332000Y27754000D03*
X92132000Y27754000D03*
X92932000Y27754000D03*
X93732000Y27754000D03*
D28*
X95182000Y29204000D03*
X95182000Y30004000D03*
X95182000Y30804000D03*
X95182000Y31604000D03*
X95182000Y32404000D03*
X95182000Y33204000D03*
X95182000Y34004000D03*
X95182000Y34804000D03*
D27*
X93732000Y36254000D03*
X92932000Y36254000D03*
X92132000Y36254000D03*
X91332000Y36254000D03*
X90532000Y36254000D03*
X89732000Y36254000D03*
X88932000Y36254000D03*
X88132000Y36254000D03*
D28*
X86682000Y34804000D03*
X86682000Y34004000D03*
X86682000Y33204000D03*
X86682000Y32404000D03*
X86682000Y31604000D03*
X86682000Y30804000D03*
X86682000Y30004000D03*
X86682000Y29204000D03*
%TD*%
%TO.C,J1*%
G36*
G01*
X70778000Y8140000D02*
X70778000Y9640000D01*
G75*
G02*
X71028000Y9890000I250000J0D01*
G01*
X72228000Y9890000D01*
G75*
G02*
X72478000Y9640000I0J-250000D01*
G01*
X72478000Y8140000D01*
G75*
G02*
X72228000Y7890000I-250000J0D01*
G01*
X71028000Y7890000D01*
G75*
G02*
X70778000Y8140000I0J250000D01*
G01*
G37*
D29*
X74128000Y8890000D03*
%TD*%
%TO.C,C4*%
G36*
G01*
X16797000Y10747500D02*
X17747000Y10747500D01*
G75*
G02*
X17997000Y10497500I0J-250000D01*
G01*
X17997000Y9822500D01*
G75*
G02*
X17747000Y9572500I-250000J0D01*
G01*
X16797000Y9572500D01*
G75*
G02*
X16547000Y9822500I0J250000D01*
G01*
X16547000Y10497500D01*
G75*
G02*
X16797000Y10747500I250000J0D01*
G01*
G37*
G36*
G01*
X16797000Y8672500D02*
X17747000Y8672500D01*
G75*
G02*
X17997000Y8422500I0J-250000D01*
G01*
X17997000Y7747500D01*
G75*
G02*
X17747000Y7497500I-250000J0D01*
G01*
X16797000Y7497500D01*
G75*
G02*
X16547000Y7747500I0J250000D01*
G01*
X16547000Y8422500D01*
G75*
G02*
X16797000Y8672500I250000J0D01*
G01*
G37*
%TD*%
D30*
%TO.C,Q2*%
X22038000Y11049000D03*
X22038000Y5969000D03*
D31*
X31188000Y8509000D03*
%TD*%
%TO.C,R13*%
G36*
G01*
X15570000Y10610001D02*
X15570000Y9709999D01*
G75*
G02*
X15320001Y9460000I-249999J0D01*
G01*
X14619999Y9460000D01*
G75*
G02*
X14370000Y9709999I0J249999D01*
G01*
X14370000Y10610001D01*
G75*
G02*
X14619999Y10860000I249999J0D01*
G01*
X15320001Y10860000D01*
G75*
G02*
X15570000Y10610001I0J-249999D01*
G01*
G37*
G36*
G01*
X13570000Y10610001D02*
X13570000Y9709999D01*
G75*
G02*
X13320001Y9460000I-249999J0D01*
G01*
X12619999Y9460000D01*
G75*
G02*
X12370000Y9709999I0J249999D01*
G01*
X12370000Y10610001D01*
G75*
G02*
X12619999Y10860000I249999J0D01*
G01*
X13320001Y10860000D01*
G75*
G02*
X13570000Y10610001I0J-249999D01*
G01*
G37*
%TD*%
%TO.C,D6*%
G36*
G01*
X94799999Y44753000D02*
X95700001Y44753000D01*
G75*
G02*
X95950000Y44503001I0J-249999D01*
G01*
X95950000Y43852999D01*
G75*
G02*
X95700001Y43603000I-249999J0D01*
G01*
X94799999Y43603000D01*
G75*
G02*
X94550000Y43852999I0J249999D01*
G01*
X94550000Y44503001D01*
G75*
G02*
X94799999Y44753000I249999J0D01*
G01*
G37*
G36*
G01*
X94799999Y46803000D02*
X95700001Y46803000D01*
G75*
G02*
X95950000Y46553001I0J-249999D01*
G01*
X95950000Y45902999D01*
G75*
G02*
X95700001Y45653000I-249999J0D01*
G01*
X94799999Y45653000D01*
G75*
G02*
X94550000Y45902999I0J249999D01*
G01*
X94550000Y46553001D01*
G75*
G02*
X94799999Y46803000I249999J0D01*
G01*
G37*
%TD*%
%TO.C,D7*%
G36*
G01*
X97212999Y48472000D02*
X98113001Y48472000D01*
G75*
G02*
X98363000Y48222001I0J-249999D01*
G01*
X98363000Y47571999D01*
G75*
G02*
X98113001Y47322000I-249999J0D01*
G01*
X97212999Y47322000D01*
G75*
G02*
X96963000Y47571999I0J249999D01*
G01*
X96963000Y48222001D01*
G75*
G02*
X97212999Y48472000I249999J0D01*
G01*
G37*
G36*
G01*
X97212999Y46422000D02*
X98113001Y46422000D01*
G75*
G02*
X98363000Y46172001I0J-249999D01*
G01*
X98363000Y45521999D01*
G75*
G02*
X98113001Y45272000I-249999J0D01*
G01*
X97212999Y45272000D01*
G75*
G02*
X96963000Y45521999I0J249999D01*
G01*
X96963000Y46172001D01*
G75*
G02*
X97212999Y46422000I249999J0D01*
G01*
G37*
%TD*%
%TO.C,R14*%
G36*
G01*
X94799999Y40621000D02*
X95700001Y40621000D01*
G75*
G02*
X95950000Y40371001I0J-249999D01*
G01*
X95950000Y39670999D01*
G75*
G02*
X95700001Y39421000I-249999J0D01*
G01*
X94799999Y39421000D01*
G75*
G02*
X94550000Y39670999I0J249999D01*
G01*
X94550000Y40371001D01*
G75*
G02*
X94799999Y40621000I249999J0D01*
G01*
G37*
G36*
G01*
X94799999Y42621000D02*
X95700001Y42621000D01*
G75*
G02*
X95950000Y42371001I0J-249999D01*
G01*
X95950000Y41670999D01*
G75*
G02*
X95700001Y41421000I-249999J0D01*
G01*
X94799999Y41421000D01*
G75*
G02*
X94550000Y41670999I0J249999D01*
G01*
X94550000Y42371001D01*
G75*
G02*
X94799999Y42621000I249999J0D01*
G01*
G37*
%TD*%
%TO.C,R15*%
G36*
G01*
X97212999Y42637000D02*
X98113001Y42637000D01*
G75*
G02*
X98363000Y42387001I0J-249999D01*
G01*
X98363000Y41686999D01*
G75*
G02*
X98113001Y41437000I-249999J0D01*
G01*
X97212999Y41437000D01*
G75*
G02*
X96963000Y41686999I0J249999D01*
G01*
X96963000Y42387001D01*
G75*
G02*
X97212999Y42637000I249999J0D01*
G01*
G37*
G36*
G01*
X97212999Y40637000D02*
X98113001Y40637000D01*
G75*
G02*
X98363000Y40387001I0J-249999D01*
G01*
X98363000Y39686999D01*
G75*
G02*
X98113001Y39437000I-249999J0D01*
G01*
X97212999Y39437000D01*
G75*
G02*
X96963000Y39686999I0J249999D01*
G01*
X96963000Y40387001D01*
G75*
G02*
X97212999Y40637000I249999J0D01*
G01*
G37*
%TD*%
M02*
