M48
; DRILL file {KiCad 5.1.12-84ad8e8a86~92~ubuntu20.04.1} date Mo 15 Nov 2021 21:49:12
; FORMAT={-:-/ absolute / inch / decimal}
; #@! TF.CreationDate,2021-11-15T21:49:12+01:00
; #@! TF.GenerationSoftware,Kicad,Pcbnew,5.1.12-84ad8e8a86~92~ubuntu20.04.1
; #@! TF.FileFunction,Plated,1,2,PTH
FMAT,2
INCH
T1C0.0157
T2C0.0197
T3C0.0295
T4C0.0394
T5C0.0512
%
G90
G05
T1
X0.56Y1.75
X0.7937Y2.1613
X0.795Y1.75
X0.81Y2.7
X0.86Y2.75
X0.905Y2.795
X1.135Y0.63
X1.525Y0.295
X1.525Y0.26
X1.525Y0.225
X1.525Y0.19
X1.525Y0.155
X1.56Y0.295
X1.56Y0.26
X1.56Y0.225
X1.56Y0.19
X1.56Y0.155
X1.595Y0.295
X1.595Y0.26
X1.595Y0.225
X1.595Y0.19
X1.595Y0.155
X1.63Y0.295
X1.63Y0.26
X1.63Y0.225
X1.63Y0.19
X1.63Y0.155
X1.665Y0.295
X1.665Y0.26
X1.665Y0.225
X1.665Y0.19
X1.665Y0.155
X1.7Y0.295
X1.7Y0.26
X1.7Y0.225
X1.7Y0.19
X1.7Y0.155
X1.735Y0.295
X1.735Y0.26
X1.735Y0.225
X1.735Y0.19
X1.735Y0.155
X1.77Y0.295
X1.77Y0.26
X1.77Y0.225
X1.77Y0.19
X1.77Y0.155
X1.805Y0.295
X1.805Y0.26
X1.805Y0.225
X1.805Y0.19
X1.805Y0.155
X1.84Y0.295
X1.84Y0.26
X1.84Y0.225
X1.84Y0.19
X1.84Y0.155
X1.875Y0.295
X1.875Y0.26
X1.875Y0.225
X1.875Y0.19
X1.875Y0.155
X2.13Y0.295
X2.13Y0.26
X2.13Y0.225
X2.13Y0.19
X2.13Y0.155
X2.165Y0.28
X2.165Y0.245
X2.165Y0.21
X2.165Y0.175
X2.165Y0.14
X2.2Y0.295
X2.2Y0.26
X2.2Y0.225
X2.2Y0.19
X2.2Y0.155
X2.235Y0.28
X2.235Y0.245
X2.235Y0.21
X2.235Y0.175
X2.235Y0.14
X2.27Y0.295
X2.27Y0.26
X2.27Y0.225
X2.27Y0.19
X2.27Y0.155
X2.305Y0.285
X2.305Y0.25
X2.305Y0.215
X2.305Y0.18
X2.305Y0.145
X2.34Y0.295
X2.34Y0.26
X2.34Y0.225
X2.34Y0.19
X2.34Y0.155
X2.375Y0.285
X2.375Y0.25
X2.375Y0.215
X2.375Y0.18
X2.375Y0.145
X2.41Y0.295
X2.41Y0.26
X2.41Y0.225
X2.41Y0.19
X2.41Y0.155
X2.445Y0.28
X2.445Y0.245
X2.445Y0.21
X2.445Y0.175
X2.445Y0.14
X2.48Y0.295
X2.48Y0.26
X2.48Y0.225
X2.48Y0.19
X2.48Y0.155
X2.605Y1.11
X3.195Y1.485
X3.2Y0.2
X3.245Y1.7
X3.25Y1.52
X3.3Y1.525
X3.4325Y1.9425
X3.495Y1.02
X3.525Y2.765
X3.525Y2.66
X3.5957Y1.0307
X3.6Y1.665
X3.61Y1.495
X3.615Y1.8
X3.655Y1.675
X3.6587Y1.2887
X3.72Y0.915
X3.88Y2.15
T2
X0.46Y0.17
X0.475Y0.055
X0.56Y0.17
X0.595Y0.115
X0.66Y0.115
X0.755Y1.01
X0.79Y0.785
X0.995Y2.405
X0.995Y2.34
X1.125Y1.84
X1.13Y1.54
X1.42Y2.685
X1.49Y2.69
X1.615Y1.11
X1.615Y1.01
X1.615Y0.91
X1.615Y0.81
X1.8Y1.075
X1.8Y1.03
X1.8Y0.985
X1.8Y0.94
X1.8Y0.895
X1.8Y0.85
X1.8Y0.805
X1.8Y0.76
X1.845Y1.075
X1.845Y1.03
X1.845Y0.985
X1.845Y0.895
X1.845Y0.85
X1.845Y0.805
X1.845Y0.76
X1.89Y1.075
X1.89Y1.03
X1.89Y0.985
X1.89Y0.895
X1.89Y0.85
X1.89Y0.805
X1.89Y0.76
X1.935Y1.075
X1.935Y1.03
X1.935Y0.985
X1.935Y0.895
X1.935Y0.85
X1.935Y0.805
X1.935Y0.76
X2.2Y0.765
X2.37Y0.595
X2.385Y0.77
X2.48Y0.575
X2.55Y2.68
X2.615Y2.68
X2.62Y0.75
X2.645Y0.865
X2.79Y1.85
X2.795Y1.54
X2.855Y0.87
X2.905Y2.31
X2.91Y2.405
X2.925Y1.805
X2.93Y1.645
X2.94Y1.305
X3.005Y1.57
X3.045Y1.395
X3.095Y1.445
X3.13Y0.935
X3.135Y1.075
X3.14Y2.84
X3.165Y1.79
X3.185Y1.005
X3.19Y2.785
X3.31Y1.395
X3.345Y1.445
X3.3473Y0.7927
X3.37Y0.11
X3.405Y0.955
X3.41Y1.435
X3.425Y0.165
X3.49Y1.225
X3.495Y0.08
X3.55Y1.345
X3.55Y1.285
X3.61Y1.21
X3.62Y1.335
X3.77Y1.475
X3.835Y1.475
X3.87Y0.3
T3
X0.2Y1.01
X0.25Y1.01
X0.3Y1.01
T4
X2.82Y0.35
X2.9184Y0.35
X3.2023Y0.7074
X3.3023Y0.7074
X3.4023Y0.7074
X3.5023Y0.7074
X3.6023Y0.7074
X3.7023Y0.7074
T5
X0.1115Y2.2811
X0.1115Y1.6561
X0.265Y2.1
X0.265Y1.475
X0.3792Y2.3795
X0.3792Y1.7545
X0.4264Y2.4858
X0.4264Y1.8608
X0.5524Y2.1197
X0.5524Y1.4947
T0
M30
