%TF.GenerationSoftware,KiCad,Pcbnew,5.1.12-84ad8e8a86~92~ubuntu20.04.1*%
%TF.CreationDate,2021-11-15T21:49:07+01:00*%
%TF.ProjectId,incubator_bottom,696e6375-6261-4746-9f72-5f626f74746f,rev?*%
%TF.SameCoordinates,Original*%
%TF.FileFunction,Soldermask,Bot*%
%TF.FilePolarity,Negative*%
%FSLAX46Y46*%
G04 Gerber Fmt 4.6, Leading zero omitted, Abs format (unit mm)*
G04 Created by KiCad (PCBNEW 5.1.12-84ad8e8a86~92~ubuntu20.04.1) date 2021-11-15 21:49:07*
%MOMM*%
%LPD*%
G01*
G04 APERTURE LIST*
%ADD10C,4.300000*%
%ADD11R,10.000000X5.000000*%
%ADD12C,3.200000*%
%ADD13O,1.700000X1.700000*%
%ADD14R,1.700000X1.700000*%
%ADD15C,0.990600*%
%ADD16R,4.000000X2.200000*%
%ADD17O,2.200000X4.000000*%
%ADD18O,4.000000X2.200000*%
%ADD19O,1.050000X1.500000*%
%ADD20R,1.050000X1.500000*%
%ADD21O,1.700000X2.000000*%
%ADD22R,5.000000X10.000000*%
G04 APERTURE END LIST*
D10*
%TO.C,H4*%
X94742000Y5080000D03*
%TD*%
%TO.C,H3*%
X94742000Y69088000D03*
%TD*%
%TO.C,H2*%
X5207000Y5080000D03*
%TD*%
%TO.C,H1*%
X5207000Y69088000D03*
%TD*%
%TO.C,R7*%
X72057000Y53653000D03*
X27257000Y53653000D03*
%TD*%
D11*
%TO.C,J12*%
X43180000Y5715000D03*
%TD*%
%TO.C,J7*%
X58547000Y5461000D03*
%TD*%
D12*
%TO.C,H8*%
X71298000Y25603000D03*
%TD*%
%TO.C,H7*%
X71298000Y65659000D03*
%TD*%
%TO.C,H6*%
X31242000Y25603000D03*
%TD*%
%TO.C,H5*%
X31242000Y65659000D03*
%TD*%
D13*
%TO.C,J8*%
X94038000Y17968000D03*
X91498000Y17968000D03*
X88958000Y17968000D03*
X86418000Y17968000D03*
X83878000Y17968000D03*
D14*
X81338000Y17968000D03*
%TD*%
D15*
%TO.C,J2*%
X81153000Y39878000D03*
X81153000Y41910000D03*
X86233000Y40894000D03*
%TD*%
D16*
%TO.C,J5*%
X6731000Y37465000D03*
D17*
X14031000Y37965000D03*
D18*
X9631000Y44565000D03*
X10831000Y47265000D03*
D17*
X2831000Y42065000D03*
%TD*%
%TO.C,J6*%
X2831000Y57940000D03*
D18*
X10831000Y63140000D03*
X9631000Y60440000D03*
D17*
X14031000Y53840000D03*
D16*
X6731000Y53340000D03*
%TD*%
D19*
%TO.C,U2*%
X6350000Y25654000D03*
X7620000Y25654000D03*
D20*
X5080000Y25654000D03*
%TD*%
%TO.C,J1*%
G36*
G01*
X70778000Y8140000D02*
X70778000Y9640000D01*
G75*
G02*
X71028000Y9890000I250000J0D01*
G01*
X72228000Y9890000D01*
G75*
G02*
X72478000Y9640000I0J-250000D01*
G01*
X72478000Y8140000D01*
G75*
G02*
X72228000Y7890000I-250000J0D01*
G01*
X71028000Y7890000D01*
G75*
G02*
X70778000Y8140000I0J250000D01*
G01*
G37*
D21*
X74128000Y8890000D03*
%TD*%
D22*
%TO.C,J4*%
X47497999Y23736000D03*
%TD*%
%TO.C,J9*%
X40947999Y23736000D03*
%TD*%
%TO.C,J10*%
X54047999Y23736000D03*
%TD*%
%TO.C,J11*%
X60597999Y23736000D03*
%TD*%
M02*
