  0
SECTION
  2
HEADER
  9
$ACADVER
  1
AC1009
  9
$FILLMODE
 70
 0
  9
$SPLFRAME
 70
 1
  9
$EXTMIN
 10
0
 20
0
 30
0.0
  9
$EXTMAX
 10
41.6667
 20
41.6667
 30
0.0
  0
ENDSEC
  0
SECTION
  2
TABLES
  0
TABLE
  2
LAYER
 70
1
  0
LAYER
  2
0
 70
     0
 62
     7
  6
CONTINUOUS
  0
ENDTAB
  0
ENDSEC
  0
SECTION
  2
ENTITIES
  0
POLYLINE
  8
0
 62
     204
 66
     1
 10
0
 20
0
 30
0.0
 70
     1
 40
0
 41
0
  0
VERTEX
  8
0
 10
0.448893
 20
0.949164
 30
0.0
 40
0
 41
0
  0
VERTEX
  8
0
 10
0.444119
 20
0.950738
 30
0.0
 40
0
 41
0
  0
VERTEX
  8
0
 10
0.421821
 20
0.966906
 30
0.0
 40
0
 41
0
  0
VERTEX
  8
0
 10
0.405057
 20
0.990289
 30
0.0
 40
0
 41
0
  0
VERTEX
  8
0
 10
0.403103
 20
0.995497
 30
0.0
 40
0
 41
0
  0
VERTEX
  8
0
 10
0.400879
 20
1.00136
 30
0.0
 40
0
 41
0
  0
VERTEX
  8
0
 10
0.397949
 20
1.02034
 30
0.0
 40
0
 41
0
  0
VERTEX
  8
0
 10
0.400336
 20
1.04514
 30
0.0
 40
0
 41
0
  0
VERTEX
  8
0
 10
0.409831
 20
1.06776
 30
0.0
 40
0
 41
0
  0
VERTEX
  8
0
 10
0.421224
 20
1.08241
 30
0.0
 40
0
 41
0
  0
VERTEX
  8
0
 10
0.42589
 20
1.08621
 30
0.0
 40
0
 41
0
  0
VERTEX
  8
0
 10
0.427735
 20
1.08778
 30
0.0
 40
0
 41
0
  0
VERTEX
  8
0
 10
0.433539
 20
1.09234
 30
0.0
 40
0
 41
0
  0
VERTEX
  8
0
 10
0.441081
 20
1.09695
 30
0.0
 40
0
 41
0
  0
VERTEX
  8
0
 10
0.450792
 20
1.10021
 30
0.0
 40
0
 41
0
  0
VERTEX
  8
0
 10
0.465061
 20
1.10238
 30
0.0
 40
0
 41
0
  0
VERTEX
  8
0
 10
0.486219
 20
1.10362
 30
0.0
 40
0
 41
0
  0
VERTEX
  8
0
 10
0.516601
 20
1.10427
 30
0.0
 40
0
 41
0
  0
VERTEX
  8
0
 10
0.558485
 20
1.10449
 30
0.0
 40
0
 41
0
  0
VERTEX
  8
0
 10
0.600315
 20
1.10449
 30
0.0
 40
0
 41
0
  0
VERTEX
  8
0
 10
0.614312
 20
1.10449
 30
0.0
 40
0
 41
0
  0
VERTEX
  8
0
 10
0.631022
 20
1.10449
 30
0.0
 40
0
 41
0
  0
VERTEX
  8
0
 10
0.681315
 20
1.10471
 30
0.0
 40
0
 41
0
  0
VERTEX
  8
0
 10
0.730524
 20
1.10525
 30
0.0
 40
0
 41
0
  0
VERTEX
  8
0
 10
0.761774
 20
1.10617
 30
0.0
 40
0
 41
0
  0
VERTEX
  8
0
 10
0.773492
 20
1.10693
 30
0.0
 40
0
 41
0
  0
VERTEX
  8
0
 10
0.774794
 20
1.10742
 30
0.0
 40
0
 41
0
  0
VERTEX
  8
0
 10
0.777399
 20
1.10845
 30
0.0
 40
0
 41
0
  0
VERTEX
  8
0
 10
0.790744
 20
1.11822
 30
0.0
 40
0
 41
0
  0
VERTEX
  8
0
 10
0.801053
 20
1.1314
 30
0.0
 40
0
 41
0
  0
VERTEX
  8
0
 10
0.802246
 20
1.13406
 30
0.0
 40
0
 41
0
  0
VERTEX
  8
0
 10
0.803006
 20
1.13591
 30
0.0
 40
0
 41
0
  0
VERTEX
  8
0
 10
0.804144
 20
1.14936
 30
0.0
 40
0
 41
0
  0
VERTEX
  8
0
 10
0.805285
 20
1.19249
 30
0.0
 40
0
 41
0
  0
VERTEX
  8
0
 10
0.805881
 20
1.27604
 30
0.0
 40
0
 41
0
  0
VERTEX
  8
0
 10
0.806044
 20
1.37831
 30
0.0
 40
0
 41
0
  0
VERTEX
  8
0
 10
0.806044
 20
1.41238
 30
0.0
 40
0
 41
0
  0
VERTEX
  8
0
 10
0.806044
 20
1.68186
 30
0.0
 40
0
 41
0
  0
VERTEX
  8
0
 10
0.814996
 20
1.67546
 30
0.0
 40
0
 41
0
  0
VERTEX
  8
0
 10
0.81684
 20
1.67415
 30
0.0
 40
0
 41
0
  0
VERTEX
  8
0
 10
0.827094
 20
1.67008
 30
0.0
 40
0
 41
0
  0
VERTEX
  8
0
 10
0.844456
 20
1.66829
 30
0.0
 40
0
 41
0
  0
VERTEX
  8
0
 10
0.849935
 20
1.66808
 30
0.0
 40
0
 41
0
  0
VERTEX
  8
0
 10
0.85791
 20
1.66781
 30
0.0
 40
0
 41
0
  0
VERTEX
  8
0
 10
0.882921
 20
1.66287
 30
0.0
 40
0
 41
0
  0
VERTEX
  8
0
 10
0.895236
 20
1.6499
 30
0.0
 40
0
 41
0
  0
VERTEX
  8
0
 10
0.896918
 20
1.64556
 30
0.0
 40
0
 41
0
  0
VERTEX
  8
0
 10
0.900444
 20
1.63629
 30
0.0
 40
0
 41
0
  0
VERTEX
  8
0
 10
0.916178
 20
1.61035
 30
0.0
 40
0
 41
0
  0
VERTEX
  8
0
 10
0.944553
 20
1.5784
 30
0.0
 40
0
 41
0
  0
VERTEX
  8
0
 10
0.979167
 20
1.55246
 30
0.0
 40
0
 41
0
  0
VERTEX
  8
0
 10
1.00732
 20
1.53819
 30
0.0
 40
0
 41
0
  0
VERTEX
  8
0
 10
1.01725
 20
1.53504
 30
0.0
 40
0
 41
0
  0
VERTEX
  8
0
 10
1.02452
 20
1.53276
 30
0.0
 40
0
 41
0
  0
VERTEX
  8
0
 10
1.06858
 20
1.52735
 30
0.0
 40
0
 41
0
  0
VERTEX
  8
0
 10
1.11366
 20
1.53022
 30
0.0
 40
0
 41
0
  0
VERTEX
  8
0
 10
1.12147
 20
1.53207
 30
0.0
 40
0
 41
0
  0
VERTEX
  8
0
 10
1.13607
 20
1.53554
 30
0.0
 40
0
 41
0
  0
VERTEX
  8
0
 10
1.17768
 20
1.55539
 30
0.0
 40
0
 41
0
  0
VERTEX
  8
0
 10
1.22304
 20
1.59403
 30
0.0
 40
0
 41
0
  0
VERTEX
  8
0
 10
1.25445
 20
1.64447
 30
0.0
 40
0
 41
0
  0
VERTEX
  8
0
 10
1.26774
 20
1.68832
 30
0.0
 40
0
 41
0
  0
VERTEX
  8
0
 10
1.26893
 20
1.70318
 30
0.0
 40
0
 41
0
  0
VERTEX
  8
0
 10
1.26937
 20
1.70893
 30
0.0
 40
0
 41
0
  0
VERTEX
  8
0
 10
1.27387
 20
1.72715
 30
0.0
 40
0
 41
0
  0
VERTEX
  8
0
 10
1.28244
 20
1.73394
 30
0.0
 40
0
 41
0
  0
VERTEX
  8
0
 10
1.28532
 20
1.73394
 30
0.0
 40
0
 41
0
  0
VERTEX
  8
0
 10
1.28798
 20
1.73394
 30
0.0
 40
0
 41
0
  0
VERTEX
  8
0
 10
1.29606
 20
1.72711
 30
0.0
 40
0
 41
0
  0
VERTEX
  8
0
 10
1.30024
 20
1.71365
 30
0.0
 40
0
 41
0
  0
VERTEX
  8
0
 10
1.30024
 20
1.70915
 30
0.0
 40
0
 41
0
  0
VERTEX
  8
0
 10
1.30024
 20
1.704
 30
0.0
 40
0
 41
0
  0
VERTEX
  8
0
 10
1.30702
 20
1.66965
 30
0.0
 40
0
 41
0
  0
VERTEX
  8
0
 10
1.31999
 20
1.6339
 30
0.0
 40
0
 41
0
  0
VERTEX
  8
0
 10
1.32308
 20
1.62804
 30
0.0
 40
0
 41
0
  0
VERTEX
  8
0
 10
1.32704
 20
1.6205
 30
0.0
 40
0
 41
0
  0
VERTEX
  8
0
 10
1.35688
 20
1.58356
 30
0.0
 40
0
 41
0
  0
VERTEX
  8
0
 10
1.39382
 20
1.55371
 30
0.0
 40
0
 41
0
  0
VERTEX
  8
0
 10
1.40136
 20
1.54969
 30
0.0
 40
0
 41
0
  0
VERTEX
  8
0
 10
1.4145
 20
1.54275
 30
0.0
 40
0
 41
0
  0
VERTEX
  8
0
 10
1.45839
 20
1.53
 30
0.0
 40
0
 41
0
  0
VERTEX
  8
0
 10
1.51731
 20
1.52832
 30
0.0
 40
0
 41
0
  0
VERTEX
  8
0
 10
1.57394
 20
1.54417
 30
0.0
 40
0
 41
0
  0
VERTEX
  8
0
 10
1.61322
 20
1.56706
 30
0.0
 40
0
 41
0
  0
VERTEX
  8
0
 10
1.62424
 20
1.57699
 30
0.0
 40
0
 41
0
  0
VERTEX
  8
0
 10
1.62901
 20
1.58138
 30
0.0
 40
0
 41
0
  0
VERTEX
  8
0
 10
1.65278
 20
1.60992
 30
0.0
 40
0
 41
0
  0
VERTEX
  8
0
 10
1.67063
 20
1.63981
 30
0.0
 40
0
 41
0
  0
VERTEX
  8
0
 10
1.67247
 20
1.64481
 30
0.0
 40
0
 41
0
  0
VERTEX
  8
0
 10
1.67344
 20
1.64762
 30
0.0
 40
0
 41
0
  0
VERTEX
  8
0
 10
1.67774
 20
1.65565
 30
0.0
 40
0
 41
0
  0
VERTEX
  8
0
 10
1.68544
 20
1.66233
 30
0.0
 40
0
 41
0
  0
VERTEX
  8
0
 10
1.69781
 20
1.66596
 30
0.0
 40
0
 41
0
  0
VERTEX
  8
0
 10
1.71235
 20
1.66749
 30
0.0
 40
0
 41
0
  0
VERTEX
  8
0
 10
1.71724
 20
1.66769
 30
0.0
 40
0
 41
0
  0
VERTEX
  8
0
 10
1.72314
 20
1.66803
 30
0.0
 40
0
 41
0
  0
VERTEX
  8
0
 10
1.7411
 20
1.67019
 30
0.0
 40
0
 41
0
  0
VERTEX
  8
0
 10
1.75168
 20
1.67513
 30
0.0
 40
0
 41
0
  0
VERTEX
  8
0
 10
1.7539
 20
1.67681
 30
0.0
 40
0
 41
0
  0
VERTEX
  8
0
 10
1.76394
 20
1.6844
 30
0.0
 40
0
 41
0
  0
VERTEX
  8
0
 10
1.76471
 20
1.41265
 30
0.0
 40
0
 41
0
  0
VERTEX
  8
0
 10
1.76546
 20
1.14084
 30
0.0
 40
0
 41
0
  0
VERTEX
  8
0
 10
1.77376
 20
1.12885
 30
0.0
 40
0
 41
0
  0
VERTEX
  8
0
 10
1.77496
 20
1.12712
 30
0.0
 40
0
 41
0
  0
VERTEX
  8
0
 10
1.79254
 20
1.1116
 30
0.0
 40
0
 41
0
  0
VERTEX
  8
0
 10
1.79438
 20
1.11068
 30
0.0
 40
0
 41
0
  0
VERTEX
  8
0
 10
1.80664
 20
1.10449
 30
0.0
 40
0
 41
0
  0
VERTEX
  8
0
 10
1.95617
 20
1.10449
 30
0.0
 40
0
 41
0
  0
VERTEX
  8
0
 10
1.96978
 20
1.10449
 30
0.0
 40
0
 41
0
  0
VERTEX
  8
0
 10
2.01079
 20
1.10449
 30
0.0
 40
0
 41
0
  0
VERTEX
  8
0
 10
2.05186
 20
1.10427
 30
0.0
 40
0
 41
0
  0
VERTEX
  8
0
 10
2.08171
 20
1.10362
 30
0.0
 40
0
 41
0
  0
VERTEX
  8
0
 10
2.10249
 20
1.10232
 30
0.0
 40
0
 41
0
  0
VERTEX
  8
0
 10
2.1166
 20
1.10015
 30
0.0
 40
0
 41
0
  0
VERTEX
  8
0
 10
2.12625
 20
1.0969
 30
0.0
 40
0
 41
0
  0
VERTEX
  8
0
 10
2.13374
 20
1.09234
 30
0.0
 40
0
 41
0
  0
VERTEX
  8
0
 10
2.13954
 20
1.08778
 30
0.0
 40
0
 41
0
  0
VERTEX
  8
0
 10
2.14144
 20
1.08621
 30
0.0
 40
0
 41
0
  0
VERTEX
  8
0
 10
2.14774
 20
1.08105
 30
0.0
 40
0
 41
0
  0
VERTEX
  8
0
 10
2.16189
 20
1.05979
 30
0.0
 40
0
 41
0
  0
VERTEX
  8
0
 10
2.16943
 20
1.02772
 30
0.0
 40
0
 41
0
  0
VERTEX
  8
0
 10
2.16379
 20
0.995008
 30
0.0
 40
0
 41
0
  0
VERTEX
  8
0
 10
2.15093
 20
0.972222
 30
0.0
 40
0
 41
0
  0
VERTEX
  8
0
 10
2.14497
 20
0.966363
 30
0.0
 40
0
 41
0
  0
VERTEX
  8
0
 10
2.14301
 20
0.964518
 30
0.0
 40
0
 41
0
  0
VERTEX
  8
0
 10
2.13715
 20
0.958985
 30
0.0
 40
0
 41
0
  0
VERTEX
  8
0
 10
2.12939
 20
0.953504
 30
0.0
 40
0
 41
0
  0
VERTEX
  8
0
 10
2.11925
 20
0.949599
 30
0.0
 40
0
 41
0
  0
VERTEX
  8
0
 10
2.10433
 20
0.946994
 30
0.0
 40
0
 41
0
  0
VERTEX
  8
0
 10
2.08208
 20
0.945421
 30
0.0
 40
0
 41
0
  0
VERTEX
  8
0
 10
2.05018
 20
0.944661
 30
0.0
 40
0
 41
0
  0
VERTEX
  8
0
 10
2.00618
 20
0.94439
 30
0.0
 40
0
 41
0
  0
VERTEX
  8
0
 10
1.96224
 20
0.944336
 30
0.0
 40
0
 41
0
  0
VERTEX
  8
0
 10
1.9476
 20
0.944336
 30
0.0
 40
0
 41
0
  0
VERTEX
  8
0
 10
1.93317
 20
0.944336
 30
0.0
 40
0
 41
0
  0
VERTEX
  8
0
 10
1.88997
 20
0.944444
 30
0.0
 40
0
 41
0
  0
VERTEX
  8
0
 10
1.8456
 20
0.944715
 30
0.0
 40
0
 41
0
  0
VERTEX
  8
0
 10
1.81218
 20
0.945475
 30
0.0
 40
0
 41
0
  0
VERTEX
  8
0
 10
1.78743
 20
0.946832
 30
0.0
 40
0
 41
0
  0
VERTEX
  8
0
 10
1.76904
 20
0.949001
 30
0.0
 40
0
 41
0
  0
VERTEX
  8
0
 10
1.75478
 20
0.952149
 30
0.0
 40
0
 41
0
  0
VERTEX
  8
0
 10
1.74235
 20
0.956435
 30
0.0
 40
0
 41
0
  0
VERTEX
  8
0
 10
1.73264
 20
0.960613
 30
0.0
 40
0
 41
0
  0
VERTEX
  8
0
 10
1.72949
 20
0.962076
 30
0.0
 40
0
 41
0
  0
VERTEX
  8
0
 10
1.71647
 20
0.968099
 30
0.0
 40
0
 41
0
  0
VERTEX
  8
0
 10
1.66233
 20
1.00922
 30
0.0
 40
0
 41
0
  0
VERTEX
  8
0
 10
1.62381
 20
1.06407
 30
0.0
 40
0
 41
0
  0
VERTEX
  8
0
 10
1.61865
 20
1.07688
 30
0.0
 40
0
 41
0
  0
VERTEX
  8
0
 10
1.6166
 20
1.08203
 30
0.0
 40
0
 41
0
  0
VERTEX
  8
0
 10
1.6116
 20
1.09793
 30
0.0
 40
0
 41
0
  0
VERTEX
  8
0
 10
1.60704
 20
1.12115
 30
0.0
 40
0
 41
0
  0
VERTEX
  8
0
 10
1.6046
 20
1.14963
 30
0.0
 40
0
 41
0
  0
VERTEX
  8
0
 10
1.60389
 20
1.17714
 30
0.0
 40
0
 41
0
  0
VERTEX
  8
0
 10
1.60389
 20
1.18625
 30
0.0
 40
0
 41
0
  0
VERTEX
  8
0
 10
1.60389
 20
1.19363
 30
0.0
 40
0
 41
0
  0
VERTEX
  8
0
 10
1.60374
 20
1.21566
 30
0.0
 40
0
 41
0
  0
VERTEX
  8
0
 10
1.60303
 20
1.23155
 30
0.0
 40
0
 41
0
  0
VERTEX
  8
0
 10
1.60101
 20
1.23926
 30
0.0
 40
0
 41
0
  0
VERTEX
  8
0
 10
1.59819
 20
1.24295
 30
0.0
 40
0
 41
0
  0
VERTEX
  8
0
 10
1.59717
 20
1.24398
 30
0.0
 40
0
 41
0
  0
VERTEX
  8
0
 10
1.59446
 20
1.24669
 30
0.0
 40
0
 41
0
  0
VERTEX
  8
0
 10
1.58024
 20
1.25027
 30
0.0
 40
0
 41
0
  0
VERTEX
  8
0
 10
1.5676
 20
1.24143
 30
0.0
 40
0
 41
0
  0
VERTEX
  8
0
 10
1.56569
 20
1.23785
 30
0.0
 40
0
 41
0
  0
VERTEX
  8
0
 10
1.56511
 20
1.23682
 30
0.0
 40
0
 41
0
  0
VERTEX
  8
0
 10
1.56424
 20
1.229
 30
0.0
 40
0
 41
0
  0
VERTEX
  8
0
 10
1.56321
 20
1.2079
 30
0.0
 40
0
 41
0
  0
VERTEX
  8
0
 10
1.56267
 20
1.17307
 30
0.0
 40
0
 41
0
  0
VERTEX
  8
0
 10
1.5625
 20
1.13558
 30
0.0
 40
0
 41
0
  0
VERTEX
  8
0
 10
1.5625
 20
1.12305
 30
0.0
 40
0
 41
0
  0
VERTEX
  8
0
 10
1.5625
 20
1.10531
 30
0.0
 40
0
 41
0
  0
VERTEX
  8
0
 10
1.56213
 20
1.05208
 30
0.0
 40
0
 41
0
  0
VERTEX
  8
0
 10
1.56006
 20
1.01221
 30
0.0
 40
0
 41
0
  0
VERTEX
  8
0
 10
1.5549
 20
0.991157
 30
0.0
 40
0
 41
0
  0
VERTEX
  8
0
 10
1.54785
 20
0.979981
 30
0.0
 40
0
 41
0
  0
VERTEX
  8
0
 10
1.54514
 20
0.976617
 30
0.0
 40
0
 41
0
  0
VERTEX
  8
0
 10
1.53907
 20
0.969239
 30
0.0
 40
0
 41
0
  0
VERTEX
  8
0
 10
1.51318
 20
0.953233
 30
0.0
 40
0
 41
0
  0
VERTEX
  8
0
 10
1.47618
 20
0.948568
 30
0.0
 40
0
 41
0
  0
VERTEX
  8
0
 10
1.44086
 20
0.96186
 30
0.0
 40
0
 41
0
  0
VERTEX
  8
0
 10
1.41851
 20
0.983615
 30
0.0
 40
0
 41
0
  0
VERTEX
  8
0
 10
1.41396
 20
0.992296
 30
0.0
 40
0
 41
0
  0
VERTEX
  8
0
 10
1.40653
 20
1.00646
 30
0.0
 40
0
 41
0
  0
VERTEX
  8
0
 10
1.40517
 20
1.12332
 30
0.0
 40
0
 41
0
  0
VERTEX
  8
0
 10
1.40375
 20
1.24023
 30
0.0
 40
0
 41
0
  0
VERTEX
  8
0
 10
1.39725
 20
1.2455
 30
0.0
 40
0
 41
0
  0
VERTEX
  8
0
 10
1.39507
 20
1.24729
 30
0.0
 40
0
 41
0
  0
VERTEX
  8
0
 10
1.3744
 20
1.24647
 30
0.0
 40
0
 41
0
  0
VERTEX
  8
0
 10
1.37267
 20
1.24457
 30
0.0
 40
0
 41
0
  0
VERTEX
  8
0
 10
1.37153
 20
1.24343
 30
0.0
 40
0
 41
0
  0
VERTEX
  8
0
 10
1.36925
 20
1.23893
 30
0.0
 40
0
 41
0
  0
VERTEX
  8
0
 10
1.3674
 20
1.22385
 30
0.0
 40
0
 41
0
  0
VERTEX
  8
0
 10
1.36648
 20
1.18864
 30
0.0
 40
0
 41
0
  0
VERTEX
  8
0
 10
1.36605
 20
1.139
 30
0.0
 40
0
 41
0
  0
VERTEX
  8
0
 10
1.36594
 20
1.1224
 30
0.0
 40
0
 41
0
  0
VERTEX
  8
0
 10
1.36513
 20
1.00646
 30
0.0
 40
0
 41
0
  0
VERTEX
  8
0
 10
1.35775
 20
0.992512
 30
0.0
 40
0
 41
0
  0
VERTEX
  8
0
 10
1.35379
 20
0.985026
 30
0.0
 40
0
 41
0
  0
VERTEX
  8
0
 10
1.32834
 20
0.959256
 30
0.0
 40
0
 41
0
  0
VERTEX
  8
0
 10
1.29449
 20
0.948514
 30
0.0
 40
0
 41
0
  0
VERTEX
  8
0
 10
1.28635
 20
0.948514
 30
0.0
 40
0
 41
0
  0
VERTEX
  8
0
 10
1.28185
 20
0.948568
 30
0.0
 40
0
 41
0
  0
VERTEX
  8
0
 10
1.26655
 20
0.950142
 30
0.0
 40
0
 41
0
  0
VERTEX
  8
0
 10
1.25374
 20
0.955296
 30
0.0
 40
0
 41
0
  0
VERTEX
  8
0
 10
1.25049
 20
0.957086
 30
0.0
 40
0
 41
0
  0
VERTEX
  8
0
 10
1.24837
 20
0.958279
 30
0.0
 40
0
 41
0
  0
VERTEX
  8
0
 10
1.23714
 20
0.966525
 30
0.0
 40
0
 41
0
  0
VERTEX
  8
0
 10
1.22759
 20
0.97564
 30
0.0
 40
0
 41
0
  0
VERTEX
  8
0
 10
1.2264
 20
0.977214
 30
0.0
 40
0
 41
0
  0
VERTEX
  8
0
 10
1.22374
 20
0.980686
 30
0.0
 40
0
 41
0
  0
VERTEX
  8
0
 10
1.21718
 20
0.992242
 30
0.0
 40
0
 41
0
  0
VERTEX
  8
0
 10
1.21202
 20
1.01443
 30
0.0
 40
0
 41
0
  0
VERTEX
  8
0
 10
1.20942
 20
1.05539
 30
0.0
 40
0
 41
0
  0
VERTEX
  8
0
 10
1.20823
 20
1.10878
 30
0.0
 40
0
 41
0
  0
VERTEX
  8
0
 10
1.20801
 20
1.12652
 30
0.0
 40
0
 41
0
  0
VERTEX
  8
0
 10
1.20779
 20
1.14144
 30
0.0
 40
0
 41
0
  0
VERTEX
  8
0
 10
1.20692
 20
1.18614
 30
0.0
 40
0
 41
0
  0
VERTEX
  8
0
 10
1.20578
 20
1.21978
 30
0.0
 40
0
 41
0
  0
VERTEX
  8
0
 10
1.20405
 20
1.23584
 30
0.0
 40
0
 41
0
  0
VERTEX
  8
0
 10
1.20231
 20
1.2411
 30
0.0
 40
0
 41
0
  0
VERTEX
  8
0
 10
1.20128
 20
1.24251
 30
0.0
 40
0
 41
0
  0
VERTEX
  8
0
 10
1.19954
 20
1.24485
 30
0.0
 40
0
 41
0
  0
VERTEX
  8
0
 10
1.18799
 20
1.25027
 30
0.0
 40
0
 41
0
  0
VERTEX
  8
0
 10
1.17627
 20
1.24712
 30
0.0
 40
0
 41
0
  0
VERTEX
  8
0
 10
1.17448
 20
1.24512
 30
0.0
 40
0
 41
0
  0
VERTEX
  8
0
 10
1.17334
 20
1.24392
 30
0.0
 40
0
 41
0
  0
VERTEX
  8
0
 10
1.17144
 20
1.23899
 30
0.0
 40
0
 41
0
  0
VERTEX
  8
0
 10
1.16949
 20
1.22255
 30
0.0
 40
0
 41
0
  0
VERTEX
  8
0
 10
1.16797
 20
1.18614
 30
0.0
 40
0
 41
0
  0
VERTEX
  8
0
 10
1.16672
 20
1.13661
 30
0.0
 40
0
 41
0
  0
VERTEX
  8
0
 10
1.16634
 20
1.12006
 30
0.0
 40
0
 41
0
  0
VERTEX
  8
0
 10
1.16357
 20
1.00092
 30
0.0
 40
0
 41
0
  0
VERTEX
  8
0
 10
1.15625
 20
0.988499
 30
0.0
 40
0
 41
0
  0
VERTEX
  8
0
 10
1.15218
 20
0.981663
 30
0.0
 40
0
 41
0
  0
VERTEX
  8
0
 10
1.12739
 20
0.958225
 30
0.0
 40
0
 41
0
  0
VERTEX
  8
0
 10
1.0976
 20
0.94846
 30
0.0
 40
0
 41
0
  0
VERTEX
  8
0
 10
1.08767
 20
0.94846
 30
0.0
 40
0
 41
0
  0
VERTEX
  8
0
 10
1.07769
 20
0.94846
 30
0.0
 40
0
 41
0
  0
VERTEX
  8
0
 10
1.04791
 20
0.958225
 30
0.0
 40
0
 41
0
  0
VERTEX
  8
0
 10
1.02311
 20
0.981663
 30
0.0
 40
0
 41
0
  0
VERTEX
  8
0
 10
1.0191
 20
0.988499
 30
0.0
 40
0
 41
0
  0
VERTEX
  8
0
 10
1.01172
 20
1.00092
 30
0.0
 40
0
 41
0
  0
VERTEX
  8
0
 10
1.01036
 20
1.11871
 30
0.0
 40
0
 41
0
  0
VERTEX
  8
0
 10
1.00895
 20
1.23655
 30
0.0
 40
0
 41
0
  0
VERTEX
  8
0
 10
1.00228
 20
1.24365
 30
0.0
 40
0
 41
0
  0
VERTEX
  8
0
 10
1.00027
 20
1.24577
 30
0.0
 40
0
 41
0
  0
VERTEX
  8
0
 10
0.979058
 20
1.24734
 30
0.0
 40
0
 41
0
  0
VERTEX
  8
0
 10
0.976833
 20
1.2455
 30
0.0
 40
0
 41
0
  0
VERTEX
  8
0
 10
0.975749
 20
1.24468
 30
0.0
 40
0
 41
0
  0
VERTEX
  8
0
 10
0.973036
 20
1.24143
 30
0.0
 40
0
 41
0
  0
VERTEX
  8
0
 10
0.970921
 20
1.23296
 30
0.0
 40
0
 41
0
  0
VERTEX
  8
0
 10
0.969672
 20
1.21441
 30
0.0
 40
0
 41
0
  0
VERTEX
  8
0
 10
0.968858
 20
1.18858
 30
0.0
 40
0
 41
0
  0
VERTEX
  8
0
 10
0.968642
 20
1.17996
 30
0.0
 40
0
 41
0
  0
VERTEX
  8
0
 10
0.968425
 20
1.17215
 30
0.0
 40
0
 41
0
  0
VERTEX
  8
0
 10
0.967503
 20
1.14855
 30
0.0
 40
0
 41
0
  0
VERTEX
  8
0
 10
0.966092
 20
1.1269
 30
0.0
 40
0
 41
0
  0
VERTEX
  8
0
 10
0.963976
 20
1.11117
 30
0.0
 40
0
 41
0
  0
VERTEX
  8
0
 10
0.961751
 20
1.10097
 30
0.0
 40
0
 41
0
  0
VERTEX
  8
0
 10
0.960829
 20
1.0976
 30
0.0
 40
0
 41
0
  0
VERTEX
  8
0
 10
0.95779
 20
1.08675
 30
0.0
 40
0
 41
0
  0
VERTEX
  8
0
 10
0.943793
 20
1.05539
 30
0.0
 40
0
 41
0
  0
VERTEX
  8
0
 10
0.917969
 20
1.01747
 30
0.0
 40
0
 41
0
  0
VERTEX
  8
0
 10
0.884928
 20
0.985732
 30
0.0
 40
0
 41
0
  0
VERTEX
  8
0
 10
0.856608
 20
0.966906
 30
0.0
 40
0
 41
0
  0
VERTEX
  8
0
 10
0.846463
 20
0.962185
 30
0.0
 40
0
 41
0
  0
VERTEX
  8
0
 10
0.840224
 20
0.959364
 30
0.0
 40
0
 41
0
  0
VERTEX
  8
0
 10
0.820856
 20
0.952149
 30
0.0
 40
0
 41
0
  0
VERTEX
  8
0
 10
0.787761
 20
0.946832
 30
0.0
 40
0
 41
0
  0
VERTEX
  8
0
 10
0.728244
 20
0.944769
 30
0.0
 40
0
 41
0
  0
VERTEX
  8
0
 10
0.649468
 20
0.944499
 30
0.0
 40
0
 41
0
  0
VERTEX
  8
0
 10
0.623264
 20
0.944499
 30
0.0
 40
0
 41
0
  0
VERTEX
  8
0
 10
0.601997
 20
0.944553
 30
0.0
 40
0
 41
0
  0
VERTEX
  8
0
 10
0.538249
 20
0.944769
 30
0.0
 40
0
 41
0
  0
VERTEX
  8
0
 10
0.487631
 20
0.945475
 30
0.0
 40
0
 41
0
  0
VERTEX
  8
0
 10
0.461262
 20
0.946832
 30
0.0
 40
0
 41
0
  0
VERTEX
  8
0
 10
0.451824
 20
0.948188
 30
0.0
 40
0
 41
0
  0
VERTEX
  8
0
 10
0.448893
 20
0.949164
 30
0.0
 40
0
 41
0
  0
SEQEND
 8
0
  0
POLYLINE
  8
0
 62
     204
 66
     1
 10
0
 20
0
 30
0.0
 70
     1
 40
0
 41
0
  0
VERTEX
  8
0
 10
1.17269
 20
1.722
 30
0.0
 40
0
 41
0
  0
VERTEX
  8
0
 10
1.17188
 20
1.70768
 30
0.0
 40
0
 41
0
  0
VERTEX
  8
0
 10
1.15918
 20
1.70524
 30
0.0
 40
0
 41
0
  0
VERTEX
  8
0
 10
1.15636
 20
1.70475
 30
0.0
 40
0
 41
0
  0
VERTEX
  8
0
 10
1.148
 20
1.70161
 30
0.0
 40
0
 41
0
  0
VERTEX
  8
0
 10
1.14377
 20
1.69542
 30
0.0
 40
0
 41
0
  0
VERTEX
  8
0
 10
1.14307
 20
1.69331
 30
0.0
 40
0
 41
0
  0
VERTEX
  8
0
 10
1.14225
 20
1.69119
 30
0.0
 40
0
 41
0
  0
VERTEX
  8
0
 10
1.14122
 20
1.68371
 30
0.0
 40
0
 41
0
  0
VERTEX
  8
0
 10
1.14497
 20
1.67572
 30
0.0
 40
0
 41
0
  0
VERTEX
  8
0
 10
1.14659
 20
1.67333
 30
0.0
 40
0
 41
0
  0
VERTEX
  8
0
 10
1.15354
 20
1.66282
 30
0.0
 40
0
 41
0
  0
VERTEX
  8
0
 10
1.14437
 20
1.65283
 30
0.0
 40
0
 41
0
  0
VERTEX
  8
0
 10
1.14307
 20
1.65147
 30
0.0
 40
0
 41
0
  0
VERTEX
  8
0
 10
1.13574
 20
1.64279
 30
0.0
 40
0
 41
0
  0
VERTEX
  8
0
 10
1.13336
 20
1.64279
 30
0.0
 40
0
 41
0
  0
VERTEX
  8
0
 10
1.13053
 20
1.64279
 30
0.0
 40
0
 41
0
  0
VERTEX
  8
0
 10
1.12348
 20
1.64893
 30
0.0
 40
0
 41
0
  0
VERTEX
  8
0
 10
1.12223
 20
1.64985
 30
0.0
 40
0
 41
0
  0
VERTEX
  8
0
 10
1.12066
 20
1.6511
 30
0.0
 40
0
 41
0
  0
VERTEX
  8
0
 10
1.10764
 20
1.6556
 30
0.0
 40
0
 41
0
  0
VERTEX
  8
0
 10
1.10655
 20
1.65533
 30
0.0
 40
0
 41
0
  0
VERTEX
  8
0
 10
1.10509
 20
1.655
 30
0.0
 40
0
 41
0
  0
VERTEX
  8
0
 10
1.09966
 20
1.65739
 30
0.0
 40
0
 41
0
  0
VERTEX
  8
0
 10
1.09294
 20
1.67046
 30
0.0
 40
0
 41
0
  0
VERTEX
  8
0
 10
1.09104
 20
1.67492
 30
0.0
 40
0
 41
0
  0
VERTEX
  8
0
 10
1.08198
 20
1.69601
 30
0.0
 40
0
 41
0
  0
VERTEX
  8
0
 10
1.08784
 20
1.70014
 30
0.0
 40
0
 41
0
  0
VERTEX
  8
0
 10
1.08968
 20
1.70144
 30
0.0
 40
0
 41
0
  0
VERTEX
  8
0
 10
1.09695
 20
1.7124
 30
0.0
 40
0
 41
0
  0
VERTEX
  8
0
 10
1.09972
 20
1.72499
 30
0.0
 40
0
 41
0
  0
VERTEX
  8
0
 10
1.09934
 20
1.72706
 30
0.0
 40
0
 41
0
  0
VERTEX
  8
0
 10
1.09874
 20
1.73025
 30
0.0
 40
0
 41
0
  0
VERTEX
  8
0
 10
1.09272
 20
1.73899
 30
0.0
 40
0
 41
0
  0
VERTEX
  8
0
 10
1.08078
 20
1.74544
 30
0.0
 40
0
 41
0
  0
VERTEX
  8
0
 10
1.06706
 20
1.7455
 30
0.0
 40
0
 41
0
  0
VERTEX
  8
0
 10
1.0574
 20
1.74072
 30
0.0
 40
0
 41
0
  0
VERTEX
  8
0
 10
1.05528
 20
1.73822
 30
0.0
 40
0
 41
0
  0
VERTEX
  8
0
 10
1.05295
 20
1.73557
 30
0.0
 40
0
 41
0
  0
VERTEX
  8
0
 10
1.04948
 20
1.71929
 30
0.0
 40
0
 41
0
  0
VERTEX
  8
0
 10
1.0561
 20
1.704
 30
0.0
 40
0
 41
0
  0
VERTEX
  8
0
 10
1.05892
 20
1.70176
 30
0.0
 40
0
 41
0
  0
VERTEX
  8
0
 10
1.06641
 20
1.69581
 30
0.0
 40
0
 41
0
  0
VERTEX
  8
0
 10
1.05713
 20
1.67464
 30
0.0
 40
0
 41
0
  0
VERTEX
  8
0
 10
1.05518
 20
1.67019
 30
0.0
 40
0
 41
0
  0
VERTEX
  8
0
 10
1.04829
 20
1.65722
 30
0.0
 40
0
 41
0
  0
VERTEX
  8
0
 10
1.04286
 20
1.65483
 30
0.0
 40
0
 41
0
  0
VERTEX
  8
0
 10
1.04145
 20
1.65517
 30
0.0
 40
0
 41
0
  0
VERTEX
  8
0
 10
1.04031
 20
1.65543
 30
0.0
 40
0
 41
0
  0
VERTEX
  8
0
 10
1.02745
 20
1.65099
 30
0.0
 40
0
 41
0
  0
VERTEX
  8
0
 10
1.02588
 20
1.64979
 30
0.0
 40
0
 41
0
  0
VERTEX
  8
0
 10
1.02458
 20
1.64888
 30
0.0
 40
0
 41
0
  0
VERTEX
  8
0
 10
1.01774
 20
1.64285
 30
0.0
 40
0
 41
0
  0
VERTEX
  8
0
 10
1.01546
 20
1.64285
 30
0.0
 40
0
 41
0
  0
VERTEX
  8
0
 10
1.01275
 20
1.64285
 30
0.0
 40
0
 41
0
  0
VERTEX
  8
0
 10
1.00602
 20
1.65126
 30
0.0
 40
0
 41
0
  0
VERTEX
  8
0
 10
1.00478
 20
1.65256
 30
0.0
 40
0
 41
0
  0
VERTEX
  8
0
 10
0.995335
 20
1.66228
 30
0.0
 40
0
 41
0
  0
VERTEX
  8
0
 10
1.00184
 20
1.67415
 30
0.0
 40
0
 41
0
  0
VERTEX
  8
0
 10
1.00331
 20
1.67686
 30
0.0
 40
0
 41
0
  0
VERTEX
  8
0
 10
1.00667
 20
1.68549
 30
0.0
 40
0
 41
0
  0
VERTEX
  8
0
 10
1.00532
 20
1.69233
 30
0.0
 40
0
 41
0
  0
VERTEX
  8
0
 10
1.00445
 20
1.69412
 30
0.0
 40
0
 41
0
  0
VERTEX
  8
0
 10
1.00369
 20
1.69569
 30
0.0
 40
0
 41
0
  0
VERTEX
  8
0
 10
0.991157
 20
1.70421
 30
0.0
 40
0
 41
0
  0
VERTEX
  8
0
 10
0.988932
 20
1.70464
 30
0.0
 40
0
 41
0
  0
VERTEX
  8
0
 10
0.977214
 20
1.70708
 30
0.0
 40
0
 41
0
  0
VERTEX
  8
0
 10
0.977214
 20
1.7366
 30
0.0
 40
0
 41
0
  0
VERTEX
  8
0
 10
0.98839
 20
1.73839
 30
0.0
 40
0
 41
0
  0
VERTEX
  8
0
 10
0.990506
 20
1.73876
 30
0.0
 40
0
 41
0
  0
VERTEX
  8
0
 10
1.00277
 20
1.74653
 30
0.0
 40
0
 41
0
  0
VERTEX
  8
0
 10
1.00358
 20
1.74799
 30
0.0
 40
0
 41
0
  0
VERTEX
  8
0
 10
1.00488
 20
1.7506
 30
0.0
 40
0
 41
0
  0
VERTEX
  8
0
 10
1.00716
 20
1.75944
 30
0.0
 40
0
 41
0
  0
VERTEX
  8
0
 10
1.00266
 20
1.76904
 30
0.0
 40
0
 41
0
  0
VERTEX
  8
0
 10
1.00071
 20
1.77192
 30
0.0
 40
0
 41
0
  0
VERTEX
  8
0
 10
0.993869
 20
1.78207
 30
0.0
 40
0
 41
0
  0
VERTEX
  8
0
 10
1.00266
 20
1.79112
 30
0.0
 40
0
 41
0
  0
VERTEX
  8
0
 10
1.0051
 20
1.79368
 30
0.0
 40
0
 41
0
  0
VERTEX
  8
0
 10
1.01405
 20
1.79964
 30
0.0
 40
0
 41
0
  0
VERTEX
  8
0
 10
1.02403
 20
1.79568
 30
0.0
 40
0
 41
0
  0
VERTEX
  8
0
 10
1.02696
 20
1.79372
 30
0.0
 40
0
 41
0
  0
VERTEX
  8
0
 10
1.02913
 20
1.79226
 30
0.0
 40
0
 41
0
  0
VERTEX
  8
0
 10
1.0364
 20
1.7889
 30
0.0
 40
0
 41
0
  0
VERTEX
  8
0
 10
1.0434
 20
1.79015
 30
0.0
 40
0
 41
0
  0
VERTEX
  8
0
 10
1.04546
 20
1.79096
 30
0.0
 40
0
 41
0
  0
VERTEX
  8
0
 10
1.04698
 20
1.79161
 30
0.0
 40
0
 41
0
  0
VERTEX
  8
0
 10
1.05577
 20
1.801
 30
0.0
 40
0
 41
0
  0
VERTEX
  8
0
 10
1.0561
 20
1.80225
 30
0.0
 40
0
 41
0
  0
VERTEX
  8
0
 10
1.05697
 20
1.80615
 30
0.0
 40
0
 41
0
  0
VERTEX
  8
0
 10
1.0612
 20
1.81754
 30
0.0
 40
0
 41
0
  0
VERTEX
  8
0
 10
1.07162
 20
1.8195
 30
0.0
 40
0
 41
0
  0
VERTEX
  8
0
 10
1.07509
 20
1.8195
 30
0.0
 40
0
 41
0
  0
VERTEX
  8
0
 10
1.08979
 20
1.8195
 30
0.0
 40
0
 41
0
  0
VERTEX
  8
0
 10
1.09163
 20
1.80701
 30
0.0
 40
0
 41
0
  0
VERTEX
  8
0
 10
1.09201
 20
1.80436
 30
0.0
 40
0
 41
0
  0
VERTEX
  8
0
 10
1.09473
 20
1.79611
 30
0.0
 40
0
 41
0
  0
VERTEX
  8
0
 10
1.10042
 20
1.79172
 30
0.0
 40
0
 41
0
  0
VERTEX
  8
0
 10
1.10232
 20
1.7909
 30
0.0
 40
0
 41
0
  0
VERTEX
  8
0
 10
1.10427
 20
1.7901
 30
0.0
 40
0
 41
0
  0
VERTEX
  8
0
 10
1.11122
 20
1.7889
 30
0.0
 40
0
 41
0
  0
VERTEX
  8
0
 10
1.11849
 20
1.79226
 30
0.0
 40
0
 41
0
  0
VERTEX
  8
0
 10
1.12071
 20
1.79372
 30
0.0
 40
0
 41
0
  0
VERTEX
  8
0
 10
1.12202
 20
1.79465
 30
0.0
 40
0
 41
0
  0
VERTEX
  8
0
 10
1.13048
 20
1.80018
 30
0.0
 40
0
 41
0
  0
VERTEX
  8
0
 10
1.1333
 20
1.80018
 30
0.0
 40
0
 41
0
  0
VERTEX
  8
0
 10
1.13628
 20
1.80018
 30
0.0
 40
0
 41
0
  0
VERTEX
  8
0
 10
1.1441
 20
1.79215
 30
0.0
 40
0
 41
0
  0
VERTEX
  8
0
 10
1.14534
 20
1.79085
 30
0.0
 40
0
 41
0
  0
VERTEX
  8
0
 10
1.15441
 20
1.78147
 30
0.0
 40
0
 41
0
  0
VERTEX
  8
0
 10
1.14681
 20
1.77001
 30
0.0
 40
0
 41
0
  0
VERTEX
  8
0
 10
1.14507
 20
1.76742
 30
0.0
 40
0
 41
0
  0
VERTEX
  8
0
 10
1.14079
 20
1.7589
 30
0.0
 40
0
 41
0
  0
VERTEX
  8
0
 10
1.14252
 20
1.75157
 30
0.0
 40
0
 41
0
  0
VERTEX
  8
0
 10
1.14361
 20
1.74935
 30
0.0
 40
0
 41
0
  0
VERTEX
  8
0
 10
1.14453
 20
1.7474
 30
0.0
 40
0
 41
0
  0
VERTEX
  8
0
 10
1.14947
 20
1.74149
 30
0.0
 40
0
 41
0
  0
VERTEX
  8
0
 10
1.15799
 20
1.73867
 30
0.0
 40
0
 41
0
  0
VERTEX
  8
0
 10
1.16075
 20
1.73822
 30
0.0
 40
0
 41
0
  0
VERTEX
  8
0
 10
1.1735
 20
1.73633
 30
0.0
 40
0
 41
0
  0
VERTEX
  8
0
 10
1.17269
 20
1.722
 30
0.0
 40
0
 41
0
  0
SEQEND
 8
0
  0
POLYLINE
  8
0
 62
     204
 66
     1
 10
0
 20
0
 30
0.0
 70
     1
 40
0
 41
0
  0
VERTEX
  8
0
 10
1.21886
 20
1.73253
 30
0.0
 40
0
 41
0
  0
VERTEX
  8
0
 10
1.21794
 20
1.7405
 30
0.0
 40
0
 41
0
  0
VERTEX
  8
0
 10
1.21186
 20
1.76389
 30
0.0
 40
0
 41
0
  0
VERTEX
  8
0
 10
1.19889
 20
1.7921
 30
0.0
 40
0
 41
0
  0
VERTEX
  8
0
 10
1.18083
 20
1.81657
 30
0.0
 40
0
 41
0
  0
VERTEX
  8
0
 10
1.15848
 20
1.83653
 30
0.0
 40
0
 41
0
  0
VERTEX
  8
0
 10
1.13287
 20
1.85151
 30
0.0
 40
0
 41
0
  0
VERTEX
  8
0
 10
1.10476
 20
1.86074
 30
0.0
 40
0
 41
0
  0
VERTEX
  8
0
 10
1.07509
 20
1.86361
 30
0.0
 40
0
 41
0
  0
VERTEX
  8
0
 10
1.05208
 20
1.86133
 30
0.0
 40
0
 41
0
  0
VERTEX
  8
0
 10
1.04476
 20
1.85943
 30
0.0
 40
0
 41
0
  0
VERTEX
  8
0
 10
1.03282
 20
1.85639
 30
0.0
 40
0
 41
0
  0
VERTEX
  8
0
 10
0.999024
 20
1.83968
 30
0.0
 40
0
 41
0
  0
VERTEX
  8
0
 10
0.963758
 20
1.808
 30
0.0
 40
0
 41
0
  0
VERTEX
  8
0
 10
0.941081
 20
1.76714
 30
0.0
 40
0
 41
0
  0
VERTEX
  8
0
 10
0.933051
 20
1.7315
 30
0.0
 40
0
 41
0
  0
VERTEX
  8
0
 10
0.933051
 20
1.71963
 30
0.0
 40
0
 41
0
  0
VERTEX
  8
0
 10
0.933051
 20
1.70806
 30
0.0
 40
0
 41
0
  0
VERTEX
  8
0
 10
0.941081
 20
1.67339
 30
0.0
 40
0
 41
0
  0
VERTEX
  8
0
 10
0.963704
 20
1.63286
 30
0.0
 40
0
 41
0
  0
VERTEX
  8
0
 10
0.998589
 20
1.60107
 30
0.0
 40
0
 41
0
  0
VERTEX
  8
0
 10
1.03174
 20
1.58404
 30
0.0
 40
0
 41
0
  0
VERTEX
  8
0
 10
1.04346
 20
1.58078
 30
0.0
 40
0
 41
0
  0
VERTEX
  8
0
 10
1.04834
 20
1.57943
 30
0.0
 40
0
 41
0
  0
VERTEX
  8
0
 10
1.08051
 20
1.57781
 30
0.0
 40
0
 41
0
  0
VERTEX
  8
0
 10
1.11469
 20
1.58262
 30
0.0
 40
0
 41
0
  0
VERTEX
  8
0
 10
1.12061
 20
1.58447
 30
0.0
 40
0
 41
0
  0
VERTEX
  8
0
 10
1.13173
 20
1.58806
 30
0.0
 40
0
 41
0
  0
VERTEX
  8
0
 10
1.1626
 20
1.6071
 30
0.0
 40
0
 41
0
  0
VERTEX
  8
0
 10
1.19515
 20
1.64258
 30
0.0
 40
0
 41
0
  0
VERTEX
  8
0
 10
1.21495
 20
1.68604
 30
0.0
 40
0
 41
0
  0
VERTEX
  8
0
 10
1.22011
 20
1.72119
 30
0.0
 40
0
 41
0
  0
VERTEX
  8
0
 10
1.21886
 20
1.73253
 30
0.0
 40
0
 41
0
  0
SEQEND
 8
0
  0
POLYLINE
  8
0
 62
     204
 66
     1
 10
0
 20
0
 30
0.0
 70
     1
 40
0
 41
0
  0
VERTEX
  8
0
 10
1.59011
 20
1.72151
 30
0.0
 40
0
 41
0
  0
VERTEX
  8
0
 10
1.59011
 20
1.71789
 30
0.0
 40
0
 41
0
  0
VERTEX
  8
0
 10
1.58692
 20
1.70687
 30
0.0
 40
0
 41
0
  0
VERTEX
  8
0
 10
1.57568
 20
1.70367
 30
0.0
 40
0
 41
0
  0
VERTEX
  8
0
 10
1.572
 20
1.70361
 30
0.0
 40
0
 41
0
  0
VERTEX
  8
0
 10
1.57101
 20
1.70361
 30
0.0
 40
0
 41
0
  0
VERTEX
  8
0
 10
1.56256
 20
1.69575
 30
0.0
 40
0
 41
0
  0
VERTEX
  8
0
 10
1.56185
 20
1.69417
 30
0.0
 40
0
 41
0
  0
VERTEX
  8
0
 10
1.56082
 20
1.692
 30
0.0
 40
0
 41
0
  0
VERTEX
  8
0
 10
1.55886
 20
1.6849
 30
0.0
 40
0
 41
0
  0
VERTEX
  8
0
 10
1.5625
 20
1.67785
 30
0.0
 40
0
 41
0
  0
VERTEX
  8
0
 10
1.56407
 20
1.67572
 30
0.0
 40
0
 41
0
  0
VERTEX
  8
0
 10
1.565
 20
1.67449
 30
0.0
 40
0
 41
0
  0
VERTEX
  8
0
 10
1.57081
 20
1.66629
 30
0.0
 40
0
 41
0
  0
VERTEX
  8
0
 10
1.57081
 20
1.66351
 30
0.0
 40
0
 41
0
  0
VERTEX
  8
0
 10
1.57081
 20
1.66049
 30
0.0
 40
0
 41
0
  0
VERTEX
  8
0
 10
1.56256
 20
1.6525
 30
0.0
 40
0
 41
0
  0
VERTEX
  8
0
 10
1.56125
 20
1.65121
 30
0.0
 40
0
 41
0
  0
VERTEX
  8
0
 10
1.55165
 20
1.64193
 30
0.0
 40
0
 41
0
  0
VERTEX
  8
0
 10
1.54118
 20
1.64919
 30
0.0
 40
0
 41
0
  0
VERTEX
  8
0
 10
1.53944
 20
1.65044
 30
0.0
 40
0
 41
0
  0
VERTEX
  8
0
 10
1.52556
 20
1.65511
 30
0.0
 40
0
 41
0
  0
VERTEX
  8
0
 10
1.52458
 20
1.65483
 30
0.0
 40
0
 41
0
  0
VERTEX
  8
0
 10
1.52344
 20
1.65457
 30
0.0
 40
0
 41
0
  0
VERTEX
  8
0
 10
1.51693
 20
1.65744
 30
0.0
 40
0
 41
0
  0
VERTEX
  8
0
 10
1.51665
 20
1.65836
 30
0.0
 40
0
 41
0
  0
VERTEX
  8
0
 10
1.51639
 20
1.65913
 30
0.0
 40
0
 41
0
  0
VERTEX
  8
0
 10
1.51329
 20
1.66678
 30
0.0
 40
0
 41
0
  0
VERTEX
  8
0
 10
1.50874
 20
1.67746
 30
0.0
 40
0
 41
0
  0
VERTEX
  8
0
 10
1.50782
 20
1.67969
 30
0.0
 40
0
 41
0
  0
VERTEX
  8
0
 10
1.50076
 20
1.69586
 30
0.0
 40
0
 41
0
  0
VERTEX
  8
0
 10
1.50646
 20
1.70042
 30
0.0
 40
0
 41
0
  0
VERTEX
  8
0
 10
1.50971
 20
1.70301
 30
0.0
 40
0
 41
0
  0
VERTEX
  8
0
 10
1.5166
 20
1.71446
 30
0.0
 40
0
 41
0
  0
VERTEX
  8
0
 10
1.51714
 20
1.72944
 30
0.0
 40
0
 41
0
  0
VERTEX
  8
0
 10
1.50917
 20
1.74143
 30
0.0
 40
0
 41
0
  0
VERTEX
  8
0
 10
1.49761
 20
1.74625
 30
0.0
 40
0
 41
0
  0
VERTEX
  8
0
 10
1.49376
 20
1.74625
 30
0.0
 40
0
 41
0
  0
VERTEX
  8
0
 10
1.48986
 20
1.74625
 30
0.0
 40
0
 41
0
  0
VERTEX
  8
0
 10
1.47814
 20
1.74186
 30
0.0
 40
0
 41
0
  0
VERTEX
  8
0
 10
1.46907
 20
1.73085
 30
0.0
 40
0
 41
0
  0
VERTEX
  8
0
 10
1.46799
 20
1.71685
 30
0.0
 40
0
 41
0
  0
VERTEX
  8
0
 10
1.47347
 20
1.70583
 30
0.0
 40
0
 41
0
  0
VERTEX
  8
0
 10
1.47635
 20
1.70329
 30
0.0
 40
0
 41
0
  0
VERTEX
  8
0
 10
1.48508
 20
1.69547
 30
0.0
 40
0
 41
0
  0
VERTEX
  8
0
 10
1.47618
 20
1.67458
 30
0.0
 40
0
 41
0
  0
VERTEX
  8
0
 10
1.47428
 20
1.67019
 30
0.0
 40
0
 41
0
  0
VERTEX
  8
0
 10
1.46761
 20
1.65733
 30
0.0
 40
0
 41
0
  0
VERTEX
  8
0
 10
1.46224
 20
1.655
 30
0.0
 40
0
 41
0
  0
VERTEX
  8
0
 10
1.46078
 20
1.65533
 30
0.0
 40
0
 41
0
  0
VERTEX
  8
0
 10
1.45964
 20
1.6556
 30
0.0
 40
0
 41
0
  0
VERTEX
  8
0
 10
1.44667
 20
1.6511
 30
0.0
 40
0
 41
0
  0
VERTEX
  8
0
 10
1.4451
 20
1.64985
 30
0.0
 40
0
 41
0
  0
VERTEX
  8
0
 10
1.44379
 20
1.64893
 30
0.0
 40
0
 41
0
  0
VERTEX
  8
0
 10
1.43604
 20
1.64285
 30
0.0
 40
0
 41
0
  0
VERTEX
  8
0
 10
1.43349
 20
1.64285
 30
0.0
 40
0
 41
0
  0
VERTEX
  8
0
 10
1.43056
 20
1.64285
 30
0.0
 40
0
 41
0
  0
VERTEX
  8
0
 10
1.42307
 20
1.6511
 30
0.0
 40
0
 41
0
  0
VERTEX
  8
0
 10
1.42182
 20
1.6524
 30
0.0
 40
0
 41
0
  0
VERTEX
  8
0
 10
1.41254
 20
1.66194
 30
0.0
 40
0
 41
0
  0
VERTEX
  8
0
 10
1.42019
 20
1.6735
 30
0.0
 40
0
 41
0
  0
VERTEX
  8
0
 10
1.42188
 20
1.67611
 30
0.0
 40
0
 41
0
  0
VERTEX
  8
0
 10
1.42611
 20
1.68463
 30
0.0
 40
0
 41
0
  0
VERTEX
  8
0
 10
1.42481
 20
1.69146
 30
0.0
 40
0
 41
0
  0
VERTEX
  8
0
 10
1.42389
 20
1.69342
 30
0.0
 40
0
 41
0
  0
VERTEX
  8
0
 10
1.42307
 20
1.69504
 30
0.0
 40
0
 41
0
  0
VERTEX
  8
0
 10
1.41813
 20
1.70068
 30
0.0
 40
0
 41
0
  0
VERTEX
  8
0
 10
1.41
 20
1.70421
 30
0.0
 40
0
 41
0
  0
VERTEX
  8
0
 10
1.40767
 20
1.70475
 30
0.0
 40
0
 41
0
  0
VERTEX
  8
0
 10
1.39546
 20
1.70768
 30
0.0
 40
0
 41
0
  0
VERTEX
  8
0
 10
1.39382
 20
1.73633
 30
0.0
 40
0
 41
0
  0
VERTEX
  8
0
 10
1.40657
 20
1.73822
 30
0.0
 40
0
 41
0
  0
VERTEX
  8
0
 10
1.40929
 20
1.73867
 30
0.0
 40
0
 41
0
  0
VERTEX
  8
0
 10
1.41781
 20
1.74149
 30
0.0
 40
0
 41
0
  0
VERTEX
  8
0
 10
1.42275
 20
1.7474
 30
0.0
 40
0
 41
0
  0
VERTEX
  8
0
 10
1.42372
 20
1.74935
 30
0.0
 40
0
 41
0
  0
VERTEX
  8
0
 10
1.42475
 20
1.75157
 30
0.0
 40
0
 41
0
  0
VERTEX
  8
0
 10
1.42649
 20
1.7589
 30
0.0
 40
0
 41
0
  0
VERTEX
  8
0
 10
1.42225
 20
1.76747
 30
0.0
 40
0
 41
0
  0
VERTEX
  8
0
 10
1.42051
 20
1.77007
 30
0.0
 40
0
 41
0
  0
VERTEX
  8
0
 10
1.41287
 20
1.78157
 30
0.0
 40
0
 41
0
  0
VERTEX
  8
0
 10
1.42279
 20
1.79156
 30
0.0
 40
0
 41
0
  0
VERTEX
  8
0
 10
1.42492
 20
1.79372
 30
0.0
 40
0
 41
0
  0
VERTEX
  8
0
 10
1.43218
 20
1.79943
 30
0.0
 40
0
 41
0
  0
VERTEX
  8
0
 10
1.43756
 20
1.79856
 30
0.0
 40
0
 41
0
  0
VERTEX
  8
0
 10
1.43896
 20
1.79769
 30
0.0
 40
0
 41
0
  0
VERTEX
  8
0
 10
1.43978
 20
1.79719
 30
0.0
 40
0
 41
0
  0
VERTEX
  8
0
 10
1.44993
 20
1.7909
 30
0.0
 40
0
 41
0
  0
VERTEX
  8
0
 10
1.45068
 20
1.79042
 30
0.0
 40
0
 41
0
  0
VERTEX
  8
0
 10
1.45176
 20
1.78976
 30
0.0
 40
0
 41
0
  0
VERTEX
  8
0
 10
1.46322
 20
1.7901
 30
0.0
 40
0
 41
0
  0
VERTEX
  8
0
 10
1.465
 20
1.79081
 30
0.0
 40
0
 41
0
  0
VERTEX
  8
0
 10
1.46685
 20
1.79161
 30
0.0
 40
0
 41
0
  0
VERTEX
  8
0
 10
1.47254
 20
1.79617
 30
0.0
 40
0
 41
0
  0
VERTEX
  8
0
 10
1.47526
 20
1.80436
 30
0.0
 40
0
 41
0
  0
VERTEX
  8
0
 10
1.47569
 20
1.80701
 30
0.0
 40
0
 41
0
  0
VERTEX
  8
0
 10
1.47754
 20
1.8195
 30
0.0
 40
0
 41
0
  0
VERTEX
  8
0
 10
1.50662
 20
1.8195
 30
0.0
 40
0
 41
0
  0
VERTEX
  8
0
 10
1.50976
 20
1.80707
 30
0.0
 40
0
 41
0
  0
VERTEX
  8
0
 10
1.51036
 20
1.80458
 30
0.0
 40
0
 41
0
  0
VERTEX
  8
0
 10
1.514
 20
1.79639
 30
0.0
 40
0
 41
0
  0
VERTEX
  8
0
 10
1.52001
 20
1.79172
 30
0.0
 40
0
 41
0
  0
VERTEX
  8
0
 10
1.52186
 20
1.79096
 30
0.0
 40
0
 41
0
  0
VERTEX
  8
0
 10
1.52388
 20
1.79015
 30
0.0
 40
0
 41
0
  0
VERTEX
  8
0
 10
1.53088
 20
1.7889
 30
0.0
 40
0
 41
0
  0
VERTEX
  8
0
 10
1.53814
 20
1.79226
 30
0.0
 40
0
 41
0
  0
VERTEX
  8
0
 10
1.54036
 20
1.79372
 30
0.0
 40
0
 41
0
  0
VERTEX
  8
0
 10
1.54324
 20
1.79568
 30
0.0
 40
0
 41
0
  0
VERTEX
  8
0
 10
1.55306
 20
1.79975
 30
0.0
 40
0
 41
0
  0
VERTEX
  8
0
 10
1.56119
 20
1.79471
 30
0.0
 40
0
 41
0
  0
VERTEX
  8
0
 10
1.56338
 20
1.79243
 30
0.0
 40
0
 41
0
  0
VERTEX
  8
0
 10
1.56554
 20
1.79015
 30
0.0
 40
0
 41
0
  0
VERTEX
  8
0
 10
1.57036
 20
1.78147
 30
0.0
 40
0
 41
0
  0
VERTEX
  8
0
 10
1.56689
 20
1.77214
 30
0.0
 40
0
 41
0
  0
VERTEX
  8
0
 10
1.56506
 20
1.76953
 30
0.0
 40
0
 41
0
  0
VERTEX
  8
0
 10
1.56401
 20
1.76813
 30
0.0
 40
0
 41
0
  0
VERTEX
  8
0
 10
1.56076
 20
1.75489
 30
0.0
 40
0
 41
0
  0
VERTEX
  8
0
 10
1.56108
 20
1.75342
 30
0.0
 40
0
 41
0
  0
VERTEX
  8
0
 10
1.56164
 20
1.75092
 30
0.0
 40
0
 41
0
  0
VERTEX
  8
0
 10
1.56635
 20
1.74283
 30
0.0
 40
0
 41
0
  0
VERTEX
  8
0
 10
1.5765
 20
1.73867
 30
0.0
 40
0
 41
0
  0
VERTEX
  8
0
 10
1.57975
 20
1.73801
 30
0.0
 40
0
 41
0
  0
VERTEX
  8
0
 10
1.59011
 20
1.73606
 30
0.0
 40
0
 41
0
  0
VERTEX
  8
0
 10
1.59011
 20
1.72151
 30
0.0
 40
0
 41
0
  0
SEQEND
 8
0
  0
POLYLINE
  8
0
 62
     204
 66
     1
 10
0
 20
0
 30
0.0
 70
     1
 40
0
 41
0
  0
VERTEX
  8
0
 10
1.63396
 20
1.74826
 30
0.0
 40
0
 41
0
  0
VERTEX
  8
0
 10
1.63103
 20
1.76215
 30
0.0
 40
0
 41
0
  0
VERTEX
  8
0
 10
1.61068
 20
1.80143
 30
0.0
 40
0
 41
0
  0
VERTEX
  8
0
 10
1.56982
 20
1.8405
 30
0.0
 40
0
 41
0
  0
VERTEX
  8
0
 10
1.51796
 20
1.86128
 30
0.0
 40
0
 41
0
  0
VERTEX
  8
0
 10
1.47493
 20
1.8629
 30
0.0
 40
0
 41
0
  0
VERTEX
  8
0
 10
1.46164
 20
1.85949
 30
0.0
 40
0
 41
0
  0
VERTEX
  8
0
 10
1.45161
 20
1.85693
 30
0.0
 40
0
 41
0
  0
VERTEX
  8
0
 10
1.4229
 20
1.84407
 30
0.0
 40
0
 41
0
  0
VERTEX
  8
0
 10
1.39144
 20
1.81982
 30
0.0
 40
0
 41
0
  0
VERTEX
  8
0
 10
1.36811
 20
1.78771
 30
0.0
 40
0
 41
0
  0
VERTEX
  8
0
 10
1.35612
 20
1.75874
 30
0.0
 40
0
 41
0
  0
VERTEX
  8
0
 10
1.3539
 20
1.74869
 30
0.0
 40
0
 41
0
  0
VERTEX
  8
0
 10
1.3514
 20
1.73768
 30
0.0
 40
0
 41
0
  0
VERTEX
  8
0
 10
1.35211
 20
1.70275
 30
0.0
 40
0
 41
0
  0
VERTEX
  8
0
 10
1.36551
 20
1.65836
 30
0.0
 40
0
 41
0
  0
VERTEX
  8
0
 10
1.39204
 20
1.61996
 30
0.0
 40
0
 41
0
  0
VERTEX
  8
0
 10
1.41922
 20
1.59711
 30
0.0
 40
0
 41
0
  0
VERTEX
  8
0
 10
1.42953
 20
1.5919
 30
0.0
 40
0
 41
0
  0
VERTEX
  8
0
 10
1.43078
 20
1.59131
 30
0.0
 40
0
 41
0
  0
VERTEX
  8
0
 10
1.44179
 20
1.58713
 30
0.0
 40
0
 41
0
  0
VERTEX
  8
0
 10
1.45574
 20
1.58279
 30
0.0
 40
0
 41
0
  0
VERTEX
  8
0
 10
1.4585
 20
1.58208
 30
0.0
 40
0
 41
0
  0
VERTEX
  8
0
 10
1.46457
 20
1.58051
 30
0.0
 40
0
 41
0
  0
VERTEX
  8
0
 10
1.49294
 20
1.57699
 30
0.0
 40
0
 41
0
  0
VERTEX
  8
0
 10
1.51992
 20
1.57943
 30
0.0
 40
0
 41
0
  0
VERTEX
  8
0
 10
1.52533
 20
1.58078
 30
0.0
 40
0
 41
0
  0
VERTEX
  8
0
 10
1.53879
 20
1.58425
 30
0.0
 40
0
 41
0
  0
VERTEX
  8
0
 10
1.57676
 20
1.60476
 30
0.0
 40
0
 41
0
  0
VERTEX
  8
0
 10
1.61415
 20
1.64399
 30
0.0
 40
0
 41
0
  0
VERTEX
  8
0
 10
1.63428
 20
1.69353
 30
0.0
 40
0
 41
0
  0
VERTEX
  8
0
 10
1.63667
 20
1.73519
 30
0.0
 40
0
 41
0
  0
VERTEX
  8
0
 10
1.63396
 20
1.74826
 30
0.0
 40
0
 41
0
  0
SEQEND
 8
0
  0
POLYLINE
  8
0
 62
     204
 66
     1
 10
0
 20
0
 30
0.0
 70
     1
 40
0
 41
0
  0
VERTEX
  8
0
 10
1.75211
 20
1.7596
 30
0.0
 40
0
 41
0
  0
VERTEX
  8
0
 10
1.75054
 20
1.76085
 30
0.0
 40
0
 41
0
  0
VERTEX
  8
0
 10
1.74143
 20
1.76465
 30
0.0
 40
0
 41
0
  0
VERTEX
  8
0
 10
1.72657
 20
1.7665
 30
0.0
 40
0
 41
0
  0
VERTEX
  8
0
 10
1.72217
 20
1.76665
 30
0.0
 40
0
 41
0
  0
VERTEX
  8
0
 10
1.71744
 20
1.76687
 30
0.0
 40
0
 41
0
  0
VERTEX
  8
0
 10
1.70188
 20
1.76893
 30
0.0
 40
0
 41
0
  0
VERTEX
  8
0
 10
1.69081
 20
1.77376
 30
0.0
 40
0
 41
0
  0
VERTEX
  8
0
 10
1.68842
 20
1.77539
 30
0.0
 40
0
 41
0
  0
VERTEX
  8
0
 10
1.68653
 20
1.77669
 30
0.0
 40
0
 41
0
  0
VERTEX
  8
0
 10
1.67383
 20
1.79199
 30
0.0
 40
0
 41
0
  0
VERTEX
  8
0
 10
1.67324
 20
1.79372
 30
0.0
 40
0
 41
0
  0
VERTEX
  8
0
 10
1.6709
 20
1.80035
 30
0.0
 40
0
 41
0
  0
VERTEX
  8
0
 10
1.66054
 20
1.81885
 30
0.0
 40
0
 41
0
  0
VERTEX
  8
0
 10
1.641
 20
1.84489
 30
0.0
 40
0
 41
0
  0
VERTEX
  8
0
 10
1.61751
 20
1.86849
 30
0.0
 40
0
 41
0
  0
VERTEX
  8
0
 10
1.59939
 20
1.88276
 30
0.0
 40
0
 41
0
  0
VERTEX
  8
0
 10
1.59283
 20
1.88656
 30
0.0
 40
0
 41
0
  0
VERTEX
  8
0
 10
1.59033
 20
1.88803
 30
0.0
 40
0
 41
0
  0
VERTEX
  8
0
 10
1.57368
 20
1.89611
 30
0.0
 40
0
 41
0
  0
VERTEX
  8
0
 10
1.55588
 20
1.90343
 30
0.0
 40
0
 41
0
  0
VERTEX
  8
0
 10
1.55285
 20
1.90446
 30
0.0
 40
0
 41
0
  0
VERTEX
  8
0
 10
1.53076
 20
1.912
 30
0.0
 40
0
 41
0
  0
VERTEX
  8
0
 10
1.29221
 20
1.91276
 30
0.0
 40
0
 41
0
  0
VERTEX
  8
0
 10
1.25798
 20
1.91288
 30
0.0
 40
0
 41
0
  0
VERTEX
  8
0
 10
1.15527
 20
1.91314
 30
0.0
 40
0
 41
0
  0
VERTEX
  8
0
 10
1.0816
 20
1.91271
 30
0.0
 40
0
 41
0
  0
VERTEX
  8
0
 10
1.04769
 20
1.91103
 30
0.0
 40
0
 41
0
  0
VERTEX
  8
0
 10
1.03429
 20
1.90875
 30
0.0
 40
0
 41
0
  0
VERTEX
  8
0
 10
1.02995
 20
1.90767
 30
0.0
 40
0
 41
0
  0
VERTEX
  8
0
 10
1.0223
 20
1.90582
 30
0.0
 40
0
 41
0
  0
VERTEX
  8
0
 10
0.984483
 20
1.89003
 30
0.0
 40
0
 41
0
  0
VERTEX
  8
0
 10
0.950683
 20
1.86783
 30
0.0
 40
0
 41
0
  0
VERTEX
  8
0
 10
0.94515
 20
1.86274
 30
0.0
 40
0
 41
0
  0
VERTEX
  8
0
 10
0.941135
 20
1.8591
 30
0.0
 40
0
 41
0
  0
VERTEX
  8
0
 10
0.930176
 20
1.847
 30
0.0
 40
0
 41
0
  0
VERTEX
  8
0
 10
0.915582
 20
1.82807
 30
0.0
 40
0
 41
0
  0
VERTEX
  8
0
 10
0.903592
 20
1.80925
 30
0.0
 40
0
 41
0
  0
VERTEX
  8
0
 10
0.897786
 20
1.79785
 30
0.0
 40
0
 41
0
  0
VERTEX
  8
0
 10
0.896593
 20
1.79383
 30
0.0
 40
0
 41
0
  0
VERTEX
  8
0
 10
0.895996
 20
1.79199
 30
0.0
 40
0
 41
0
  0
VERTEX
  8
0
 10
0.883518
 20
1.77669
 30
0.0
 40
0
 41
0
  0
VERTEX
  8
0
 10
0.881347
 20
1.77522
 30
0.0
 40
0
 41
0
  0
VERTEX
  8
0
 10
0.878689
 20
1.77344
 30
0.0
 40
0
 41
0
  0
VERTEX
  8
0
 10
0.867893
 20
1.7685
 30
0.0
 40
0
 41
0
  0
VERTEX
  8
0
 10
0.853896
 20
1.76708
 30
0.0
 40
0
 41
0
  0
VERTEX
  8
0
 10
0.849283
 20
1.76708
 30
0.0
 40
0
 41
0
  0
VERTEX
  8
0
 10
0.841635
 20
1.76708
 30
0.0
 40
0
 41
0
  0
VERTEX
  8
0
 10
0.820583
 20
1.76264
 30
0.0
 40
0
 41
0
  0
VERTEX
  8
0
 10
0.818685
 20
1.76167
 30
0.0
 40
0
 41
0
  0
VERTEX
  8
0
 10
0.808051
 20
1.75624
 30
0.0
 40
0
 41
0
  0
VERTEX
  8
0
 10
0.809896
 20
1.77197
 30
0.0
 40
0
 41
0
  0
VERTEX
  8
0
 10
0.812663
 20
1.79579
 30
0.0
 40
0
 41
0
  0
VERTEX
  8
0
 10
0.848796
 20
1.91162
 30
0.0
 40
0
 41
0
  0
VERTEX
  8
0
 10
0.910915
 20
2.01563
 30
0.0
 40
0
 41
0
  0
VERTEX
  8
0
 10
0.926758
 20
2.03347
 30
0.0
 40
0
 41
0
  0
VERTEX
  8
0
 10
0.944174
 20
2.05322
 30
0.0
 40
0
 41
0
  0
VERTEX
  8
0
 10
1.04498
 20
2.13092
 30
0.0
 40
0
 41
0
  0
VERTEX
  8
0
 10
1.1633
 20
2.18044
 30
0.0
 40
0
 41
0
  0
VERTEX
  8
0
 10
1.18951
 20
2.18604
 30
0.0
 40
0
 41
0
  0
VERTEX
  8
0
 10
1.19461
 20
2.18713
 30
0.0
 40
0
 41
0
  0
VERTEX
  8
0
 10
1.21012
 20
2.19011
 30
0.0
 40
0
 41
0
  0
VERTEX
  8
0
 10
1.22852
 20
2.19239
 30
0.0
 40
0
 41
0
  0
VERTEX
  8
0
 10
1.25168
 20
2.19336
 30
0.0
 40
0
 41
0
  0
VERTEX
  8
0
 10
1.27772
 20
2.19353
 30
0.0
 40
0
 41
0
  0
VERTEX
  8
0
 10
1.28646
 20
2.19353
 30
0.0
 40
0
 41
0
  0
VERTEX
  8
0
 10
1.29519
 20
2.19353
 30
0.0
 40
0
 41
0
  0
VERTEX
  8
0
 10
1.3214
 20
2.19336
 30
0.0
 40
0
 41
0
  0
VERTEX
  8
0
 10
1.34456
 20
2.19239
 30
0.0
 40
0
 41
0
  0
VERTEX
  8
0
 10
1.36312
 20
2.19006
 30
0.0
 40
0
 41
0
  0
VERTEX
  8
0
 10
1.37912
 20
2.1869
 30
0.0
 40
0
 41
0
  0
VERTEX
  8
0
 10
1.38444
 20
2.18571
 30
0.0
 40
0
 41
0
  0
VERTEX
  8
0
 10
1.41835
 20
2.17839
 30
0.0
 40
0
 41
0
  0
VERTEX
  8
0
 10
1.516
 20
2.13683
 30
0.0
 40
0
 41
0
  0
VERTEX
  8
0
 10
1.62532
 20
2.0549
 30
0.0
 40
0
 41
0
  0
VERTEX
  8
0
 10
1.70692
 20
1.94547
 30
0.0
 40
0
 41
0
  0
VERTEX
  8
0
 10
1.74804
 20
1.84793
 30
0.0
 40
0
 41
0
  0
VERTEX
  8
0
 10
1.75526
 20
1.81401
 30
0.0
 40
0
 41
0
  0
VERTEX
  8
0
 10
1.75694
 20
1.80599
 30
0.0
 40
0
 41
0
  0
VERTEX
  8
0
 10
1.76247
 20
1.77154
 30
0.0
 40
0
 41
0
  0
VERTEX
  8
0
 10
1.76226
 20
1.75342
 30
0.0
 40
0
 41
0
  0
VERTEX
  8
0
 10
1.76226
 20
1.75342
 30
0.0
 40
0
 41
0
  0
VERTEX
  8
0
 10
1.76193
 20
1.75347
 30
0.0
 40
0
 41
0
  0
VERTEX
  8
0
 10
1.75315
 20
1.75879
 30
0.0
 40
0
 41
0
  0
VERTEX
  8
0
 10
1.75211
 20
1.7596
 30
0.0
 40
0
 41
0
  0
SEQEND
 8
0
  0
POLYLINE
  8
0
 62
     204
 66
     1
 10
0
 20
0
 30
0.0
 70
     1
 40
0
 41
0
  0
VERTEX
  8
0
 10
0.421169
 20
0.646213
 30
0.0
 40
0
 41
0
  0
VERTEX
  8
0
 10
0.421169
 20
0.544868
 30
0.0
 40
0
 41
0
  0
VERTEX
  8
0
 10
0.537056
 20
0.544868
 30
0.0
 40
0
 41
0
  0
VERTEX
  8
0
 10
0.537056
 20
0.646213
 30
0.0
 40
0
 41
0
  0
VERTEX
  8
0
 10
0.537056
 20
0.649035
 30
0.0
 40
0
 41
0
  0
VERTEX
  8
0
 10
0.545356
 20
0.657335
 30
0.0
 40
0
 41
0
  0
VERTEX
  8
0
 10
0.548178
 20
0.657335
 30
0.0
 40
0
 41
0
  0
VERTEX
  8
0
 10
0.550944
 20
0.657335
 30
0.0
 40
0
 41
0
  0
VERTEX
  8
0
 10
0.559299
 20
0.649035
 30
0.0
 40
0
 41
0
  0
VERTEX
  8
0
 10
0.559299
 20
0.646213
 30
0.0
 40
0
 41
0
  0
VERTEX
  8
0
 10
0.559299
 20
0.399306
 30
0.0
 40
0
 41
0
  0
VERTEX
  8
0
 10
0.559299
 20
0.396539
 30
0.0
 40
0
 41
0
  0
VERTEX
  8
0
 10
0.550944
 20
0.388183
 30
0.0
 40
0
 41
0
  0
VERTEX
  8
0
 10
0.548178
 20
0.388183
 30
0.0
 40
0
 41
0
  0
VERTEX
  8
0
 10
0.545356
 20
0.388183
 30
0.0
 40
0
 41
0
  0
VERTEX
  8
0
 10
0.537056
 20
0.396539
 30
0.0
 40
0
 41
0
  0
VERTEX
  8
0
 10
0.537056
 20
0.399306
 30
0.0
 40
0
 41
0
  0
VERTEX
  8
0
 10
0.537056
 20
0.522894
 30
0.0
 40
0
 41
0
  0
VERTEX
  8
0
 10
0.421169
 20
0.522894
 30
0.0
 40
0
 41
0
  0
VERTEX
  8
0
 10
0.421169
 20
0.399306
 30
0.0
 40
0
 41
0
  0
VERTEX
  8
0
 10
0.421169
 20
0.396539
 30
0.0
 40
0
 41
0
  0
VERTEX
  8
0
 10
0.412815
 20
0.388183
 30
0.0
 40
0
 41
0
  0
VERTEX
  8
0
 10
0.410047
 20
0.388183
 30
0.0
 40
0
 41
0
  0
VERTEX
  8
0
 10
0.407335
 20
0.388183
 30
0.0
 40
0
 41
0
  0
VERTEX
  8
0
 10
0.399197
 20
0.396539
 30
0.0
 40
0
 41
0
  0
VERTEX
  8
0
 10
0.399197
 20
0.399306
 30
0.0
 40
0
 41
0
  0
VERTEX
  8
0
 10
0.399197
 20
0.646213
 30
0.0
 40
0
 41
0
  0
VERTEX
  8
0
 10
0.399197
 20
0.649035
 30
0.0
 40
0
 41
0
  0
VERTEX
  8
0
 10
0.407335
 20
0.657335
 30
0.0
 40
0
 41
0
  0
VERTEX
  8
0
 10
0.410047
 20
0.657335
 30
0.0
 40
0
 41
0
  0
VERTEX
  8
0
 10
0.412815
 20
0.657335
 30
0.0
 40
0
 41
0
  0
VERTEX
  8
0
 10
0.421169
 20
0.649035
 30
0.0
 40
0
 41
0
  0
VERTEX
  8
0
 10
0.421169
 20
0.646213
 30
0.0
 40
0
 41
0
  0
SEQEND
 8
0
  0
POLYLINE
  8
0
 62
     204
 66
     1
 10
0
 20
0
 30
0.0
 70
     1
 40
0
 41
0
  0
VERTEX
  8
0
 10
0.660319
 20
0.406685
 30
0.0
 40
0
 41
0
  0
VERTEX
  8
0
 10
0.670518
 20
0.406685
 30
0.0
 40
0
 41
0
  0
VERTEX
  8
0
 10
0.698242
 20
0.420899
 30
0.0
 40
0
 41
0
  0
VERTEX
  8
0
 10
0.701118
 20
0.423719
 30
0.0
 40
0
 41
0
  0
VERTEX
  8
0
 10
0.703885
 20
0.42654
 30
0.0
 40
0
 41
0
  0
VERTEX
  8
0
 10
0.718317
 20
0.460504
 30
0.0
 40
0
 41
0
  0
VERTEX
  8
0
 10
0.718425
 20
0.464518
 30
0.0
 40
0
 41
0
  0
VERTEX
  8
0
 10
0.718425
 20
0.500325
 30
0.0
 40
0
 41
0
  0
VERTEX
  8
0
 10
0.649849
 20
0.500325
 30
0.0
 40
0
 41
0
  0
VERTEX
  8
0
 10
0.649849
 20
0.500706
 30
0.0
 40
0
 41
0
  0
VERTEX
  8
0
 10
0.649522
 20
0.500706
 30
0.0
 40
0
 41
0
  0
VERTEX
  8
0
 10
0.641168
 20
0.500706
 30
0.0
 40
0
 41
0
  0
VERTEX
  8
0
 10
0.618435
 20
0.489094
 30
0.0
 40
0
 41
0
  0
VERTEX
  8
0
 10
0.616157
 20
0.486763
 30
0.0
 40
0
 41
0
  0
VERTEX
  8
0
 10
0.613878
 20
0.484537
 30
0.0
 40
0
 41
0
  0
VERTEX
  8
0
 10
0.602539
 20
0.461426
 30
0.0
 40
0
 41
0
  0
VERTEX
  8
0
 10
0.602539
 20
0.453722
 30
0.0
 40
0
 41
0
  0
VERTEX
  8
0
 10
0.602539
 20
0.445367
 30
0.0
 40
0
 41
0
  0
VERTEX
  8
0
 10
0.613878
 20
0.422743
 30
0.0
 40
0
 41
0
  0
VERTEX
  8
0
 10
0.616157
 20
0.420301
 30
0.0
 40
0
 41
0
  0
VERTEX
  8
0
 10
0.618544
 20
0.418078
 30
0.0
 40
0
 41
0
  0
VERTEX
  8
0
 10
0.641764
 20
0.406685
 30
0.0
 40
0
 41
0
  0
VERTEX
  8
0
 10
0.649522
 20
0.406685
 30
0.0
 40
0
 41
0
  0
VERTEX
  8
0
 10
0.649849
 20
0.406685
 30
0.0
 40
0
 41
0
  0
VERTEX
  8
0
 10
0.649849
 20
0.40701
 30
0.0
 40
0
 41
0
  0
VERTEX
  8
0
 10
0.660047
 20
0.40701
 30
0.0
 40
0
 41
0
  0
VERTEX
  8
0
 10
0.660047
 20
0.406685
 30
0.0
 40
0
 41
0
  0
VERTEX
  8
0
 10
0.660319
 20
0.406685
 30
0.0
 40
0
 41
0
  0
SEQEND
 8
0
  0
POLYLINE
  8
0
 62
     204
 66
     1
 10
0
 20
0
 30
0.0
 70
     1
 40
0
 41
0
  0
VERTEX
  8
0
 10
0.659071
 20
0.384765
 30
0.0
 40
0
 41
0
  0
VERTEX
  8
0
 10
0.649522
 20
0.384765
 30
0.0
 40
0
 41
0
  0
VERTEX
  8
0
 10
0.637315
 20
0.384765
 30
0.0
 40
0
 41
0
  0
VERTEX
  8
0
 10
0.604167
 20
0.401531
 30
0.0
 40
0
 41
0
  0
VERTEX
  8
0
 10
0.600694
 20
0.404839
 30
0.0
 40
0
 41
0
  0
VERTEX
  8
0
 10
0.597331
 20
0.408365
 30
0.0
 40
0
 41
0
  0
VERTEX
  8
0
 10
0.580621
 20
0.442383
 30
0.0
 40
0
 41
0
  0
VERTEX
  8
0
 10
0.580621
 20
0.453722
 30
0.0
 40
0
 41
0
  0
VERTEX
  8
0
 10
0.580621
 20
0.460394
 30
0.0
 40
0
 41
0
  0
VERTEX
  8
0
 10
0.585504
 20
0.480251
 30
0.0
 40
0
 41
0
  0
VERTEX
  8
0
 10
0.59706
 20
0.498915
 30
0.0
 40
0
 41
0
  0
VERTEX
  8
0
 10
0.600369
 20
0.502171
 30
0.0
 40
0
 41
0
  0
VERTEX
  8
0
 10
0.603678
 20
0.505533
 30
0.0
 40
0
 41
0
  0
VERTEX
  8
0
 10
0.622504
 20
0.517469
 30
0.0
 40
0
 41
0
  0
VERTEX
  8
0
 10
0.644151
 20
0.52284
 30
0.0
 40
0
 41
0
  0
VERTEX
  8
0
 10
0.648926
 20
0.522894
 30
0.0
 40
0
 41
0
  0
VERTEX
  8
0
 10
0.718425
 20
0.522894
 30
0.0
 40
0
 41
0
  0
VERTEX
  8
0
 10
0.718425
 20
0.540201
 30
0.0
 40
0
 41
0
  0
VERTEX
  8
0
 10
0.718317
 20
0.543457
 30
0.0
 40
0
 41
0
  0
VERTEX
  8
0
 10
0.706435
 20
0.569228
 30
0.0
 40
0
 41
0
  0
VERTEX
  8
0
 10
0.70421
 20
0.571126
 30
0.0
 40
0
 41
0
  0
VERTEX
  8
0
 10
0.701932
 20
0.573133
 30
0.0
 40
0
 41
0
  0
VERTEX
  8
0
 10
0.679036
 20
0.583171
 30
0.0
 40
0
 41
0
  0
VERTEX
  8
0
 10
0.671442
 20
0.583171
 30
0.0
 40
0
 41
0
  0
VERTEX
  8
0
 10
0.671115
 20
0.583171
 30
0.0
 40
0
 41
0
  0
VERTEX
  8
0
 10
0.670301
 20
0.583333
 30
0.0
 40
0
 41
0
  0
VERTEX
  8
0
 10
0.670247
 20
0.583333
 30
0.0
 40
0
 41
0
  0
VERTEX
  8
0
 10
0.670139
 20
0.583387
 30
0.0
 40
0
 41
0
  0
VERTEX
  8
0
 10
0.668565
 20
0.583713
 30
0.0
 40
0
 41
0
  0
VERTEX
  8
0
 10
0.668349
 20
0.583768
 30
0.0
 40
0
 41
0
  0
VERTEX
  8
0
 10
0.613661
 20
0.583768
 30
0.0
 40
0
 41
0
  0
VERTEX
  8
0
 10
0.61084
 20
0.583768
 30
0.0
 40
0
 41
0
  0
VERTEX
  8
0
 10
0.602539
 20
0.592176
 30
0.0
 40
0
 41
0
  0
VERTEX
  8
0
 10
0.602539
 20
0.594943
 30
0.0
 40
0
 41
0
  0
VERTEX
  8
0
 10
0.602539
 20
0.597657
 30
0.0
 40
0
 41
0
  0
VERTEX
  8
0
 10
0.61084
 20
0.60574
 30
0.0
 40
0
 41
0
  0
VERTEX
  8
0
 10
0.613661
 20
0.60574
 30
0.0
 40
0
 41
0
  0
VERTEX
  8
0
 10
0.671442
 20
0.60574
 30
0.0
 40
0
 41
0
  0
VERTEX
  8
0
 10
0.671713
 20
0.60574
 30
0.0
 40
0
 41
0
  0
VERTEX
  8
0
 10
0.672526
 20
0.605632
 30
0.0
 40
0
 41
0
  0
VERTEX
  8
0
 10
0.672689
 20
0.605578
 30
0.0
 40
0
 41
0
  0
VERTEX
  8
0
 10
0.672851
 20
0.605578
 30
0.0
 40
0
 41
0
  0
VERTEX
  8
0
 10
0.674914
 20
0.605143
 30
0.0
 40
0
 41
0
  0
VERTEX
  8
0
 10
0.675185
 20
0.605089
 30
0.0
 40
0
 41
0
  0
VERTEX
  8
0
 10
0.679308
 20
0.604872
 30
0.0
 40
0
 41
0
  0
VERTEX
  8
0
 10
0.714844
 20
0.5912
 30
0.0
 40
0
 41
0
  0
VERTEX
  8
0
 10
0.717828
 20
0.588704
 30
0.0
 40
0
 41
0
  0
VERTEX
  8
0
 10
0.720865
 20
0.586262
 30
0.0
 40
0
 41
0
  0
VERTEX
  8
0
 10
0.739094
 20
0.55409
 30
0.0
 40
0
 41
0
  0
VERTEX
  8
0
 10
0.739746
 20
0.550076
 30
0.0
 40
0
 41
0
  0
VERTEX
  8
0
 10
0.739908
 20
0.549696
 30
0.0
 40
0
 41
0
  0
VERTEX
  8
0
 10
0.740668
 20
0.546983
 30
0.0
 40
0
 41
0
  0
VERTEX
  8
0
 10
0.740668
 20
0.546061
 30
0.0
 40
0
 41
0
  0
VERTEX
  8
0
 10
0.740668
 20
0.399306
 30
0.0
 40
0
 41
0
  0
VERTEX
  8
0
 10
0.740668
 20
0.396539
 30
0.0
 40
0
 41
0
  0
VERTEX
  8
0
 10
0.732314
 20
0.388183
 30
0.0
 40
0
 41
0
  0
VERTEX
  8
0
 10
0.729546
 20
0.388183
 30
0.0
 40
0
 41
0
  0
VERTEX
  8
0
 10
0.726725
 20
0.388183
 30
0.0
 40
0
 41
0
  0
VERTEX
  8
0
 10
0.718425
 20
0.396539
 30
0.0
 40
0
 41
0
  0
VERTEX
  8
0
 10
0.718425
 20
0.399306
 30
0.0
 40
0
 41
0
  0
VERTEX
  8
0
 10
0.718425
 20
0.409831
 30
0.0
 40
0
 41
0
  0
VERTEX
  8
0
 10
0.714464
 20
0.405653
 30
0.0
 40
0
 41
0
  0
VERTEX
  8
0
 10
0.692003
 20
0.39106
 30
0.0
 40
0
 41
0
  0
VERTEX
  8
0
 10
0.66824
 20
0.384765
 30
0.0
 40
0
 41
0
  0
VERTEX
  8
0
 10
0.660319
 20
0.384765
 30
0.0
 40
0
 41
0
  0
VERTEX
  8
0
 10
0.659071
 20
0.384765
 30
0.0
 40
0
 41
0
  0
SEQEND
 8
0
  0
POLYLINE
  8
0
 62
     204
 66
     1
 10
0
 20
0
 30
0.0
 70
     1
 40
0
 41
0
  0
VERTEX
  8
0
 10
0.921604
 20
0.54221
 30
0.0
 40
0
 41
0
  0
VERTEX
  8
0
 10
0.92155
 20
0.542318
 30
0.0
 40
0
 41
0
  0
VERTEX
  8
0
 10
0.921496
 20
0.54286
 30
0.0
 40
0
 41
0
  0
VERTEX
  8
0
 10
0.921496
 20
0.543024
 30
0.0
 40
0
 41
0
  0
VERTEX
  8
0
 10
0.921496
 20
0.54286
 30
0.0
 40
0
 41
0
  0
VERTEX
  8
0
 10
0.92155
 20
0.542318
 30
0.0
 40
0
 41
0
  0
VERTEX
  8
0
 10
0.921604
 20
0.54221
 30
0.0
 40
0
 41
0
  0
VERTEX
  8
0
 10
0.921604
 20
0.542156
 30
0.0
 40
0
 41
0
  0
VERTEX
  8
0
 10
0.921767
 20
0.54145
 30
0.0
 40
0
 41
0
  0
VERTEX
  8
0
 10
0.921767
 20
0.541178
 30
0.0
 40
0
 41
0
  0
VERTEX
  8
0
 10
0.921767
 20
0.54145
 30
0.0
 40
0
 41
0
  0
VERTEX
  8
0
 10
0.921604
 20
0.542156
 30
0.0
 40
0
 41
0
  0
VERTEX
  8
0
 10
0.921604
 20
0.54221
 30
0.0
 40
0
 41
0
  0
SEQEND
 8
0
  0
POLYLINE
  8
0
 62
     204
 66
     1
 10
0
 20
0
 30
0.0
 70
     1
 40
0
 41
0
  0
VERTEX
  8
0
 10
0.783638
 20
0.453396
 30
0.0
 40
0
 41
0
  0
VERTEX
  8
0
 10
0.783746
 20
0.450142
 30
0.0
 40
0
 41
0
  0
VERTEX
  8
0
 10
0.795301
 20
0.422851
 30
0.0
 40
0
 41
0
  0
VERTEX
  8
0
 10
0.797526
 20
0.420628
 30
0.0
 40
0
 41
0
  0
VERTEX
  8
0
 10
0.799914
 20
0.418403
 30
0.0
 40
0
 41
0
  0
VERTEX
  8
0
 10
0.822917
 20
0.407064
 30
0.0
 40
0
 41
0
  0
VERTEX
  8
0
 10
0.830621
 20
0.407064
 30
0.0
 40
0
 41
0
  0
VERTEX
  8
0
 10
0.852539
 20
0.407064
 30
0.0
 40
0
 41
0
  0
VERTEX
  8
0
 10
0.860786
 20
0.407064
 30
0.0
 40
0
 41
0
  0
VERTEX
  8
0
 10
0.883356
 20
0.418403
 30
0.0
 40
0
 41
0
  0
VERTEX
  8
0
 10
0.885633
 20
0.420628
 30
0.0
 40
0
 41
0
  0
VERTEX
  8
0
 10
0.887912
 20
0.42296
 30
0.0
 40
0
 41
0
  0
VERTEX
  8
0
 10
0.899522
 20
0.446235
 30
0.0
 40
0
 41
0
  0
VERTEX
  8
0
 10
0.899522
 20
0.453993
 30
0.0
 40
0
 41
0
  0
VERTEX
  8
0
 10
0.899576
 20
0.455783
 30
0.0
 40
0
 41
0
  0
VERTEX
  8
0
 10
0.907878
 20
0.464518
 30
0.0
 40
0
 41
0
  0
VERTEX
  8
0
 10
0.910644
 20
0.464518
 30
0.0
 40
0
 41
0
  0
VERTEX
  8
0
 10
0.913411
 20
0.464518
 30
0.0
 40
0
 41
0
  0
VERTEX
  8
0
 10
0.921712
 20
0.455783
 30
0.0
 40
0
 41
0
  0
VERTEX
  8
0
 10
0.921767
 20
0.453993
 30
0.0
 40
0
 41
0
  0
VERTEX
  8
0
 10
0.921767
 20
0.453071
 30
0.0
 40
0
 41
0
  0
VERTEX
  8
0
 10
0.921712
 20
0.44846
 30
0.0
 40
0
 41
0
  0
VERTEX
  8
0
 10
0.90446
 20
0.408257
 30
0.0
 40
0
 41
0
  0
VERTEX
  8
0
 10
0.901096
 20
0.404839
 30
0.0
 40
0
 41
0
  0
VERTEX
  8
0
 10
0.897786
 20
0.401585
 30
0.0
 40
0
 41
0
  0
VERTEX
  8
0
 10
0.879178
 20
0.389974
 30
0.0
 40
0
 41
0
  0
VERTEX
  8
0
 10
0.857856
 20
0.384819
 30
0.0
 40
0
 41
0
  0
VERTEX
  8
0
 10
0.85319
 20
0.384765
 30
0.0
 40
0
 41
0
  0
VERTEX
  8
0
 10
0.829969
 20
0.384765
 30
0.0
 40
0
 41
0
  0
VERTEX
  8
0
 10
0.825304
 20
0.384874
 30
0.0
 40
0
 41
0
  0
VERTEX
  8
0
 10
0.785644
 20
0.401096
 30
0.0
 40
0
 41
0
  0
VERTEX
  8
0
 10
0.782389
 20
0.404243
 30
0.0
 40
0
 41
0
  0
VERTEX
  8
0
 10
0.779081
 20
0.407389
 30
0.0
 40
0
 41
0
  0
VERTEX
  8
0
 10
0.767307
 20
0.425347
 30
0.0
 40
0
 41
0
  0
VERTEX
  8
0
 10
0.761828
 20
0.446289
 30
0.0
 40
0
 41
0
  0
VERTEX
  8
0
 10
0.761719
 20
0.4509
 30
0.0
 40
0
 41
0
  0
VERTEX
  8
0
 10
0.761719
 20
0.531575
 30
0.0
 40
0
 41
0
  0
VERTEX
  8
0
 10
0.761719
 20
0.536838
 30
0.0
 40
0
 41
0
  0
VERTEX
  8
0
 10
0.767524
 20
0.560872
 30
0.0
 40
0
 41
0
  0
VERTEX
  8
0
 10
0.780761
 20
0.581868
 30
0.0
 40
0
 41
0
  0
VERTEX
  8
0
 10
0.78456
 20
0.585613
 30
0.0
 40
0
 41
0
  0
VERTEX
  8
0
 10
0.788249
 20
0.589356
 30
0.0
 40
0
 41
0
  0
VERTEX
  8
0
 10
0.809299
 20
0.602756
 30
0.0
 40
0
 41
0
  0
VERTEX
  8
0
 10
0.833604
 20
0.609213
 30
0.0
 40
0
 41
0
  0
VERTEX
  8
0
 10
0.838976
 20
0.609429
 30
0.0
 40
0
 41
0
  0
VERTEX
  8
0
 10
0.855632
 20
0.609429
 30
0.0
 40
0
 41
0
  0
VERTEX
  8
0
 10
0.855686
 20
0.609375
 30
0.0
 40
0
 41
0
  0
VERTEX
  8
0
 10
0.856338
 20
0.609104
 30
0.0
 40
0
 41
0
  0
VERTEX
  8
0
 10
0.856554
 20
0.609104
 30
0.0
 40
0
 41
0
  0
VERTEX
  8
0
 10
0.859375
 20
0.609104
 30
0.0
 40
0
 41
0
  0
VERTEX
  8
0
 10
0.859483
 20
0.609104
 30
0.0
 40
0
 41
0
  0
VERTEX
  8
0
 10
0.859918
 20
0.608886
 30
0.0
 40
0
 41
0
  0
VERTEX
  8
0
 10
0.859972
 20
0.608832
 30
0.0
 40
0
 41
0
  0
VERTEX
  8
0
 10
0.861817
 20
0.608832
 30
0.0
 40
0
 41
0
  0
VERTEX
  8
0
 10
0.861925
 20
0.608778
 30
0.0
 40
0
 41
0
  0
VERTEX
  8
0
 10
0.862739
 20
0.608507
 30
0.0
 40
0
 41
0
  0
VERTEX
  8
0
 10
0.862739
 20
0.608507
 30
0.0
 40
0
 41
0
  0
VERTEX
  8
0
 10
0.863661
 20
0.608507
 30
0.0
 40
0
 41
0
  0
VERTEX
  8
0
 10
0.863824
 20
0.608507
 30
0.0
 40
0
 41
0
  0
VERTEX
  8
0
 10
0.864258
 20
0.608236
 30
0.0
 40
0
 41
0
  0
VERTEX
  8
0
 10
0.864312
 20
0.608182
 30
0.0
 40
0
 41
0
  0
VERTEX
  8
0
 10
0.865235
 20
0.608182
 30
0.0
 40
0
 41
0
  0
VERTEX
  8
0
 10
0.865343
 20
0.608182
 30
0.0
 40
0
 41
0
  0
VERTEX
  8
0
 10
0.865831
 20
0.608018
 30
0.0
 40
0
 41
0
  0
VERTEX
  8
0
 10
0.865831
 20
0.60791
 30
0.0
 40
0
 41
0
  0
VERTEX
  8
0
 10
0.866754
 20
0.60791
 30
0.0
 40
0
 41
0
  0
VERTEX
  8
0
 10
0.866863
 20
0.60791
 30
0.0
 40
0
 41
0
  0
VERTEX
  8
0
 10
0.867188
 20
0.607801
 30
0.0
 40
0
 41
0
  0
VERTEX
  8
0
 10
0.867242
 20
0.607747
 30
0.0
 40
0
 41
0
  0
VERTEX
  8
0
 10
0.867242
 20
0.607747
 30
0.0
 40
0
 41
0
  0
VERTEX
  8
0
 10
0.867567
 20
0.607585
 30
0.0
 40
0
 41
0
  0
VERTEX
  8
0
 10
0.867676
 20
0.607585
 30
0.0
 40
0
 41
0
  0
VERTEX
  8
0
 10
0.868653
 20
0.607585
 30
0.0
 40
0
 41
0
  0
VERTEX
  8
0
 10
0.868653
 20
0.607531
 30
0.0
 40
0
 41
0
  0
VERTEX
  8
0
 10
0.869303
 20
0.607314
 30
0.0
 40
0
 41
0
  0
VERTEX
  8
0
 10
0.869521
 20
0.607314
 30
0.0
 40
0
 41
0
  0
VERTEX
  8
0
 10
0.869575
 20
0.60726
 30
0.0
 40
0
 41
0
  0
VERTEX
  8
0
 10
0.870008
 20
0.606933
 30
0.0
 40
0
 41
0
  0
VERTEX
  8
0
 10
0.870171
 20
0.606933
 30
0.0
 40
0
 41
0
  0
VERTEX
  8
0
 10
0.870281
 20
0.606933
 30
0.0
 40
0
 41
0
  0
VERTEX
  8
0
 10
0.870606
 20
0.606879
 30
0.0
 40
0
 41
0
  0
VERTEX
  8
0
 10
0.87066
 20
0.606825
 30
0.0
 40
0
 41
0
  0
VERTEX
  8
0
 10
0.87066
 20
0.606825
 30
0.0
 40
0
 41
0
  0
VERTEX
  8
0
 10
0.870985
 20
0.606662
 30
0.0
 40
0
 41
0
  0
VERTEX
  8
0
 10
0.871094
 20
0.606662
 30
0.0
 40
0
 41
0
  0
VERTEX
  8
0
 10
0.87169
 20
0.606662
 30
0.0
 40
0
 41
0
  0
VERTEX
  8
0
 10
0.871907
 20
0.606662
 30
0.0
 40
0
 41
0
  0
VERTEX
  8
0
 10
0.872612
 20
0.606392
 30
0.0
 40
0
 41
0
  0
VERTEX
  8
0
 10
0.872667
 20
0.606337
 30
0.0
 40
0
 41
0
  0
VERTEX
  8
0
 10
0.872667
 20
0.606337
 30
0.0
 40
0
 41
0
  0
VERTEX
  8
0
 10
0.873101
 20
0.606065
 30
0.0
 40
0
 41
0
  0
VERTEX
  8
0
 10
0.873264
 20
0.606065
 30
0.0
 40
0
 41
0
  0
VERTEX
  8
0
 10
0.873318
 20
0.606011
 30
0.0
 40
0
 41
0
  0
VERTEX
  8
0
 10
0.873969
 20
0.60574
 30
0.0
 40
0
 41
0
  0
VERTEX
  8
0
 10
0.874186
 20
0.60574
 30
0.0
 40
0
 41
0
  0
VERTEX
  8
0
 10
0.874511
 20
0.605414
 30
0.0
 40
0
 41
0
  0
VERTEX
  8
0
 10
0.874838
 20
0.605414
 30
0.0
 40
0
 41
0
  0
VERTEX
  8
0
 10
0.875108
 20
0.605414
 30
0.0
 40
0
 41
0
  0
VERTEX
  8
0
 10
0.875976
 20
0.605143
 30
0.0
 40
0
 41
0
  0
VERTEX
  8
0
 10
0.876031
 20
0.605089
 30
0.0
 40
0
 41
0
  0
VERTEX
  8
0
 10
0.876682
 20
0.605089
 30
0.0
 40
0
 41
0
  0
VERTEX
  8
0
 10
0.876682
 20
0.604981
 30
0.0
 40
0
 41
0
  0
VERTEX
  8
0
 10
0.877333
 20
0.604492
 30
0.0
 40
0
 41
0
  0
VERTEX
  8
0
 10
0.877604
 20
0.604492
 30
0.0
 40
0
 41
0
  0
VERTEX
  8
0
 10
0.877875
 20
0.604492
 30
0.0
 40
0
 41
0
  0
VERTEX
  8
0
 10
0.877983
 20
0.604383
 30
0.0
 40
0
 41
0
  0
VERTEX
  8
0
 10
0.878851
 20
0.603842
 30
0.0
 40
0
 41
0
  0
VERTEX
  8
0
 10
0.878851
 20
0.603842
 30
0.0
 40
0
 41
0
  0
VERTEX
  8
0
 10
0.879069
 20
0.603842
 30
0.0
 40
0
 41
0
  0
VERTEX
  8
0
 10
0.879719
 20
0.603624
 30
0.0
 40
0
 41
0
  0
VERTEX
  8
0
 10
0.879775
 20
0.603569
 30
0.0
 40
0
 41
0
  0
VERTEX
  8
0
 10
0.879829
 20
0.603515
 30
0.0
 40
0
 41
0
  0
VERTEX
  8
0
 10
0.880697
 20
0.603299
 30
0.0
 40
0
 41
0
  0
VERTEX
  8
0
 10
0.880697
 20
0.603299
 30
0.0
 40
0
 41
0
  0
VERTEX
  8
0
 10
0.881293
 20
0.603299
 30
0.0
 40
0
 41
0
  0
VERTEX
  8
0
 10
0.881293
 20
0.603136
 30
0.0
 40
0
 41
0
  0
VERTEX
  8
0
 10
0.881944
 20
0.602647
 30
0.0
 40
0
 41
0
  0
VERTEX
  8
0
 10
0.882215
 20
0.602647
 30
0.0
 40
0
 41
0
  0
VERTEX
  8
0
 10
0.882324
 20
0.602647
 30
0.0
 40
0
 41
0
  0
VERTEX
  8
0
 10
0.882758
 20
0.602376
 30
0.0
 40
0
 41
0
  0
VERTEX
  8
0
 10
0.882813
 20
0.602322
 30
0.0
 40
0
 41
0
  0
VERTEX
  8
0
 10
0.882921
 20
0.602268
 30
0.0
 40
0
 41
0
  0
VERTEX
  8
0
 10
0.883789
 20
0.602051
 30
0.0
 40
0
 41
0
  0
VERTEX
  8
0
 10
0.883789
 20
0.602051
 30
0.0
 40
0
 41
0
  0
VERTEX
  8
0
 10
0.88406
 20
0.601671
 30
0.0
 40
0
 41
0
  0
VERTEX
  8
0
 10
0.884169
 20
0.601617
 30
0.0
 40
0
 41
0
  0
VERTEX
  8
0
 10
0.884765
 20
0.601074
 30
0.0
 40
0
 41
0
  0
VERTEX
  8
0
 10
0.884983
 20
0.601074
 30
0.0
 40
0
 41
0
  0
VERTEX
  8
0
 10
0.885146
 20
0.601074
 30
0.0
 40
0
 41
0
  0
VERTEX
  8
0
 10
0.885579
 20
0.600857
 30
0.0
 40
0
 41
0
  0
VERTEX
  8
0
 10
0.885633
 20
0.600803
 30
0.0
 40
0
 41
0
  0
VERTEX
  8
0
 10
0.885688
 20
0.600749
 30
0.0
 40
0
 41
0
  0
VERTEX
  8
0
 10
0.886556
 20
0.600478
 30
0.0
 40
0
 41
0
  0
VERTEX
  8
0
 10
0.886556
 20
0.600478
 30
0.0
 40
0
 41
0
  0
VERTEX
  8
0
 10
0.886882
 20
0.600151
 30
0.0
 40
0
 41
0
  0
VERTEX
  8
0
 10
0.886936
 20
0.600097
 30
0.0
 40
0
 41
0
  0
VERTEX
  8
0
 10
0.887804
 20
0.599556
 30
0.0
 40
0
 41
0
  0
VERTEX
  8
0
 10
0.888129
 20
0.599556
 30
0.0
 40
0
 41
0
  0
VERTEX
  8
0
 10
0.8884
 20
0.599229
 30
0.0
 40
0
 41
0
  0
VERTEX
  8
0
 10
0.888726
 20
0.598904
 30
0.0
 40
0
 41
0
  0
VERTEX
  8
0
 10
0.888835
 20
0.598904
 30
0.0
 40
0
 41
0
  0
VERTEX
  8
0
 10
0.889268
 20
0.598687
 30
0.0
 40
0
 41
0
  0
VERTEX
  8
0
 10
0.889324
 20
0.598633
 30
0.0
 40
0
 41
0
  0
VERTEX
  8
0
 10
0.889486
 20
0.598633
 30
0.0
 40
0
 41
0
  0
VERTEX
  8
0
 10
0.889919
 20
0.598361
 30
0.0
 40
0
 41
0
  0
VERTEX
  8
0
 10
0.889974
 20
0.598307
 30
0.0
 40
0
 41
0
  0
VERTEX
  8
0
 10
0.889974
 20
0.598199
 30
0.0
 40
0
 41
0
  0
VERTEX
  8
0
 10
0.890462
 20
0.597765
 30
0.0
 40
0
 41
0
  0
VERTEX
  8
0
 10
0.890571
 20
0.597711
 30
0.0
 40
0
 41
0
  0
VERTEX
  8
0
 10
0.890625
 20
0.597657
 30
0.0
 40
0
 41
0
  0
VERTEX
  8
0
 10
0.89106
 20
0.597385
 30
0.0
 40
0
 41
0
  0
VERTEX
  8
0
 10
0.891222
 20
0.597385
 30
0.0
 40
0
 41
0
  0
VERTEX
  8
0
 10
0.891222
 20
0.597385
 30
0.0
 40
0
 41
0
  0
VERTEX
  8
0
 10
0.891928
 20
0.596951
 30
0.0
 40
0
 41
0
  0
VERTEX
  8
0
 10
0.89209
 20
0.596789
 30
0.0
 40
0
 41
0
  0
VERTEX
  8
0
 10
0.892415
 20
0.596463
 30
0.0
 40
0
 41
0
  0
VERTEX
  8
0
 10
0.892524
 20
0.596463
 30
0.0
 40
0
 41
0
  0
VERTEX
  8
0
 10
0.89285
 20
0.596192
 30
0.0
 40
0
 41
0
  0
VERTEX
  8
0
 10
0.892904
 20
0.596138
 30
0.0
 40
0
 41
0
  0
VERTEX
  8
0
 10
0.892904
 20
0.596083
 30
0.0
 40
0
 41
0
  0
VERTEX
  8
0
 10
0.893229
 20
0.595811
 30
0.0
 40
0
 41
0
  0
VERTEX
  8
0
 10
0.893337
 20
0.595811
 30
0.0
 40
0
 41
0
  0
VERTEX
  8
0
 10
0.893392
 20
0.595811
 30
0.0
 40
0
 41
0
  0
VERTEX
  8
0
 10
0.893826
 20
0.59554
 30
0.0
 40
0
 41
0
  0
VERTEX
  8
0
 10
0.893989
 20
0.59554
 30
0.0
 40
0
 41
0
  0
VERTEX
  8
0
 10
0.893989
 20
0.595378
 30
0.0
 40
0
 41
0
  0
VERTEX
  8
0
 10
0.89464
 20
0.594889
 30
0.0
 40
0
 41
0
  0
VERTEX
  8
0
 10
0.894911
 20
0.594889
 30
0.0
 40
0
 41
0
  0
VERTEX
  8
0
 10
0.895236
 20
0.594618
 30
0.0
 40
0
 41
0
  0
VERTEX
  8
0
 10
0.896158
 20
0.593642
 30
0.0
 40
0
 41
0
  0
VERTEX
  8
0
 10
0.896431
 20
0.593642
 30
0.0
 40
0
 41
0
  0
VERTEX
  8
0
 10
0.897353
 20
0.592774
 30
0.0
 40
0
 41
0
  0
VERTEX
  8
0
 10
0.897353
 20
0.592449
 30
0.0
 40
0
 41
0
  0
VERTEX
  8
0
 10
0.897678
 20
0.592449
 30
0.0
 40
0
 41
0
  0
VERTEX
  8
0
 10
0.898926
 20
0.5912
 30
0.0
 40
0
 41
0
  0
VERTEX
  8
0
 10
0.898981
 20
0.591092
 30
0.0
 40
0
 41
0
  0
VERTEX
  8
0
 10
0.899849
 20
0.590549
 30
0.0
 40
0
 41
0
  0
VERTEX
  8
0
 10
0.899849
 20
0.590549
 30
0.0
 40
0
 41
0
  0
VERTEX
  8
0
 10
0.900174
 20
0.590278
 30
0.0
 40
0
 41
0
  0
VERTEX
  8
0
 10
0.901096
 20
0.589356
 30
0.0
 40
0
 41
0
  0
VERTEX
  8
0
 10
0.901096
 20
0.589031
 30
0.0
 40
0
 41
0
  0
VERTEX
  8
0
 10
0.901367
 20
0.589031
 30
0.0
 40
0
 41
0
  0
VERTEX
  8
0
 10
0.902289
 20
0.588108
 30
0.0
 40
0
 41
0
  0
VERTEX
  8
0
 10
0.902615
 20
0.588108
 30
0.0
 40
0
 41
0
  0
VERTEX
  8
0
 10
0.902615
 20
0.587836
 30
0.0
 40
0
 41
0
  0
VERTEX
  8
0
 10
0.903375
 20
0.587022
 30
0.0
 40
0
 41
0
  0
VERTEX
  8
0
 10
0.903538
 20
0.58686
 30
0.0
 40
0
 41
0
  0
VERTEX
  8
0
 10
0.903538
 20
0.586589
 30
0.0
 40
0
 41
0
  0
VERTEX
  8
0
 10
0.904297
 20
0.585775
 30
0.0
 40
0
 41
0
  0
VERTEX
  8
0
 10
0.90446
 20
0.585613
 30
0.0
 40
0
 41
0
  0
VERTEX
  8
0
 10
0.904514
 20
0.585613
 30
0.0
 40
0
 41
0
  0
VERTEX
  8
0
 10
0.904893
 20
0.585069
 30
0.0
 40
0
 41
0
  0
VERTEX
  8
0
 10
0.904949
 20
0.585015
 30
0.0
 40
0
 41
0
  0
VERTEX
  8
0
 10
0.904949
 20
0.584961
 30
0.0
 40
0
 41
0
  0
VERTEX
  8
0
 10
0.905328
 20
0.584472
 30
0.0
 40
0
 41
0
  0
VERTEX
  8
0
 10
0.905382
 20
0.584418
 30
0.0
 40
0
 41
0
  0
VERTEX
  8
0
 10
0.905707
 20
0.584147
 30
0.0
 40
0
 41
0
  0
VERTEX
  8
0
 10
0.906629
 20
0.583171
 30
0.0
 40
0
 41
0
  0
VERTEX
  8
0
 10
0.906739
 20
0.583062
 30
0.0
 40
0
 41
0
  0
VERTEX
  8
0
 10
0.907497
 20
0.582032
 30
0.0
 40
0
 41
0
  0
VERTEX
  8
0
 10
0.907553
 20
0.581922
 30
0.0
 40
0
 41
0
  0
VERTEX
  8
0
 10
0.907607
 20
0.581814
 30
0.0
 40
0
 41
0
  0
VERTEX
  8
0
 10
0.908365
 20
0.580838
 30
0.0
 40
0
 41
0
  0
VERTEX
  8
0
 10
0.908475
 20
0.580729
 30
0.0
 40
0
 41
0
  0
VERTEX
  8
0
 10
0.908475
 20
0.580404
 30
0.0
 40
0
 41
0
  0
VERTEX
  8
0
 10
0.9088
 20
0.580404
 30
0.0
 40
0
 41
0
  0
VERTEX
  8
0
 10
0.908854
 20
0.580296
 30
0.0
 40
0
 41
0
  0
VERTEX
  8
0
 10
0.909343
 20
0.579264
 30
0.0
 40
0
 41
0
  0
VERTEX
  8
0
 10
0.909397
 20
0.579156
 30
0.0
 40
0
 41
0
  0
VERTEX
  8
0
 10
0.909722
 20
0.579156
 30
0.0
 40
0
 41
0
  0
VERTEX
  8
0
 10
0.909776
 20
0.578993
 30
0.0
 40
0
 41
0
  0
VERTEX
  8
0
 10
0.910211
 20
0.577908
 30
0.0
 40
0
 41
0
  0
VERTEX
  8
0
 10
0.910374
 20
0.577908
 30
0.0
 40
0
 41
0
  0
VERTEX
  8
0
 10
0.910374
 20
0.577636
 30
0.0
 40
0
 41
0
  0
VERTEX
  8
0
 10
0.911296
 20
0.57666
 30
0.0
 40
0
 41
0
  0
VERTEX
  8
0
 10
0.911296
 20
0.576335
 30
0.0
 40
0
 41
0
  0
VERTEX
  8
0
 10
0.911296
 20
0.576335
 30
0.0
 40
0
 41
0
  0
VERTEX
  8
0
 10
0.911675
 20
0.575792
 30
0.0
 40
0
 41
0
  0
VERTEX
  8
0
 10
0.911729
 20
0.575737
 30
0.0
 40
0
 41
0
  0
VERTEX
  8
0
 10
0.911729
 20
0.575683
 30
0.0
 40
0
 41
0
  0
VERTEX
  8
0
 10
0.912164
 20
0.575196
 30
0.0
 40
0
 41
0
  0
VERTEX
  8
0
 10
0.912218
 20
0.575142
 30
0.0
 40
0
 41
0
  0
VERTEX
  8
0
 10
0.912218
 20
0.574761
 30
0.0
 40
0
 41
0
  0
VERTEX
  8
0
 10
0.912978
 20
0.573785
 30
0.0
 40
0
 41
0
  0
VERTEX
  8
0
 10
0.91314
 20
0.573622
 30
0.0
 40
0
 41
0
  0
VERTEX
  8
0
 10
0.91314
 20
0.573622
 30
0.0
 40
0
 41
0
  0
VERTEX
  8
0
 10
0.913629
 20
0.572483
 30
0.0
 40
0
 41
0
  0
VERTEX
  8
0
 10
0.913738
 20
0.572049
 30
0.0
 40
0
 41
0
  0
VERTEX
  8
0
 10
0.913792
 20
0.57194
 30
0.0
 40
0
 41
0
  0
VERTEX
  8
0
 10
0.914387
 20
0.571181
 30
0.0
 40
0
 41
0
  0
VERTEX
  8
0
 10
0.914497
 20
0.571126
 30
0.0
 40
0
 41
0
  0
VERTEX
  8
0
 10
0.914551
 20
0.571072
 30
0.0
 40
0
 41
0
  0
VERTEX
  8
0
 10
0.914985
 20
0.570421
 30
0.0
 40
0
 41
0
  0
VERTEX
  8
0
 10
0.914985
 20
0.570204
 30
0.0
 40
0
 41
0
  0
VERTEX
  8
0
 10
0.914985
 20
0.569988
 30
0.0
 40
0
 41
0
  0
VERTEX
  8
0
 10
0.915256
 20
0.569336
 30
0.0
 40
0
 41
0
  0
VERTEX
  8
0
 10
0.91531
 20
0.569228
 30
0.0
 40
0
 41
0
  0
VERTEX
  8
0
 10
0.91531
 20
0.569011
 30
0.0
 40
0
 41
0
  0
VERTEX
  8
0
 10
0.915528
 20
0.568414
 30
0.0
 40
0
 41
0
  0
VERTEX
  8
0
 10
0.915582
 20
0.56836
 30
0.0
 40
0
 41
0
  0
VERTEX
  8
0
 10
0.915636
 20
0.568306
 30
0.0
 40
0
 41
0
  0
VERTEX
  8
0
 10
0.915907
 20
0.567871
 30
0.0
 40
0
 41
0
  0
VERTEX
  8
0
 10
0.915907
 20
0.567708
 30
0.0
 40
0
 41
0
  0
VERTEX
  8
0
 10
0.915907
 20
0.567708
 30
0.0
 40
0
 41
0
  0
VERTEX
  8
0
 10
0.91645
 20
0.566624
 30
0.0
 40
0
 41
0
  0
VERTEX
  8
0
 10
0.916558
 20
0.566189
 30
0.0
 40
0
 41
0
  0
VERTEX
  8
0
 10
0.916558
 20
0.566135
 30
0.0
 40
0
 41
0
  0
VERTEX
  8
0
 10
0.916829
 20
0.565593
 30
0.0
 40
0
 41
0
  0
VERTEX
  8
0
 10
0.916829
 20
0.565593
 30
0.0
 40
0
 41
0
  0
VERTEX
  8
0
 10
0.916829
 20
0.565375
 30
0.0
 40
0
 41
0
  0
VERTEX
  8
0
 10
0.917101
 20
0.564671
 30
0.0
 40
0
 41
0
  0
VERTEX
  8
0
 10
0.917156
 20
0.564615
 30
0.0
 40
0
 41
0
  0
VERTEX
  8
0
 10
0.91721
 20
0.564615
 30
0.0
 40
0
 41
0
  0
VERTEX
  8
0
 10
0.917426
 20
0.564019
 30
0.0
 40
0
 41
0
  0
VERTEX
  8
0
 10
0.917426
 20
0.564019
 30
0.0
 40
0
 41
0
  0
VERTEX
  8
0
 10
0.917426
 20
0.563803
 30
0.0
 40
0
 41
0
  0
VERTEX
  8
0
 10
0.917697
 20
0.563151
 30
0.0
 40
0
 41
0
  0
VERTEX
  8
0
 10
0.917751
 20
0.563043
 30
0.0
 40
0
 41
0
  0
VERTEX
  8
0
 10
0.917806
 20
0.562662
 30
0.0
 40
0
 41
0
  0
VERTEX
  8
0
 10
0.919325
 20
0.557292
 30
0.0
 40
0
 41
0
  0
VERTEX
  8
0
 10
0.919596
 20
0.556586
 30
0.0
 40
0
 41
0
  0
VERTEX
  8
0
 10
0.919706
 20
0.556207
 30
0.0
 40
0
 41
0
  0
VERTEX
  8
0
 10
0.920356
 20
0.552843
 30
0.0
 40
0
 41
0
  0
VERTEX
  8
0
 10
0.92041
 20
0.552572
 30
0.0
 40
0
 41
0
  0
VERTEX
  8
0
 10
0.92041
 20
0.552354
 30
0.0
 40
0
 41
0
  0
VERTEX
  8
0
 10
0.92079
 20
0.550022
 30
0.0
 40
0
 41
0
  0
VERTEX
  8
0
 10
0.920844
 20
0.549804
 30
0.0
 40
0
 41
0
  0
VERTEX
  8
0
 10
0.920899
 20
0.549479
 30
0.0
 40
0
 41
0
  0
VERTEX
  8
0
 10
0.921278
 20
0.546278
 30
0.0
 40
0
 41
0
  0
VERTEX
  8
0
 10
0.921332
 20
0.545953
 30
0.0
 40
0
 41
0
  0
VERTEX
  8
0
 10
0.921332
 20
0.545682
 30
0.0
 40
0
 41
0
  0
VERTEX
  8
0
 10
0.921496
 20
0.543728
 30
0.0
 40
0
 41
0
  0
VERTEX
  8
0
 10
0.921496
 20
0.543024
 30
0.0
 40
0
 41
0
  0
VERTEX
  8
0
 10
0.921496
 20
0.54286
 30
0.0
 40
0
 41
0
  0
VERTEX
  8
0
 10
0.92155
 20
0.542318
 30
0.0
 40
0
 41
0
  0
VERTEX
  8
0
 10
0.921604
 20
0.54221
 30
0.0
 40
0
 41
0
  0
VERTEX
  8
0
 10
0.921604
 20
0.542156
 30
0.0
 40
0
 41
0
  0
VERTEX
  8
0
 10
0.921767
 20
0.54145
 30
0.0
 40
0
 41
0
  0
VERTEX
  8
0
 10
0.921767
 20
0.541178
 30
0.0
 40
0
 41
0
  0
VERTEX
  8
0
 10
0.921767
 20
0.539876
 30
0.0
 40
0
 41
0
  0
VERTEX
  8
0
 10
0.921604
 20
0.538194
 30
0.0
 40
0
 41
0
  0
VERTEX
  8
0
 10
0.913357
 20
0.529731
 30
0.0
 40
0
 41
0
  0
VERTEX
  8
0
 10
0.910644
 20
0.529731
 30
0.0
 40
0
 41
0
  0
VERTEX
  8
0
 10
0.907824
 20
0.529731
 30
0.0
 40
0
 41
0
  0
VERTEX
  8
0
 10
0.899576
 20
0.538194
 30
0.0
 40
0
 41
0
  0
VERTEX
  8
0
 10
0.899522
 20
0.539876
 30
0.0
 40
0
 41
0
  0
VERTEX
  8
0
 10
0.899522
 20
0.540201
 30
0.0
 40
0
 41
0
  0
VERTEX
  8
0
 10
0.899522
 20
0.548503
 30
0.0
 40
0
 41
0
  0
VERTEX
  8
0
 10
0.887912
 20
0.571018
 30
0.0
 40
0
 41
0
  0
VERTEX
  8
0
 10
0.885633
 20
0.573296
 30
0.0
 40
0
 41
0
  0
VERTEX
  8
0
 10
0.883356
 20
0.575629
 30
0.0
 40
0
 41
0
  0
VERTEX
  8
0
 10
0.860243
 20
0.587185
 30
0.0
 40
0
 41
0
  0
VERTEX
  8
0
 10
0.852539
 20
0.587185
 30
0.0
 40
0
 41
0
  0
VERTEX
  8
0
 10
0.839247
 20
0.587185
 30
0.0
 40
0
 41
0
  0
VERTEX
  8
0
 10
0.835394
 20
0.587022
 30
0.0
 40
0
 41
0
  0
VERTEX
  8
0
 10
0.802681
 20
0.572049
 30
0.0
 40
0
 41
0
  0
VERTEX
  8
0
 10
0.800022
 20
0.569228
 30
0.0
 40
0
 41
0
  0
VERTEX
  8
0
 10
0.797364
 20
0.566624
 30
0.0
 40
0
 41
0
  0
VERTEX
  8
0
 10
0.783746
 20
0.533963
 30
0.0
 40
0
 41
0
  0
VERTEX
  8
0
 10
0.783638
 20
0.530003
 30
0.0
 40
0
 41
0
  0
VERTEX
  8
0
 10
0.783638
 20
0.453396
 30
0.0
 40
0
 41
0
  0
SEQEND
 8
0
  0
POLYLINE
  8
0
 62
     204
 66
     1
 10
0
 20
0
 30
0.0
 70
     1
 40
0
 41
0
  0
VERTEX
  8
0
 10
0.964735
 20
0.668457
 30
0.0
 40
0
 41
0
  0
VERTEX
  8
0
 10
0.964735
 20
0.473742
 30
0.0
 40
0
 41
0
  0
VERTEX
  8
0
 10
1.08339
 20
0.60574
 30
0.0
 40
0
 41
0
  0
VERTEX
  8
0
 10
1.08464
 20
0.607042
 30
0.0
 40
0
 41
0
  0
VERTEX
  8
0
 10
1.09777
 20
0.607801
 30
0.0
 40
0
 41
0
  0
VERTEX
  8
0
 10
1.09918
 20
0.606662
 30
0.0
 40
0
 41
0
  0
VERTEX
  8
0
 10
1.10048
 20
0.60536
 30
0.0
 40
0
 41
0
  0
VERTEX
  8
0
 10
1.10102
 20
0.592176
 30
0.0
 40
0
 41
0
  0
VERTEX
  8
0
 10
1.09977
 20
0.590875
 30
0.0
 40
0
 41
0
  0
VERTEX
  8
0
 10
1.02718
 20
0.5102
 30
0.0
 40
0
 41
0
  0
VERTEX
  8
0
 10
1.10102
 20
0.402072
 30
0.0
 40
0
 41
0
  0
VERTEX
  8
0
 10
1.102
 20
0.400553
 30
0.0
 40
0
 41
0
  0
VERTEX
  8
0
 10
1.09939
 20
0.387642
 30
0.0
 40
0
 41
0
  0
VERTEX
  8
0
 10
1.09793
 20
0.38661
 30
0.0
 40
0
 41
0
  0
VERTEX
  8
0
 10
1.09728
 20
0.386231
 30
0.0
 40
0
 41
0
  0
VERTEX
  8
0
 10
1.0906
 20
0.384711
 30
0.0
 40
0
 41
0
  0
VERTEX
  8
0
 10
1.0899
 20
0.384765
 30
0.0
 40
0
 41
0
  0
VERTEX
  8
0
 10
1.08898
 20
0.384874
 30
0.0
 40
0
 41
0
  0
VERTEX
  8
0
 10
1.08225
 20
0.390028
 30
0.0
 40
0
 41
0
  0
VERTEX
  8
0
 10
1.08187
 20
0.39095
 30
0.0
 40
0
 41
0
  0
VERTEX
  8
0
 10
1.01204
 20
0.493272
 30
0.0
 40
0
 41
0
  0
VERTEX
  8
0
 10
0.964735
 20
0.440375
 30
0.0
 40
0
 41
0
  0
VERTEX
  8
0
 10
0.964735
 20
0.399306
 30
0.0
 40
0
 41
0
  0
VERTEX
  8
0
 10
0.964735
 20
0.396539
 30
0.0
 40
0
 41
0
  0
VERTEX
  8
0
 10
0.956381
 20
0.388183
 30
0.0
 40
0
 41
0
  0
VERTEX
  8
0
 10
0.953614
 20
0.388183
 30
0.0
 40
0
 41
0
  0
VERTEX
  8
0
 10
0.9509
 20
0.388183
 30
0.0
 40
0
 41
0
  0
VERTEX
  8
0
 10
0.942817
 20
0.396539
 30
0.0
 40
0
 41
0
  0
VERTEX
  8
0
 10
0.942817
 20
0.399306
 30
0.0
 40
0
 41
0
  0
VERTEX
  8
0
 10
0.942817
 20
0.668457
 30
0.0
 40
0
 41
0
  0
VERTEX
  8
0
 10
0.942817
 20
0.671278
 30
0.0
 40
0
 41
0
  0
VERTEX
  8
0
 10
0.9509
 20
0.679579
 30
0.0
 40
0
 41
0
  0
VERTEX
  8
0
 10
0.953614
 20
0.679579
 30
0.0
 40
0
 41
0
  0
VERTEX
  8
0
 10
0.956381
 20
0.679579
 30
0.0
 40
0
 41
0
  0
VERTEX
  8
0
 10
0.964735
 20
0.671278
 30
0.0
 40
0
 41
0
  0
VERTEX
  8
0
 10
0.964735
 20
0.668457
 30
0.0
 40
0
 41
0
  0
SEQEND
 8
0
  0
POLYLINE
  8
0
 62
     204
 66
     1
 10
0
 20
0
 30
0.0
 70
     1
 40
0
 41
0
  0
VERTEX
  8
0
 10
1.19775
 20
0.384765
 30
0.0
 40
0
 41
0
  0
VERTEX
  8
0
 10
1.18321
 20
0.384765
 30
0.0
 40
0
 41
0
  0
VERTEX
  8
0
 10
1.17128
 20
0.384765
 30
0.0
 40
0
 41
0
  0
VERTEX
  8
0
 10
1.13894
 20
0.400771
 30
0.0
 40
0
 41
0
  0
VERTEX
  8
0
 10
1.13563
 20
0.403917
 30
0.0
 40
0
 41
0
  0
VERTEX
  8
0
 10
1.13232
 20
0.407064
 30
0.0
 40
0
 41
0
  0
VERTEX
  8
0
 10
1.12055
 20
0.425131
 30
0.0
 40
0
 41
0
  0
VERTEX
  8
0
 10
1.11507
 20
0.446235
 30
0.0
 40
0
 41
0
  0
VERTEX
  8
0
 10
1.11491
 20
0.4509
 30
0.0
 40
0
 41
0
  0
VERTEX
  8
0
 10
1.11485
 20
0.45101
 30
0.0
 40
0
 41
0
  0
VERTEX
  8
0
 10
1.11464
 20
0.4528
 30
0.0
 40
0
 41
0
  0
VERTEX
  8
0
 10
1.11464
 20
0.453342
 30
0.0
 40
0
 41
0
  0
VERTEX
  8
0
 10
1.11464
 20
0.594618
 30
0.0
 40
0
 41
0
  0
VERTEX
  8
0
 10
1.11464
 20
0.597439
 30
0.0
 40
0
 41
0
  0
VERTEX
  8
0
 10
1.12272
 20
0.60574
 30
0.0
 40
0
 41
0
  0
VERTEX
  8
0
 10
1.12543
 20
0.60574
 30
0.0
 40
0
 41
0
  0
VERTEX
  8
0
 10
1.1282
 20
0.60574
 30
0.0
 40
0
 41
0
  0
VERTEX
  8
0
 10
1.13656
 20
0.597439
 30
0.0
 40
0
 41
0
  0
VERTEX
  8
0
 10
1.13656
 20
0.594618
 30
0.0
 40
0
 41
0
  0
VERTEX
  8
0
 10
1.13656
 20
0.453993
 30
0.0
 40
0
 41
0
  0
VERTEX
  8
0
 10
1.13688
 20
0.453993
 30
0.0
 40
0
 41
0
  0
VERTEX
  8
0
 10
1.13688
 20
0.453668
 30
0.0
 40
0
 41
0
  0
VERTEX
  8
0
 10
1.13688
 20
0.445367
 30
0.0
 40
0
 41
0
  0
VERTEX
  8
0
 10
1.14817
 20
0.422743
 30
0.0
 40
0
 41
0
  0
VERTEX
  8
0
 10
1.15044
 20
0.420301
 30
0.0
 40
0
 41
0
  0
VERTEX
  8
0
 10
1.15283
 20
0.418078
 30
0.0
 40
0
 41
0
  0
VERTEX
  8
0
 10
1.17611
 20
0.406685
 30
0.0
 40
0
 41
0
  0
VERTEX
  8
0
 10
1.18387
 20
0.406685
 30
0.0
 40
0
 41
0
  0
VERTEX
  8
0
 10
1.18387
 20
0.407064
 30
0.0
 40
0
 41
0
  0
VERTEX
  8
0
 10
1.19775
 20
0.407064
 30
0.0
 40
0
 41
0
  0
VERTEX
  8
0
 10
1.2015
 20
0.407281
 30
0.0
 40
0
 41
0
  0
VERTEX
  8
0
 10
1.2334
 20
0.421929
 30
0.0
 40
0
 41
0
  0
VERTEX
  8
0
 10
1.23606
 20
0.424642
 30
0.0
 40
0
 41
0
  0
VERTEX
  8
0
 10
1.23866
 20
0.4273
 30
0.0
 40
0
 41
0
  0
VERTEX
  8
0
 10
1.25233
 20
0.460504
 30
0.0
 40
0
 41
0
  0
VERTEX
  8
0
 10
1.25244
 20
0.464518
 30
0.0
 40
0
 41
0
  0
VERTEX
  8
0
 10
1.25244
 20
0.594889
 30
0.0
 40
0
 41
0
  0
VERTEX
  8
0
 10
1.25244
 20
0.597601
 30
0.0
 40
0
 41
0
  0
VERTEX
  8
0
 10
1.26074
 20
0.60574
 30
0.0
 40
0
 41
0
  0
VERTEX
  8
0
 10
1.26356
 20
0.60574
 30
0.0
 40
0
 41
0
  0
VERTEX
  8
0
 10
1.26633
 20
0.60574
 30
0.0
 40
0
 41
0
  0
VERTEX
  8
0
 10
1.27468
 20
0.597601
 30
0.0
 40
0
 41
0
  0
VERTEX
  8
0
 10
1.27468
 20
0.594889
 30
0.0
 40
0
 41
0
  0
VERTEX
  8
0
 10
1.27468
 20
0.399306
 30
0.0
 40
0
 41
0
  0
VERTEX
  8
0
 10
1.27468
 20
0.396539
 30
0.0
 40
0
 41
0
  0
VERTEX
  8
0
 10
1.26633
 20
0.388183
 30
0.0
 40
0
 41
0
  0
VERTEX
  8
0
 10
1.26356
 20
0.388183
 30
0.0
 40
0
 41
0
  0
VERTEX
  8
0
 10
1.26074
 20
0.388183
 30
0.0
 40
0
 41
0
  0
VERTEX
  8
0
 10
1.25244
 20
0.396539
 30
0.0
 40
0
 41
0
  0
VERTEX
  8
0
 10
1.25244
 20
0.399306
 30
0.0
 40
0
 41
0
  0
VERTEX
  8
0
 10
1.25244
 20
0.409831
 30
0.0
 40
0
 41
0
  0
VERTEX
  8
0
 10
1.2487
 20
0.405871
 30
0.0
 40
0
 41
0
  0
VERTEX
  8
0
 10
1.22765
 20
0.39171
 30
0.0
 40
0
 41
0
  0
VERTEX
  8
0
 10
1.20313
 20
0.384983
 30
0.0
 40
0
 41
0
  0
VERTEX
  8
0
 10
1.19775
 20
0.384765
 30
0.0
 40
0
 41
0
  0
SEQEND
 8
0
  0
POLYLINE
  8
0
 62
     204
 66
     1
 10
0
 20
0
 30
0.0
 70
     1
 40
0
 41
0
  0
VERTEX
  8
0
 10
1.37543
 20
0.406685
 30
0.0
 40
0
 41
0
  0
VERTEX
  8
0
 10
1.38563
 20
0.406685
 30
0.0
 40
0
 41
0
  0
VERTEX
  8
0
 10
1.41336
 20
0.420899
 30
0.0
 40
0
 41
0
  0
VERTEX
  8
0
 10
1.41624
 20
0.423719
 30
0.0
 40
0
 41
0
  0
VERTEX
  8
0
 10
1.419
 20
0.42654
 30
0.0
 40
0
 41
0
  0
VERTEX
  8
0
 10
1.43343
 20
0.460504
 30
0.0
 40
0
 41
0
  0
VERTEX
  8
0
 10
1.43354
 20
0.464518
 30
0.0
 40
0
 41
0
  0
VERTEX
  8
0
 10
1.43354
 20
0.500325
 30
0.0
 40
0
 41
0
  0
VERTEX
  8
0
 10
1.36496
 20
0.500325
 30
0.0
 40
0
 41
0
  0
VERTEX
  8
0
 10
1.36496
 20
0.500706
 30
0.0
 40
0
 41
0
  0
VERTEX
  8
0
 10
1.36464
 20
0.500706
 30
0.0
 40
0
 41
0
  0
VERTEX
  8
0
 10
1.35628
 20
0.500706
 30
0.0
 40
0
 41
0
  0
VERTEX
  8
0
 10
1.33355
 20
0.489094
 30
0.0
 40
0
 41
0
  0
VERTEX
  8
0
 10
1.33127
 20
0.486763
 30
0.0
 40
0
 41
0
  0
VERTEX
  8
0
 10
1.32899
 20
0.484537
 30
0.0
 40
0
 41
0
  0
VERTEX
  8
0
 10
1.31765
 20
0.461426
 30
0.0
 40
0
 41
0
  0
VERTEX
  8
0
 10
1.31765
 20
0.453722
 30
0.0
 40
0
 41
0
  0
VERTEX
  8
0
 10
1.31765
 20
0.445367
 30
0.0
 40
0
 41
0
  0
VERTEX
  8
0
 10
1.32899
 20
0.422743
 30
0.0
 40
0
 41
0
  0
VERTEX
  8
0
 10
1.33127
 20
0.420301
 30
0.0
 40
0
 41
0
  0
VERTEX
  8
0
 10
1.33366
 20
0.418078
 30
0.0
 40
0
 41
0
  0
VERTEX
  8
0
 10
1.35688
 20
0.406685
 30
0.0
 40
0
 41
0
  0
VERTEX
  8
0
 10
1.36464
 20
0.406685
 30
0.0
 40
0
 41
0
  0
VERTEX
  8
0
 10
1.36496
 20
0.406685
 30
0.0
 40
0
 41
0
  0
VERTEX
  8
0
 10
1.36496
 20
0.40701
 30
0.0
 40
0
 41
0
  0
VERTEX
  8
0
 10
1.37516
 20
0.40701
 30
0.0
 40
0
 41
0
  0
VERTEX
  8
0
 10
1.37516
 20
0.406685
 30
0.0
 40
0
 41
0
  0
VERTEX
  8
0
 10
1.37543
 20
0.406685
 30
0.0
 40
0
 41
0
  0
SEQEND
 8
0
  0
POLYLINE
  8
0
 62
     204
 66
     1
 10
0
 20
0
 30
0.0
 70
     1
 40
0
 41
0
  0
VERTEX
  8
0
 10
1.37419
 20
0.384765
 30
0.0
 40
0
 41
0
  0
VERTEX
  8
0
 10
1.36464
 20
0.384765
 30
0.0
 40
0
 41
0
  0
VERTEX
  8
0
 10
1.35243
 20
0.384765
 30
0.0
 40
0
 41
0
  0
VERTEX
  8
0
 10
1.31928
 20
0.401531
 30
0.0
 40
0
 41
0
  0
VERTEX
  8
0
 10
1.31581
 20
0.404839
 30
0.0
 40
0
 41
0
  0
VERTEX
  8
0
 10
1.31245
 20
0.408365
 30
0.0
 40
0
 41
0
  0
VERTEX
  8
0
 10
1.29574
 20
0.442383
 30
0.0
 40
0
 41
0
  0
VERTEX
  8
0
 10
1.29574
 20
0.453722
 30
0.0
 40
0
 41
0
  0
VERTEX
  8
0
 10
1.29574
 20
0.460394
 30
0.0
 40
0
 41
0
  0
VERTEX
  8
0
 10
1.30062
 20
0.480251
 30
0.0
 40
0
 41
0
  0
VERTEX
  8
0
 10
1.31218
 20
0.498915
 30
0.0
 40
0
 41
0
  0
VERTEX
  8
0
 10
1.31548
 20
0.502171
 30
0.0
 40
0
 41
0
  0
VERTEX
  8
0
 10
1.31879
 20
0.505533
 30
0.0
 40
0
 41
0
  0
VERTEX
  8
0
 10
1.33762
 20
0.517469
 30
0.0
 40
0
 41
0
  0
VERTEX
  8
0
 10
1.35927
 20
0.52284
 30
0.0
 40
0
 41
0
  0
VERTEX
  8
0
 10
1.36404
 20
0.522894
 30
0.0
 40
0
 41
0
  0
VERTEX
  8
0
 10
1.43354
 20
0.522894
 30
0.0
 40
0
 41
0
  0
VERTEX
  8
0
 10
1.43354
 20
0.540201
 30
0.0
 40
0
 41
0
  0
VERTEX
  8
0
 10
1.43343
 20
0.543457
 30
0.0
 40
0
 41
0
  0
VERTEX
  8
0
 10
1.42156
 20
0.569228
 30
0.0
 40
0
 41
0
  0
VERTEX
  8
0
 10
1.41932
 20
0.571126
 30
0.0
 40
0
 41
0
  0
VERTEX
  8
0
 10
1.41704
 20
0.573133
 30
0.0
 40
0
 41
0
  0
VERTEX
  8
0
 10
1.39421
 20
0.583171
 30
0.0
 40
0
 41
0
  0
VERTEX
  8
0
 10
1.38661
 20
0.583171
 30
0.0
 40
0
 41
0
  0
VERTEX
  8
0
 10
1.38628
 20
0.583171
 30
0.0
 40
0
 41
0
  0
VERTEX
  8
0
 10
1.38542
 20
0.583333
 30
0.0
 40
0
 41
0
  0
VERTEX
  8
0
 10
1.38536
 20
0.583333
 30
0.0
 40
0
 41
0
  0
VERTEX
  8
0
 10
1.38525
 20
0.583387
 30
0.0
 40
0
 41
0
  0
VERTEX
  8
0
 10
1.38368
 20
0.583713
 30
0.0
 40
0
 41
0
  0
VERTEX
  8
0
 10
1.38346
 20
0.583768
 30
0.0
 40
0
 41
0
  0
VERTEX
  8
0
 10
1.32878
 20
0.583768
 30
0.0
 40
0
 41
0
  0
VERTEX
  8
0
 10
1.32596
 20
0.583768
 30
0.0
 40
0
 41
0
  0
VERTEX
  8
0
 10
1.31765
 20
0.592176
 30
0.0
 40
0
 41
0
  0
VERTEX
  8
0
 10
1.31765
 20
0.594943
 30
0.0
 40
0
 41
0
  0
VERTEX
  8
0
 10
1.31765
 20
0.597657
 30
0.0
 40
0
 41
0
  0
VERTEX
  8
0
 10
1.32596
 20
0.60574
 30
0.0
 40
0
 41
0
  0
VERTEX
  8
0
 10
1.32878
 20
0.60574
 30
0.0
 40
0
 41
0
  0
VERTEX
  8
0
 10
1.38661
 20
0.60574
 30
0.0
 40
0
 41
0
  0
VERTEX
  8
0
 10
1.38688
 20
0.60574
 30
0.0
 40
0
 41
0
  0
VERTEX
  8
0
 10
1.38764
 20
0.605632
 30
0.0
 40
0
 41
0
  0
VERTEX
  8
0
 10
1.3878
 20
0.605578
 30
0.0
 40
0
 41
0
  0
VERTEX
  8
0
 10
1.38797
 20
0.605578
 30
0.0
 40
0
 41
0
  0
VERTEX
  8
0
 10
1.39003
 20
0.605143
 30
0.0
 40
0
 41
0
  0
VERTEX
  8
0
 10
1.39031
 20
0.605089
 30
0.0
 40
0
 41
0
  0
VERTEX
  8
0
 10
1.39442
 20
0.604872
 30
0.0
 40
0
 41
0
  0
VERTEX
  8
0
 10
1.42996
 20
0.5912
 30
0.0
 40
0
 41
0
  0
VERTEX
  8
0
 10
1.43294
 20
0.588704
 30
0.0
 40
0
 41
0
  0
VERTEX
  8
0
 10
1.43599
 20
0.586262
 30
0.0
 40
0
 41
0
  0
VERTEX
  8
0
 10
1.45421
 20
0.55409
 30
0.0
 40
0
 41
0
  0
VERTEX
  8
0
 10
1.45486
 20
0.550076
 30
0.0
 40
0
 41
0
  0
VERTEX
  8
0
 10
1.45503
 20
0.549696
 30
0.0
 40
0
 41
0
  0
VERTEX
  8
0
 10
1.45578
 20
0.546983
 30
0.0
 40
0
 41
0
  0
VERTEX
  8
0
 10
1.45578
 20
0.546061
 30
0.0
 40
0
 41
0
  0
VERTEX
  8
0
 10
1.45578
 20
0.399306
 30
0.0
 40
0
 41
0
  0
VERTEX
  8
0
 10
1.45578
 20
0.396539
 30
0.0
 40
0
 41
0
  0
VERTEX
  8
0
 10
1.44743
 20
0.388183
 30
0.0
 40
0
 41
0
  0
VERTEX
  8
0
 10
1.44467
 20
0.388183
 30
0.0
 40
0
 41
0
  0
VERTEX
  8
0
 10
1.44185
 20
0.388183
 30
0.0
 40
0
 41
0
  0
VERTEX
  8
0
 10
1.43354
 20
0.396539
 30
0.0
 40
0
 41
0
  0
VERTEX
  8
0
 10
1.43354
 20
0.399306
 30
0.0
 40
0
 41
0
  0
VERTEX
  8
0
 10
1.43354
 20
0.409831
 30
0.0
 40
0
 41
0
  0
VERTEX
  8
0
 10
1.42958
 20
0.405653
 30
0.0
 40
0
 41
0
  0
VERTEX
  8
0
 10
1.40713
 20
0.39106
 30
0.0
 40
0
 41
0
  0
VERTEX
  8
0
 10
1.38336
 20
0.384765
 30
0.0
 40
0
 41
0
  0
VERTEX
  8
0
 10
1.37543
 20
0.384765
 30
0.0
 40
0
 41
0
  0
VERTEX
  8
0
 10
1.37419
 20
0.384765
 30
0.0
 40
0
 41
0
  0
SEQEND
 8
0
  0
POLYLINE
  8
0
 62
     204
 66
     1
 10
0
 20
0
 30
0.0
 70
     1
 40
0
 41
0
  0
VERTEX
  8
0
 10
1.61312
 20
0.590875
 30
0.0
 40
0
 41
0
  0
VERTEX
  8
0
 10
1.61333
 20
0.590494
 30
0.0
 40
0
 41
0
  0
VERTEX
  8
0
 10
1.61464
 20
0.58686
 30
0.0
 40
0
 41
0
  0
VERTEX
  8
0
 10
1.61464
 20
0.585613
 30
0.0
 40
0
 41
0
  0
VERTEX
  8
0
 10
1.61464
 20
0.582954
 30
0.0
 40
0
 41
0
  0
VERTEX
  8
0
 10
1.60628
 20
0.574815
 30
0.0
 40
0
 41
0
  0
VERTEX
  8
0
 10
1.60351
 20
0.574815
 30
0.0
 40
0
 41
0
  0
VERTEX
  8
0
 10
1.60161
 20
0.574815
 30
0.0
 40
0
 41
0
  0
VERTEX
  8
0
 10
1.59657
 20
0.577203
 30
0.0
 40
0
 41
0
  0
VERTEX
  8
0
 10
1.59608
 20
0.577636
 30
0.0
 40
0
 41
0
  0
VERTEX
  8
0
 10
1.59403
 20
0.579264
 30
0.0
 40
0
 41
0
  0
VERTEX
  8
0
 10
1.57422
 20
0.587185
 30
0.0
 40
0
 41
0
  0
VERTEX
  8
0
 10
1.56765
 20
0.587185
 30
0.0
 40
0
 41
0
  0
VERTEX
  8
0
 10
1.55436
 20
0.587185
 30
0.0
 40
0
 41
0
  0
VERTEX
  8
0
 10
1.55046
 20
0.587022
 30
0.0
 40
0
 41
0
  0
VERTEX
  8
0
 10
1.51779
 20
0.572049
 30
0.0
 40
0
 41
0
  0
VERTEX
  8
0
 10
1.51514
 20
0.569228
 30
0.0
 40
0
 41
0
  0
VERTEX
  8
0
 10
1.51247
 20
0.566624
 30
0.0
 40
0
 41
0
  0
VERTEX
  8
0
 10
1.49886
 20
0.533963
 30
0.0
 40
0
 41
0
  0
VERTEX
  8
0
 10
1.49875
 20
0.530003
 30
0.0
 40
0
 41
0
  0
VERTEX
  8
0
 10
1.49875
 20
0.399306
 30
0.0
 40
0
 41
0
  0
VERTEX
  8
0
 10
1.49875
 20
0.396539
 30
0.0
 40
0
 41
0
  0
VERTEX
  8
0
 10
1.4904
 20
0.388183
 30
0.0
 40
0
 41
0
  0
VERTEX
  8
0
 10
1.48763
 20
0.388183
 30
0.0
 40
0
 41
0
  0
VERTEX
  8
0
 10
1.48492
 20
0.388183
 30
0.0
 40
0
 41
0
  0
VERTEX
  8
0
 10
1.47683
 20
0.396539
 30
0.0
 40
0
 41
0
  0
VERTEX
  8
0
 10
1.47683
 20
0.399306
 30
0.0
 40
0
 41
0
  0
VERTEX
  8
0
 10
1.47683
 20
0.594618
 30
0.0
 40
0
 41
0
  0
VERTEX
  8
0
 10
1.47683
 20
0.597439
 30
0.0
 40
0
 41
0
  0
VERTEX
  8
0
 10
1.48492
 20
0.60574
 30
0.0
 40
0
 41
0
  0
VERTEX
  8
0
 10
1.48763
 20
0.60574
 30
0.0
 40
0
 41
0
  0
VERTEX
  8
0
 10
1.4904
 20
0.60574
 30
0.0
 40
0
 41
0
  0
VERTEX
  8
0
 10
1.49875
 20
0.597439
 30
0.0
 40
0
 41
0
  0
VERTEX
  8
0
 10
1.49875
 20
0.594618
 30
0.0
 40
0
 41
0
  0
VERTEX
  8
0
 10
1.49875
 20
0.584418
 30
0.0
 40
0
 41
0
  0
VERTEX
  8
0
 10
1.50256
 20
0.588433
 30
0.0
 40
0
 41
0
  0
VERTEX
  8
0
 10
1.52399
 20
0.602593
 30
0.0
 40
0
 41
0
  0
VERTEX
  8
0
 10
1.54867
 20
0.609267
 30
0.0
 40
0
 41
0
  0
VERTEX
  8
0
 10
1.5541
 20
0.609429
 30
0.0
 40
0
 41
0
  0
VERTEX
  8
0
 10
1.56831
 20
0.609429
 30
0.0
 40
0
 41
0
  0
VERTEX
  8
0
 10
1.57232
 20
0.609375
 30
0.0
 40
0
 41
0
  0
VERTEX
  8
0
 10
1.60704
 20
0.597222
 30
0.0
 40
0
 41
0
  0
VERTEX
  8
0
 10
1.61003
 20
0.594889
 30
0.0
 40
0
 41
0
  0
VERTEX
  8
0
 10
1.61094
 20
0.594021
 30
0.0
 40
0
 41
0
  0
VERTEX
  8
0
 10
1.611
 20
0.593912
 30
0.0
 40
0
 41
0
  0
VERTEX
  8
0
 10
1.61214
 20
0.592882
 30
0.0
 40
0
 41
0
  0
VERTEX
  8
0
 10
1.61231
 20
0.592774
 30
0.0
 40
0
 41
0
  0
VERTEX
  8
0
 10
1.61242
 20
0.592665
 30
0.0
 40
0
 41
0
  0
VERTEX
  8
0
 10
1.61361
 20
0.591635
 30
0.0
 40
0
 41
0
  0
VERTEX
  8
0
 10
1.61372
 20
0.591525
 30
0.0
 40
0
 41
0
  0
VERTEX
  8
0
 10
1.61312
 20
0.590875
 30
0.0
 40
0
 41
0
  0
SEQEND
 8
0
  0
POLYLINE
  8
0
 62
     204
 66
     1
 10
0
 20
0
 30
0.0
 70
     1
 40
0
 41
0
  0
VERTEX
  8
0
 10
1.70182
 20
0.664117
 30
0.0
 40
0
 41
0
  0
VERTEX
  8
0
 10
1.70182
 20
0.661296
 30
0.0
 40
0
 41
0
  0
VERTEX
  8
0
 10
1.69792
 20
0.652778
 30
0.0
 40
0
 41
0
  0
VERTEX
  8
0
 10
1.68924
 20
0.648981
 30
0.0
 40
0
 41
0
  0
VERTEX
  8
0
 10
1.68636
 20
0.648981
 30
0.0
 40
0
 41
0
  0
VERTEX
  8
0
 10
1.68349
 20
0.648981
 30
0.0
 40
0
 41
0
  0
VERTEX
  8
0
 10
1.67497
 20
0.652778
 30
0.0
 40
0
 41
0
  0
VERTEX
  8
0
 10
1.67122
 20
0.661296
 30
0.0
 40
0
 41
0
  0
VERTEX
  8
0
 10
1.67122
 20
0.664117
 30
0.0
 40
0
 41
0
  0
VERTEX
  8
0
 10
1.67122
 20
0.667046
 30
0.0
 40
0
 41
0
  0
VERTEX
  8
0
 10
1.67497
 20
0.675726
 30
0.0
 40
0
 41
0
  0
VERTEX
  8
0
 10
1.68349
 20
0.679579
 30
0.0
 40
0
 41
0
  0
VERTEX
  8
0
 10
1.68636
 20
0.679579
 30
0.0
 40
0
 41
0
  0
VERTEX
  8
0
 10
1.68924
 20
0.679579
 30
0.0
 40
0
 41
0
  0
VERTEX
  8
0
 10
1.69792
 20
0.675726
 30
0.0
 40
0
 41
0
  0
VERTEX
  8
0
 10
1.70182
 20
0.667046
 30
0.0
 40
0
 41
0
  0
VERTEX
  8
0
 10
1.70182
 20
0.664117
 30
0.0
 40
0
 41
0
  0
SEQEND
 8
0
  0
POLYLINE
  8
0
 62
     204
 66
     1
 10
0
 20
0
 30
0.0
 70
     1
 40
0
 41
0
  0
VERTEX
  8
0
 10
1.70182
 20
0.594618
 30
0.0
 40
0
 41
0
  0
VERTEX
  8
0
 10
1.70182
 20
0.399306
 30
0.0
 40
0
 41
0
  0
VERTEX
  8
0
 10
1.70182
 20
0.396539
 30
0.0
 40
0
 41
0
  0
VERTEX
  8
0
 10
1.69342
 20
0.388183
 30
0.0
 40
0
 41
0
  0
VERTEX
  8
0
 10
1.69065
 20
0.388183
 30
0.0
 40
0
 41
0
  0
VERTEX
  8
0
 10
1.68782
 20
0.388183
 30
0.0
 40
0
 41
0
  0
VERTEX
  8
0
 10
1.67953
 20
0.396539
 30
0.0
 40
0
 41
0
  0
VERTEX
  8
0
 10
1.67953
 20
0.399306
 30
0.0
 40
0
 41
0
  0
VERTEX
  8
0
 10
1.67953
 20
0.583496
 30
0.0
 40
0
 41
0
  0
VERTEX
  8
0
 10
1.64367
 20
0.583496
 30
0.0
 40
0
 41
0
  0
VERTEX
  8
0
 10
1.6409
 20
0.583496
 30
0.0
 40
0
 41
0
  0
VERTEX
  8
0
 10
1.6326
 20
0.591851
 30
0.0
 40
0
 41
0
  0
VERTEX
  8
0
 10
1.6326
 20
0.594618
 30
0.0
 40
0
 41
0
  0
VERTEX
  8
0
 10
1.6326
 20
0.597439
 30
0.0
 40
0
 41
0
  0
VERTEX
  8
0
 10
1.6409
 20
0.60574
 30
0.0
 40
0
 41
0
  0
VERTEX
  8
0
 10
1.64367
 20
0.60574
 30
0.0
 40
0
 41
0
  0
VERTEX
  8
0
 10
1.69065
 20
0.60574
 30
0.0
 40
0
 41
0
  0
VERTEX
  8
0
 10
1.69342
 20
0.60574
 30
0.0
 40
0
 41
0
  0
VERTEX
  8
0
 10
1.70182
 20
0.597439
 30
0.0
 40
0
 41
0
  0
VERTEX
  8
0
 10
1.70182
 20
0.594618
 30
0.0
 40
0
 41
0
  0
SEQEND
 8
0
  0
POLYLINE
  8
0
 62
     204
 66
     1
 10
0
 20
0
 30
0.0
 70
     1
 40
0
 41
0
  0
VERTEX
  8
0
 10
1.81489
 20
0.384765
 30
0.0
 40
0
 41
0
  0
VERTEX
  8
0
 10
1.80035
 20
0.384765
 30
0.0
 40
0
 41
0
  0
VERTEX
  8
0
 10
1.78842
 20
0.384765
 30
0.0
 40
0
 41
0
  0
VERTEX
  8
0
 10
1.75608
 20
0.400771
 30
0.0
 40
0
 41
0
  0
VERTEX
  8
0
 10
1.75276
 20
0.403917
 30
0.0
 40
0
 41
0
  0
VERTEX
  8
0
 10
1.74946
 20
0.407064
 30
0.0
 40
0
 41
0
  0
VERTEX
  8
0
 10
1.73768
 20
0.425131
 30
0.0
 40
0
 41
0
  0
VERTEX
  8
0
 10
1.73221
 20
0.446235
 30
0.0
 40
0
 41
0
  0
VERTEX
  8
0
 10
1.73204
 20
0.4509
 30
0.0
 40
0
 41
0
  0
VERTEX
  8
0
 10
1.73199
 20
0.45101
 30
0.0
 40
0
 41
0
  0
VERTEX
  8
0
 10
1.73178
 20
0.4528
 30
0.0
 40
0
 41
0
  0
VERTEX
  8
0
 10
1.73178
 20
0.453342
 30
0.0
 40
0
 41
0
  0
VERTEX
  8
0
 10
1.73178
 20
0.594618
 30
0.0
 40
0
 41
0
  0
VERTEX
  8
0
 10
1.73178
 20
0.597439
 30
0.0
 40
0
 41
0
  0
VERTEX
  8
0
 10
1.73986
 20
0.60574
 30
0.0
 40
0
 41
0
  0
VERTEX
  8
0
 10
1.74257
 20
0.60574
 30
0.0
 40
0
 41
0
  0
VERTEX
  8
0
 10
1.74533
 20
0.60574
 30
0.0
 40
0
 41
0
  0
VERTEX
  8
0
 10
1.75369
 20
0.597439
 30
0.0
 40
0
 41
0
  0
VERTEX
  8
0
 10
1.75369
 20
0.594618
 30
0.0
 40
0
 41
0
  0
VERTEX
  8
0
 10
1.75369
 20
0.453993
 30
0.0
 40
0
 41
0
  0
VERTEX
  8
0
 10
1.75401
 20
0.453993
 30
0.0
 40
0
 41
0
  0
VERTEX
  8
0
 10
1.75401
 20
0.453668
 30
0.0
 40
0
 41
0
  0
VERTEX
  8
0
 10
1.75401
 20
0.445367
 30
0.0
 40
0
 41
0
  0
VERTEX
  8
0
 10
1.76535
 20
0.422743
 30
0.0
 40
0
 41
0
  0
VERTEX
  8
0
 10
1.76764
 20
0.420301
 30
0.0
 40
0
 41
0
  0
VERTEX
  8
0
 10
1.77001
 20
0.418078
 30
0.0
 40
0
 41
0
  0
VERTEX
  8
0
 10
1.79324
 20
0.406685
 30
0.0
 40
0
 41
0
  0
VERTEX
  8
0
 10
1.801
 20
0.406685
 30
0.0
 40
0
 41
0
  0
VERTEX
  8
0
 10
1.801
 20
0.407064
 30
0.0
 40
0
 41
0
  0
VERTEX
  8
0
 10
1.81489
 20
0.407064
 30
0.0
 40
0
 41
0
  0
VERTEX
  8
0
 10
1.81862
 20
0.407281
 30
0.0
 40
0
 41
0
  0
VERTEX
  8
0
 10
1.85058
 20
0.421929
 30
0.0
 40
0
 41
0
  0
VERTEX
  8
0
 10
1.85325
 20
0.424642
 30
0.0
 40
0
 41
0
  0
VERTEX
  8
0
 10
1.85585
 20
0.4273
 30
0.0
 40
0
 41
0
  0
VERTEX
  8
0
 10
1.86947
 20
0.460504
 30
0.0
 40
0
 41
0
  0
VERTEX
  8
0
 10
1.86957
 20
0.464518
 30
0.0
 40
0
 41
0
  0
VERTEX
  8
0
 10
1.86957
 20
0.594889
 30
0.0
 40
0
 41
0
  0
VERTEX
  8
0
 10
1.86957
 20
0.597601
 30
0.0
 40
0
 41
0
  0
VERTEX
  8
0
 10
1.87788
 20
0.60574
 30
0.0
 40
0
 41
0
  0
VERTEX
  8
0
 10
1.88069
 20
0.60574
 30
0.0
 40
0
 41
0
  0
VERTEX
  8
0
 10
1.88346
 20
0.60574
 30
0.0
 40
0
 41
0
  0
VERTEX
  8
0
 10
1.89187
 20
0.597601
 30
0.0
 40
0
 41
0
  0
VERTEX
  8
0
 10
1.89187
 20
0.594889
 30
0.0
 40
0
 41
0
  0
VERTEX
  8
0
 10
1.89187
 20
0.399306
 30
0.0
 40
0
 41
0
  0
VERTEX
  8
0
 10
1.89187
 20
0.396539
 30
0.0
 40
0
 41
0
  0
VERTEX
  8
0
 10
1.88346
 20
0.388183
 30
0.0
 40
0
 41
0
  0
VERTEX
  8
0
 10
1.88069
 20
0.388183
 30
0.0
 40
0
 41
0
  0
VERTEX
  8
0
 10
1.87788
 20
0.388183
 30
0.0
 40
0
 41
0
  0
VERTEX
  8
0
 10
1.86957
 20
0.396539
 30
0.0
 40
0
 41
0
  0
VERTEX
  8
0
 10
1.86957
 20
0.399306
 30
0.0
 40
0
 41
0
  0
VERTEX
  8
0
 10
1.86957
 20
0.409831
 30
0.0
 40
0
 41
0
  0
VERTEX
  8
0
 10
1.86583
 20
0.405871
 30
0.0
 40
0
 41
0
  0
VERTEX
  8
0
 10
1.84478
 20
0.39171
 30
0.0
 40
0
 41
0
  0
VERTEX
  8
0
 10
1.82026
 20
0.384983
 30
0.0
 40
0
 41
0
  0
VERTEX
  8
0
 10
1.81489
 20
0.384765
 30
0.0
 40
0
 41
0
  0
SEQEND
 8
0
  0
POLYLINE
  8
0
 62
     204
 66
     1
 10
0
 20
0
 30
0.0
 70
     1
 40
0
 41
0
  0
VERTEX
  8
0
 10
1.98178
 20
0.609429
 30
0.0
 40
0
 41
0
  0
VERTEX
  8
0
 10
1.99018
 20
0.609429
 30
0.0
 40
0
 41
0
  0
VERTEX
  8
0
 10
2.01292
 20
0.601997
 30
0.0
 40
0
 41
0
  0
VERTEX
  8
0
 10
2.01546
 20
0.600478
 30
0.0
 40
0
 41
0
  0
VERTEX
  8
0
 10
2.01796
 20
0.599012
 30
0.0
 40
0
 41
0
  0
VERTEX
  8
0
 10
2.03831
 20
0.579699
 30
0.0
 40
0
 41
0
  0
VERTEX
  8
0
 10
2.03988
 20
0.577311
 30
0.0
 40
0
 41
0
  0
VERTEX
  8
0
 10
2.04139
 20
0.579699
 30
0.0
 40
0
 41
0
  0
VERTEX
  8
0
 10
2.0619
 20
0.599012
 30
0.0
 40
0
 41
0
  0
VERTEX
  8
0
 10
2.06446
 20
0.600478
 30
0.0
 40
0
 41
0
  0
VERTEX
  8
0
 10
2.067
 20
0.601997
 30
0.0
 40
0
 41
0
  0
VERTEX
  8
0
 10
2.09044
 20
0.609429
 30
0.0
 40
0
 41
0
  0
VERTEX
  8
0
 10
2.09831
 20
0.609429
 30
0.0
 40
0
 41
0
  0
VERTEX
  8
0
 10
2.10482
 20
0.609429
 30
0.0
 40
0
 41
0
  0
VERTEX
  8
0
 10
2.12435
 20
0.604383
 30
0.0
 40
0
 41
0
  0
VERTEX
  8
0
 10
2.14312
 20
0.592449
 30
0.0
 40
0
 41
0
  0
VERTEX
  8
0
 10
2.14649
 20
0.589031
 30
0.0
 40
0
 41
0
  0
VERTEX
  8
0
 10
2.14979
 20
0.585721
 30
0.0
 40
0
 41
0
  0
VERTEX
  8
0
 10
2.1671
 20
0.545574
 30
0.0
 40
0
 41
0
  0
VERTEX
  8
0
 10
2.16721
 20
0.540853
 30
0.0
 40
0
 41
0
  0
VERTEX
  8
0
 10
2.16721
 20
0.399306
 30
0.0
 40
0
 41
0
  0
VERTEX
  8
0
 10
2.16721
 20
0.396539
 30
0.0
 40
0
 41
0
  0
VERTEX
  8
0
 10
2.15886
 20
0.388183
 30
0.0
 40
0
 41
0
  0
VERTEX
  8
0
 10
2.15608
 20
0.388183
 30
0.0
 40
0
 41
0
  0
VERTEX
  8
0
 10
2.15326
 20
0.388183
 30
0.0
 40
0
 41
0
  0
VERTEX
  8
0
 10
2.14492
 20
0.396539
 30
0.0
 40
0
 41
0
  0
VERTEX
  8
0
 10
2.14492
 20
0.399306
 30
0.0
 40
0
 41
0
  0
VERTEX
  8
0
 10
2.14492
 20
0.541775
 30
0.0
 40
0
 41
0
  0
VERTEX
  8
0
 10
2.14486
 20
0.544922
 30
0.0
 40
0
 41
0
  0
VERTEX
  8
0
 10
2.13303
 20
0.571724
 30
0.0
 40
0
 41
0
  0
VERTEX
  8
0
 10
2.13075
 20
0.573893
 30
0.0
 40
0
 41
0
  0
VERTEX
  8
0
 10
2.12853
 20
0.576118
 30
0.0
 40
0
 41
0
  0
VERTEX
  8
0
 10
2.10585
 20
0.587185
 30
0.0
 40
0
 41
0
  0
VERTEX
  8
0
 10
2.09831
 20
0.587185
 30
0.0
 40
0
 41
0
  0
VERTEX
  8
0
 10
2.08996
 20
0.587185
 30
0.0
 40
0
 41
0
  0
VERTEX
  8
0
 10
2.06717
 20
0.575629
 30
0.0
 40
0
 41
0
  0
VERTEX
  8
0
 10
2.06489
 20
0.573296
 30
0.0
 40
0
 41
0
  0
VERTEX
  8
0
 10
2.06261
 20
0.571018
 30
0.0
 40
0
 41
0
  0
VERTEX
  8
0
 10
2.05132
 20
0.54796
 30
0.0
 40
0
 41
0
  0
VERTEX
  8
0
 10
2.05132
 20
0.540256
 30
0.0
 40
0
 41
0
  0
VERTEX
  8
0
 10
2.05132
 20
0.539008
 30
0.0
 40
0
 41
0
  0
VERTEX
  8
0
 10
2.05132
 20
0.538194
 30
0.0
 40
0
 41
0
  0
VERTEX
  8
0
 10
2.05078
 20
0.536133
 30
0.0
 40
0
 41
0
  0
VERTEX
  8
0
 10
2.05067
 20
0.53559
 30
0.0
 40
0
 41
0
  0
VERTEX
  8
0
 10
2.05067
 20
0.399306
 30
0.0
 40
0
 41
0
  0
VERTEX
  8
0
 10
2.05067
 20
0.396539
 30
0.0
 40
0
 41
0
  0
VERTEX
  8
0
 10
2.04232
 20
0.388183
 30
0.0
 40
0
 41
0
  0
VERTEX
  8
0
 10
2.03956
 20
0.388183
 30
0.0
 40
0
 41
0
  0
VERTEX
  8
0
 10
2.03683
 20
0.388183
 30
0.0
 40
0
 41
0
  0
VERTEX
  8
0
 10
2.02875
 20
0.396539
 30
0.0
 40
0
 41
0
  0
VERTEX
  8
0
 10
2.02875
 20
0.399306
 30
0.0
 40
0
 41
0
  0
VERTEX
  8
0
 10
2.02875
 20
0.541775
 30
0.0
 40
0
 41
0
  0
VERTEX
  8
0
 10
2.02869
 20
0.544868
 30
0.0
 40
0
 41
0
  0
VERTEX
  8
0
 10
2.01654
 20
0.571669
 30
0.0
 40
0
 41
0
  0
VERTEX
  8
0
 10
2.01421
 20
0.573893
 30
0.0
 40
0
 41
0
  0
VERTEX
  8
0
 10
2.01199
 20
0.576118
 30
0.0
 40
0
 41
0
  0
VERTEX
  8
0
 10
1.98931
 20
0.587185
 30
0.0
 40
0
 41
0
  0
VERTEX
  8
0
 10
1.98178
 20
0.587185
 30
0.0
 40
0
 41
0
  0
VERTEX
  8
0
 10
1.97347
 20
0.587185
 30
0.0
 40
0
 41
0
  0
VERTEX
  8
0
 10
1.95107
 20
0.575846
 30
0.0
 40
0
 41
0
  0
VERTEX
  8
0
 10
1.94868
 20
0.573568
 30
0.0
 40
0
 41
0
  0
VERTEX
  8
0
 10
1.94646
 20
0.571397
 30
0.0
 40
0
 41
0
  0
VERTEX
  8
0
 10
1.9349
 20
0.544108
 30
0.0
 40
0
 41
0
  0
VERTEX
  8
0
 10
1.93479
 20
0.540853
 30
0.0
 40
0
 41
0
  0
VERTEX
  8
0
 10
1.93479
 20
0.399306
 30
0.0
 40
0
 41
0
  0
VERTEX
  8
0
 10
1.93479
 20
0.396539
 30
0.0
 40
0
 41
0
  0
VERTEX
  8
0
 10
1.92643
 20
0.388183
 30
0.0
 40
0
 41
0
  0
VERTEX
  8
0
 10
1.92367
 20
0.388183
 30
0.0
 40
0
 41
0
  0
VERTEX
  8
0
 10
1.92096
 20
0.388183
 30
0.0
 40
0
 41
0
  0
VERTEX
  8
0
 10
1.91288
 20
0.396539
 30
0.0
 40
0
 41
0
  0
VERTEX
  8
0
 10
1.91288
 20
0.399306
 30
0.0
 40
0
 41
0
  0
VERTEX
  8
0
 10
1.91288
 20
0.594618
 30
0.0
 40
0
 41
0
  0
VERTEX
  8
0
 10
1.91288
 20
0.597439
 30
0.0
 40
0
 41
0
  0
VERTEX
  8
0
 10
1.92096
 20
0.60574
 30
0.0
 40
0
 41
0
  0
VERTEX
  8
0
 10
1.92367
 20
0.60574
 30
0.0
 40
0
 41
0
  0
VERTEX
  8
0
 10
1.92643
 20
0.60574
 30
0.0
 40
0
 41
0
  0
VERTEX
  8
0
 10
1.93479
 20
0.597439
 30
0.0
 40
0
 41
0
  0
VERTEX
  8
0
 10
1.93479
 20
0.594618
 30
0.0
 40
0
 41
0
  0
VERTEX
  8
0
 10
1.93479
 20
0.590603
 30
0.0
 40
0
 41
0
  0
VERTEX
  8
0
 10
1.93793
 20
0.59375
 30
0.0
 40
0
 41
0
  0
VERTEX
  8
0
 10
1.95594
 20
0.604764
 30
0.0
 40
0
 41
0
  0
VERTEX
  8
0
 10
1.97532
 20
0.609429
 30
0.0
 40
0
 41
0
  0
VERTEX
  8
0
 10
1.98178
 20
0.609429
 30
0.0
 40
0
 41
0
  0
SEQEND
 8
0
  0
ENDSEC
  0
EOF
